<?xml version="1.0" encoding="UTF-8" standalone="no"?>
<svg
   viewBox="0 0 800 533"
   version="1.1"
   desc="Created with imagetracer.js version 1.2.6"
   shape-rendering="geometricPrecision"
   style="background: transparent;"
   id="svg1"
   sodipodi:docname="boat_cutout.svg"
   inkscape:version="1.4 (86a8ad7, 2024-10-11)"
   xmlns:inkscape="http://www.inkscape.org/namespaces/inkscape"
   xmlns:sodipodi="http://sodipodi.sourceforge.net/DTD/sodipodi-0.dtd"
   xmlns="http://www.w3.org/2000/svg"
   xmlns:svg="http://www.w3.org/2000/svg">
  <defs
     id="defs1" />
  <sodipodi:namedview
     id="namedview1"
     pagecolor="#ffffff"
     bordercolor="#111111"
     borderopacity="1"
     inkscape:showpageshadow="0"
     inkscape:pageopacity="0"
     inkscape:pagecheckerboard="1"
     inkscape:deskcolor="#d1d1d1"
     inkscape:zoom="1.4502814"
     inkscape:cx="400.26714"
     inkscape:cy="266.5"
     inkscape:window-width="1920"
     inkscape:window-height="1017"
     inkscape:window-x="-8"
     inkscape:window-y="-8"
     inkscape:window-maximized="1"
     inkscape:current-layer="svg1" />
  <path
     fill="rgb(59,9,77)"
     stroke="rgb(59,9,77)"
     stroke-width="1.2"
     stroke-linejoin="round"
     stroke-linecap="round"
     paint-order="stroke fill"
     id="grouped-path-0"
     d="M 398.5 23 Q 403.25 23.25 405 26.5 L 406 34.5 L 405 34.5 Q 406.5 26.5 401.5 25 L 399.5 24 L 395.5 27 L 395 25.5 L 398.5 23 Z  M 392.5 26 L 393 28 L 390 27.5 L 392.5 26 Z  M 387.5 28 Q 390.125 27.333 389 30 L 380.5 33 L 378.5 33 L 377 32.5 L 379.5 31 Q 381 33.5 382.5 30 L 387.5 28 Z  M 374.5 33 L 376 33.5 L 371.5 36 L 372.5 34 L 374.5 33 Z  M 369.5 35 L 370 37 L 367.5 38 L 366.5 36 Q 368 38.5 369.5 35 Z  M 364.5 37 L 363.5 39 L 359.5 41 L 359 39 L 364.5 37 Z  M 405.5 40 L 406 44.5 L 405 44.5 L 405.5 40 Z  M 350.5 42 L 352 42.5 L 345.5 46 L 346.5 44 L 350.5 42 Z  M 342 45 Q 345 44 344 47 L 337.5 48 L 330.5 52 L 329.5 50 L 332.5 50 L 340.5 46 L 342 46.5 L 342 45 Z  M 322 55 Q 325 53.75 324 57.5 Q 321.75 58.75 324.5 60 L 328 61.5 L 326.5 62 L 322 58.5 L 322 55 Z  M 334.5 63 L 340.5 66 L 344 66 Q 345.125 68.667 342.5 68 L 335.5 65 L 334.5 63 Z  M 345 67 L 353 70.5 L 351.5 71 L 346.5 68 L 345 68.5 L 345 67 Z  M 356 71 L 358 71 Q 356.875 73.667 359.5 73 L 361 72.5 L 358.5 74 L 356 73 L 356 71 Z  M 362.5 73 L 372 76 L 373 78.5 L 370.5 77 L 362 75 L 362.5 73 Z  M 375.5 78 L 381.5 81 L 385 81 L 384.5 83 L 376.5 80 L 375.5 78 Z  M 389.5 83 L 395 85.5 L 392 91.5 L 392 93.5 L 385.5 108 L 385 106.5 L 386 103.5 L 394 85 Q 389.25 86 389.5 83 Z  M 405.5 83 L 406 86.5 L 405 86.5 L 405.5 83 Z  M 410 87 L 419 90.5 L 417.5 91 Q 415.25 88 410 89 L 410 87 Z  M 423 91 L 427 92 L 426.5 94 L 423 93 L 423 91 Z  M 428.5 93 L 447 100 L 447.5 102 L 449.5 102 L 464 109 L 463.5 111 Q 448.405 101.095 429.5 95 L 428.5 93 Z  M 465.5 110 L 487 124 Q 485.75 127 489.5 126 Q 492.5 127.5 489.5 129 L 468 114 L 467.5 112 Q 466.25 114.25 465 111.5 L 465.5 110 Z  M 382.5 111 L 382 114.5 L 378 124 L 376 123.5 L 382.5 111 Z  M 405.5 111 L 407 113.5 L 405 114.5 L 405.5 111 Z  M 407.5 115 L 408 116.5 L 407 117.5 L 408.5 120 Q 406.25 120.75 407 118.5 L 406 118.5 L 405.5 137 L 405 116 L 407.5 115 Z  M 409.5 124 L 411 127.5 L 409 126.5 L 409.5 124 Z  M 375 125 L 377 125.5 L 370.5 137 L 371 135.5 L 375 125 Z  M 491.5 129 L 499 134.5 L 499.5 136 L 500.5 135 L 506.5 141 L 509 142.5 L 510.5 145 L 514 147.5 L 515.5 150 L 519 152.5 L 522 156.5 L 520.5 157 L 517 153.5 Q 519.25 152.25 516.5 151 L 515 151.5 L 512.5 148 L 503 139.5 Q 503.75 137.25 501.5 138 L 497 134.5 Q 497.75 132.25 495.5 133 L 491.5 129 Z  M 412.5 133 L 414 137.5 L 412 138.5 L 411 134.5 L 412.5 133 Z  M 367 140 Q 369.667 138.875 369 141.5 L 366.5 143 L 367 141.5 L 367 140 Z  M 365 144 Q 367.667 142.875 367 145.5 L 362 151.5 Q 364.25 152.75 361.5 154 L 360 153.5 L 365 144 Z  M 414.5 144 L 416 146.5 L 414 147 L 414.5 144 Z  M 416.5 150 L 417 153 Q 414.333 154.125 415 151.5 L 416.5 150 Z  M 416.5 155 Q 419.125 154.167 418 157.5 L 416 158.5 L 417 156.5 L 416.5 155 Z  M 359.5 156 L 359 157.5 L 358.5 159 L 358 157.5 L 359.5 156 Z  M 522.5 158 L 525 159.5 L 531 168.5 L 528 166.5 L 522.5 158 Z  M 405.5 159 L 406 163.5 L 405 163.5 L 405.5 159 Z  M 417 161 L 419 161.5 L 418.5 164 Q 415.5 164.75 417 161 Z  M 355.5 163 L 356 165.5 L 353 167.5 L 355.5 163 Z  M 351.5 169 Q 354.75 170.75 351 172.5 L 348 179 L 346 178.5 L 350 171 L 352 170.5 L 351.5 169 Z  M 532.5 169 L 539 177.5 L 539 180 L 542 181.5 L 547 189.5 L 545 190 L 542 185.5 L 542.5 184 Q 540.25 184.75 541 182.5 L 532 171.5 L 532.5 169 Z  M 419.5 172 Q 422.25 173.25 420 174.5 L 421 177.5 L 419 176.5 L 419.5 172 Z  M 405.5 173 L 406 182.5 L 405 182.5 L 405.5 173 Z  M 345 180 L 347 180.5 L 343.5 186 L 342 186.5 Q 344.5 188 341 189.5 L 337.5 196 L 336 195.5 L 343 183 Q 346.333 184.125 345 180 Z  M 421.5 185 L 422 189 Q 419 190.25 420 186.5 L 421.5 185 Z  M 546.5 191 L 549 192.5 L 548.5 194 L 550 194.5 L 548.5 195 L 546.5 191 Z  M 335 197 L 337 197.5 Q 333.25 198.75 334 203 Q 331 201.75 332 205.5 L 329 207.5 L 335 197 Z  M 550.5 198 L 553 199.5 L 552.5 202 L 550.5 198 Z  M 405.5 200 L 406 204.5 L 405 204.5 L 405.5 200 Z  M 553.5 203 Q 555.75 202.25 555 204.5 L 557 207.5 L 554 205.5 L 553.5 203 Z  M 327 209 L 329 209.5 L 328 212 L 326 211.5 L 327 209 Z  M 557.5 209 L 559 211.5 L 557 210.5 L 557.5 209 Z  M 325.5 213 L 326 214.5 L 322 218.5 L 322 220.5 L 316 231 Q 313.333 229.875 314 232.5 L 305.5 245 L 304 245.5 Q 306.5 247 303 248.5 L 297.5 257 Q 293.75 254.75 299 252.5 L 308 238 Q 311 239.25 310 235.5 Q 316.221 230.815 318 223 Q 321 224.25 320 220.5 L 325.5 213 Z  M 559.5 214 L 562 217.5 L 559 215.5 L 559.5 214 Z  M 562.5 221 Q 565.125 220.167 564 223.5 L 563 223.5 L 562.5 221 Z  M 564.5 225 L 567 229.5 L 565 228.5 L 564.5 225 Z  M 420 236 Q 423.333 234.688 422 239.5 L 420 240.5 L 420 236 Z  M 568.5 236 Q 571.125 235.167 570 238.5 L 574 249 L 572 248.5 L 572 246.5 L 568.5 236 Z  M 405.5 240 L 406 245.5 L 405 245.5 L 405.5 240 Z  M 420.5 248 L 421 249.5 L 420 251.5 Q 422.25 252.75 419.5 254 L 419 249.5 L 420.5 248 Z  M 419.5 255 L 419 256.5 L 418.5 259 L 418 256.5 L 419.5 255 Z  M 574.5 255 Q 577.125 254.167 576 257.5 L 578 262.5 L 577 262.5 L 575 259.5 L 575 257.5 L 574.5 255 Z  M 405.5 256 L 406 264.5 L 405 264.5 L 405.5 256 Z  M 295.5 258 L 295 259.5 L 293.5 262 L 291.5 263 L 295.5 258 Z  M 290.5 264 L 292 264.5 L 289.5 266 L 290.5 264 Z  M 577.5 264 L 579 266.5 L 577 267.5 L 577 265.5 L 577.5 264 Z  M 405.5 266 L 406 312 Q 409 311 408 314 L 405 312.5 L 405.5 266 Z  M 288.5 267 L 289 268.5 L 277.5 283 L 276 282.5 L 278 282 L 288.5 267 Z  M 415 274 Q 418 272.75 417 276.5 L 415 275.5 L 415 274 Z  M 415.5 278 L 416 280.5 L 414.5 284 L 415 280.5 L 415.5 278 Z  M 580.5 279 L 582 283 L 580 282.5 L 581 280.5 L 580.5 279 Z  M 275.5 284 L 277 284.5 L 274 286 L 272 292 L 269.5 293 L 270 291.5 L 275.5 284 Z  M 582 291 Q 585 289.75 584 293.5 L 582.5 296 L 582 291 Z  M 267.5 294 L 269 294.5 L 257.5 309 L 256 309.5 Q 258.75 311.25 254.5 313 L 254 311.5 L 261.5 302 L 263 301.5 L 262 300.5 L 266 296.5 L 267.5 294 Z  M 583.5 299 Q 586 300.188 585 304 L 583 303.5 L 584 301.5 L 583.5 299 Z  M 410.5 300 L 411 303 L 409 302.5 L 410.5 300 Z  M 409.5 304 L 410 305.5 L 407.5 311 L 407 309.5 L 409.5 304 Z  M 584.5 306 L 585 310.5 L 584 310.5 L 584.5 306 Z  M 252.5 313 L 253 315.5 L 243.5 326 Q 241.25 325.25 242 327.5 L 238.5 332 Q 235.875 331.167 237 334.5 L 231.5 339 L 236 333.5 L 248.5 318 Q 250.75 318.75 250 316.5 L 252.5 313 Z  M 405.5 315 L 406 318.5 L 405 318.5 L 405.5 315 Z  M 584.5 316 Q 587 317 586 321.5 L 585 321.5 L 584.5 316 Z  M 585.5 324 L 586 331.5 L 585 331.5 L 585.5 324 Z  M 466.5 332 L 469 332.5 L 465.5 334 L 460 333.5 L 466.5 332 Z  M 471.5 332 L 476 332.5 L 472.5 334 L 471.5 332 Z  M 503 332 L 510 333.5 L 503 334 L 503 332 Z  M 447.5 334 L 449 334.5 Q 448.25 336.75 444.5 336 L 444.5 335 L 447.5 334 Z  M 520.5 334 L 523 335.5 L 521.5 336 L 520.5 334 Z  M 440.5 335 L 441.5 337 L 439 336.5 L 440.5 335 Z  M 527.5 335 L 531 336.5 L 527 337 L 527.5 335 Z  M 585.5 336 L 586 340.5 L 584 341.5 L 585.5 336 Z  M 427.5 337 L 430 337.5 L 426.5 339 L 425 338.5 L 427.5 337 Z  M 540.5 337 L 543 338.5 L 540 339 L 540.5 337 Z  M 418.5 339 L 420.5 339 L 424 339.5 L 418 341 L 418.5 339 Z  M 553.5 340 L 552.5 342 L 551 341.5 L 553.5 340 Z  M 555 341 L 567.5 346 L 571.5 346 L 578 350.5 L 576.5 350 L 558.5 343 L 555 343 L 555 341 Z  M 408.5 342 L 410 342.5 L 405.5 345 L 405 343 L 408.5 342 Z  M 394.5 345 L 395 360.5 L 396 361.5 L 394 362 L 394.5 345 Z  M 405.5 346 L 406 361.5 L 405 361.5 L 405.5 346 Z  M 584.5 347 L 585 349.5 L 580.5 352 L 580.5 351 L 583 349.5 L 584.5 347 Z  M 586.5 355 Q 592.75 353.25 594.5 356 L 597 355 L 596.5 357 L 587.5 357 L 585.5 357 L 582 356.5 L 586.5 355 Z  M 600 355 L 603 355.5 L 600.5 357 L 600 355 Z  M 564.5 356 L 569 356.5 L 563.5 358 L 564.5 356 Z  M 576.5 356 Q 579.125 355.333 578 358 L 574 357.5 L 576.5 356 Z  M 604.5 356 L 614 362.5 L 617 369.5 L 617 371.5 L 616.5 373 L 615 370.5 Q 617.5 369 614 367.5 L 613 362 L 610.5 362 L 604.5 356 Z  M 540.5 357 L 544 357.5 L 539.5 359 L 540.5 357 Z  M 517.5 358 L 530 358.5 L 525.5 360 L 523.5 359 Q 522 361.5 516.5 360 L 517.5 358 Z  M 474 359 L 483 359.5 L 481.5 361 L 474 361 L 474 359 Z  M 501.5 359 L 509 359.5 L 501.5 360 L 501.5 359 Z  M 510.5 359 L 515 359.5 L 510.5 360 L 510.5 359 Z  M 417.5 360 L 436.5 360 L 437.5 361 L 441 360 Q 442.125 363.5 434.5 362 L 432.5 362 L 417.5 361 Q 415.75 363.75 409.5 362 L 409.5 361 Q 415.75 362.75 417.5 360 Z  M 454.5 360 L 459 360.5 L 454.5 361 L 454.5 360 Z  M 345.5 361 L 370 361.5 L 353.5 362 L 352.5 363 L 350.5 362 Q 349.25 364.25 344.5 363 L 345.5 361 Z  M 384.5 361 L 393 361.5 L 390.5 363 Q 389.25 360.75 384.5 362 L 384.5 361 Z  M 198.5 362 L 218 362.5 L 198.5 363 L 195.5 365 L 195 363 L 198.5 362 Z  M 257.5 362 L 263 362.5 L 257.5 363 L 257.5 362 Z  M 293.5 362 L 314 362.5 L 305.5 364 L 303.5 364 Q 298 365.5 296.5 363 L 295.5 364 L 285.5 364 L 285.5 363 Q 291.75 364.75 293.5 362 Z  M 192.5 364 Q 195.125 363.333 194 366 L 188 368.5 L 188.5 370 L 186 369.5 L 192.5 364 Z  M 185 371 L 187 371.5 L 184.5 376 L 184 374.5 L 185 371 Z  M 616.5 374 L 617 377.5 Q 614.167 380.467 615 386 Q 612 387.25 613 383.5 L 616.5 374 Z  M 183 377 L 185 377.5 L 183.5 382 L 183 377 Z  M 184.5 383 L 193 403 L 191 402.5 L 191 400.5 L 186 390.5 Q 188.5 389 185 387.5 L 184.5 383 Z  M 612 387 Q 614.667 385.875 614 388.5 L 613 392 Q 610.333 393.125 611 390.5 L 612 387 Z  M 610 393 Q 612.667 391.875 612 394.5 L 609 404 L 607 403.5 L 610 393 Z  M 194.5 407 L 199 415.5 L 196 413.5 L 194.5 407 Z  M 605 408 Q 607.667 406.875 607 409.5 L 601 424.5 L 598 428.5 L 598 430.5 L 583.5 457 L 582 456.5 L 585 451 L 587 450.5 L 587 448.5 L 596 432.5 L 596 430 L 598 429.5 L 598 427.5 L 605 408 Z  M 198.5 417 L 202 421.5 L 199 419.5 L 198.5 417 Z  M 203.5 427 Q 206.75 428.167 206 432 Q 209 430.75 208 434.5 L 212 439.5 L 210 440 L 203.5 427 Z  M 211.5 441 L 214 442.5 L 213 443.5 L 217 447.5 L 218 449.5 L 216 450 L 211.5 441 Z  M 217.5 451 Q 219.75 450.25 219 452.5 L 220.5 455 L 217.5 451 Z  M 221 456 Q 224 454.75 223 458.5 L 226 460 L 229 464.5 L 229 467 L 232 468.5 L 248 486.5 L 235 474.5 Q 235.75 472.25 233.5 473 Q 230.25 471.833 231 468 L 227 465.5 L 221 456 Z  M 581.5 458 L 582 459.5 L 574.5 469 L 573 468.5 L 581.5 458 Z  M 571.5 470 L 574 470.5 L 570 473 L 565.5 479 L 556.5 484 L 557.5 482 Q 565.583 479.083 570 472.5 L 571.5 470 Z  M 553.5 484 L 555 484.5 L 550.5 488 Q 549 485.5 547.5 489 L 542.5 491 L 542 489 L 544.5 489 L 553.5 484 Z  M 249.5 486 L 254 489.5 L 252.5 489 L 249 488 L 249.5 486 Z  M 257.5 490 L 264 494.5 L 262.5 494 L 258 493 L 257.5 491 L 256 491.5 L 257.5 490 Z  M 536.5 491 L 539 491.5 L 535.5 493 L 531.5 495 L 531 493 L 536.5 491 Z  M 265.5 494 L 268 495.5 L 266.5 496 L 265.5 494 Z  M 528.5 494 L 530 494.5 L 527.5 496 L 528.5 494 Z  M 272 496 L 275 496.5 L 272 498 L 272 496 Z  M 519.5 496 Q 523.25 495 522 498 L 519.5 497 L 506 501 L 506.5 499 L 508.5 499 L 519.5 496 Z  M 276.5 497 L 280 498.5 L 278.5 499 L 276.5 497 Z  M 281.5 498 L 285 499.5 L 283.5 500 L 281.5 498 Z  M 286.5 499 L 290 500.5 L 288.5 500 Q 285.5 500.5 286.5 499 Z  M 294.5 500 L 296.5 500 L 300 501.5 L 298.5 501 L 294 502 L 294.5 500 Z  M 501 500 L 504 500.5 L 501 502 L 501 500 Z  M 302 501 L 304.5 502 L 306 501.5 L 306 503 L 302 503 L 302 501 Z  M 494 501 Q 499.2 499.333 498 503 L 495.5 502 L 494 502.5 L 494 501 Z  M 311.5 502 L 315 503.5 L 313.5 504 L 311.5 502 Z  M 487.5 502 L 490 502.5 Q 489 505 484.5 504 L 484.5 503 L 487.5 502 Z  M 318 503 L 325 504.5 L 318 505 L 318 503 Z  M 336.5 505 L 339.5 506 L 342.5 505 L 341.5 507 Q 336.6 507.6 336.5 505 Z  M 464.5 505 L 467.5 506 L 469.5 505 L 469.5 506 L 464 507 L 464.5 505 Z  M 349.5 506 L 354 507.5 L 350.5 508 L 349.5 506 Z  M 448 506 L 450.5 507 L 452.5 507 L 455.5 506 L 454.5 508 L 449.5 507 L 448 507.5 L 448 506 Z  M 369.5 507 L 378 508.5 L 370.5 509 L 369.5 507 Z  M 425.5 507 L 424.5 509 L 421 508.5 L 425.5 507 Z  M 437.5 507 L 440 507.5 Q 436.688 510.688 428.5 509 L 428.5 508 L 436.5 508 L 437.5 507 Z" />
  <path
     fill="rgb(1,44,99)"
     stroke="rgb(1,44,99)"
     stroke-width="1.2"
     stroke-linejoin="round"
     stroke-linecap="round"
     paint-order="stroke fill"
     id="grouped-path-2"
     d="M 397.5 25 Q 403 24 404 27.5 L 404 85.5 L 406.5 88 Q 441.172 96.328 467.5 113 Q 499.276 132.224 523 159.5 Q 553.935 194.565 571 243.5 L 579 272.5 Q 578.989 282.011 582 288.5 L 583 304.5 L 584 305.5 L 584 326.5 L 585 330.5 L 584 331.5 L 584 347.5 L 581.5 350 L 553.5 340 L 524.5 334 L 505.5 333 L 504.5 332 L 466.5 332 L 465.5 333 L 452.5 333 L 451.5 334 L 432.5 336 L 414.5 340 L 404 344.5 L 404 360.5 L 405.5 362 L 452.5 362 L 453.5 361 L 526.5 360 L 527.5 359 L 554.5 359 L 555.5 358 L 577.5 358 L 578.5 357 L 603.5 357 L 614 365.5 L 616 374.5 L 609 399.5 L 599 425.5 Q 586.248 456.248 564.5 478 L 541.5 490 L 505.5 500 L 472.5 504 L 471.5 505 L 448.5 506 L 447.5 507 L 385.5 508 L 384.5 507 L 356.5 507 L 355.5 506 L 334.5 505 L 333.5 504 L 306.5 502 L 305.5 501 L 275.5 497 Q 261.47 493.53 250.5 487 L 235 472.5 Q 217.019 451.981 204 426.5 L 186 386.5 L 185 375.5 L 189 368 L 196.5 364 L 309.5 364 L 310.5 363 L 393.5 363 L 396 362 L 396 345.5 L 394.5 344 L 233.5 344 L 232 342.5 L 232 339.5 Q 260.127 308.627 285 274.5 L 331 207.5 L 367 145.5 L 390 99.5 L 395 88.5 L 395 85.5 L 324 58.5 Q 322.125 53.1 325.5 54 L 393.5 28 L 397.5 25 Z M 393 35 L 338 57 L 387 75 L 396 77 L 396 36 L 393 35 Z M 408 95 L 421 137 L 426 162 L 428 187 L 429 188 L 429 236 L 428 237 L 428 248 L 426 257 L 426 264 L 422 282 L 422 287 L 409 335 L 434 329 L 455 327 L 456 326 L 469 326 L 470 325 L 502 325 L 503 326 L 515 326 L 516 327 L 530 328 L 554 333 L 576 341 L 578 340 L 578 319 L 577 318 L 577 304 L 576 303 L 575 289 L 568 257 L 562 239 Q 546 197 520 167 Q 497 140 468 121 Q 441 104 408 95 Z M 395 105 Q 367 165 332 219 Q 293 279 247 334 L 245 337 L 395 337 L 396 336 L 396 114 L 395 113 L 396 109 L 395 105 Z M 406 111 L 404 113 L 404 318 L 406 319 L 410 308 L 416 283 L 420 254 L 421 253 L 422 228 L 423 227 L 423 198 L 422 197 L 422 185 L 421 184 L 420 167 L 414 137 L 407 113 L 406 111 Z M 592 365 L 591 366 L 567 366 L 566 367 L 541 367 L 540 368 L 514 368 L 513 369 L 475 369 L 474 370 L 362 371 L 361 372 L 200 372 L 195 374 L 193 379 L 201 401 L 217 433 L 233 457 L 246 472 L 260 482 L 280 489 L 320 494 L 321 495 L 328 495 L 329 496 L 373 498 L 374 499 L 434 499 L 435 498 L 452 498 L 453 497 L 467 497 L 468 496 L 483 495 L 496 492 L 507 491 L 527 486 L 550 477 L 558 472 L 574 454 L 590 425 L 603 391 Q 603 382 607 377 L 607 371 Q 604 363 592 365 Z  M 545.5 381 Q 557.333 379.667 564.5 383 L 576 393.5 Q 581.714 400.786 580 415.5 Q 576.635 427.135 567.5 433 Q 560.5 439 545.5 437 Q 533.643 434.357 528 425.5 Q 522.295 418.705 523 405.5 Q 525.22 391.22 535.5 385 L 545.5 381 Z M 548 385 L 537 390 Q 531 395 528 403 Q 526 419 534 426 Q 539 431 549 433 L 555 433 L 562 431 L 552 430 L 546 427 Q 539 423 537 414 Q 537 406 540 402 Q 544 395 552 393 Q 562 392 568 396 Q 573 399 574 407 L 575 407 Q 575 398 570 394 L 560 386 L 548 385 Z M 562 398 L 558 402 L 559 408 L 564 410 L 570 406 L 569 401 Q 568 397 562 398 Z  M 463.5 382 Q 481.772 382.228 489 393.5 Q 495.152 400.348 495 413.5 L 491 425.5 L 485.5 432 L 472.5 439 L 459.5 439 Q 449.867 436.133 444 429.5 L 438 418.5 L 438 403.5 Q 441.058 392.558 449.5 387 L 457.5 383 Q 462.25 384.25 463.5 382 Z M 462 387 L 450 393 Q 444 398 442 406 L 442 416 L 446 425 L 453 431 L 466 435 L 478 432 L 479 430 L 473 432 Q 461 433 457 427 L 451 418 Q 449 408 453 404 Q 457 397 465 395 Q 474 394 480 397 L 488 408 L 489 418 L 490 415 L 489 403 L 486 398 Q 480 386 462 387 Z M 475 400 L 471 405 L 472 409 Q 473 412 480 411 Q 484 410 483 404 Q 482 399 475 400 Z M 481 428 L 480 430 L 482 429 L 481 428 Z  M 234.5 397 L 287.5 397 L 294 402.5 L 295 404.5 L 295 421.5 L 289.5 429 L 286.5 430 L 235.5 430 L 230 427 Q 225.364 420.909 227 407.5 Q 227.875 400.875 232.5 398 L 234.5 397 Z M 237 404 L 234 407 L 234 421 L 237 423 L 287 423 L 288 422 L 288 406 L 287 404 L 237 404 Z  M 326.5 397 L 378.5 397 L 385 402.5 L 386 404.5 L 386 422.5 L 380.5 429 L 377.5 430 L 326.5 430 L 321 427 Q 315.9 420.95 318 406.5 Q 319.25 400.75 323.5 398 L 326.5 397 Z M 326 404 L 325 407 L 325 421 L 328 423 L 378 423 L 379 422 L 379 406 L 378 404 L 326 404 Z  M 486.5 444 L 490 446.5 Q 491.821 453.679 497.5 457 Q 503 462.5 514.5 462 Q 523.959 460.459 529 454.5 L 535.5 444 Q 539.5 443.5 540 446.5 Q 536.942 457.442 528.5 463 Q 521.229 467.729 509.5 468 L 495.5 463 L 487 454.5 L 484 448.5 L 484 445 L 486.5 444 Z" />
  <path
     fill="rgb(0,95,208)"
     stroke="rgb(0,95,208)"
     stroke-width="1.2"
     stroke-linejoin="round"
     stroke-linecap="round"
     paint-order="stroke fill"
     id="grouped-path-3"
     d="M 392.5 36 Q 395.5 35.125 394 39.5 L 395 40.5 L 395 50 Q 391.333 51.35 393 45.5 L 394 40 L 390 40 Q 390.75 43.146 388 42.5 L 388 58.5 L 386.5 58 L 382 57 L 382 53 L 380.5 53 L 381.5 50 L 380 50 L 380 48 Q 377.333 49.125 378 46.5 L 376.5 47 L 371 44.5 L 382.5 40 L 387.5 41 L 387.5 40 L 384 39.5 L 392.5 36 Z  M 369.5 45 L 370 48 L 357.5 51 L 358.5 49 L 369.5 45 Z  M 350.5 52 L 354 54.5 L 352 55 Q 353 58 350 57 L 350 60 L 354.5 59 L 360 60.5 L 358 61.5 L 360 62.5 L 357.5 63 L 341 56.5 L 350.5 52 Z  M 393.5 53 L 395 56.5 Q 392.5 58 394 63.5 L 395 64.5 L 395 72.5 L 394 72.5 L 392 68.5 L 392.5 67 L 390.5 68 L 392 65.5 L 393 60.5 L 392 55.5 L 393.5 53 Z  M 380 58 L 387 61.5 L 381.5 63 L 378 60.5 L 380 60 L 380 58 Z  M 363 60 Q 369 58 367 64 L 363 63 L 363 60 Z  M 384.5 64 L 388 66.5 L 386.5 66 L 384.5 64 Z  M 367.5 65 L 373 67.5 L 370.5 68 L 367.5 65 Z  M 376.5 67 L 380 67 Q 378.875 69.667 381.5 69 L 386 71.5 L 382.5 72 L 378 70 Q 379.125 67.333 376.5 68 L 376.5 67 Z  M 374.5 68 L 377 69.5 L 375.5 70 L 374.5 68 Z  M 418.5 99 L 421 100.5 L 419.5 100 L 418.5 99 Z  M 411 101 L 415 103.5 Q 415.75 106.5 412 105 L 411 101 Z  M 436.5 106 L 438 109.5 L 437 109.5 L 436.5 106 Z  M 393.5 110 L 395 115 L 391 114.5 L 393 113.5 L 393 111.5 L 393.5 110 Z  M 414.5 110 Q 417.875 109.1 416 114.5 L 415 114.5 L 414.5 110 Z  M 443 110 L 454 114.5 L 451 116.5 L 450 113 L 447.5 112 L 443 113 L 443 110 Z  M 456.5 116 L 461 119.5 L 458.5 120 L 456.5 116 Z  M 394.5 118 L 395 120.5 L 394.5 126 L 393 119.5 L 394.5 118 Z  M 419.5 125 L 420 128 Q 423 127 422 130 Q 419.333 131.125 420 128.5 L 419.5 125 Z  M 383 130 Q 387.5 128.5 386 133 Q 381.875 131.333 383 135.5 L 381 134.5 L 383 130 Z  M 394.5 130 L 395 144.5 L 394 144.5 L 394.5 130 Z  M 422.5 133 L 427 133.5 L 421.5 135 L 422.5 133 Z  M 379.5 139 L 380 143 L 376.5 144 L 378 141.5 L 379.5 139 Z  M 443.5 142 L 445 142 L 445 146.5 Q 448 145.75 447 150 Q 443.667 148.875 445 153 Q 448 151.75 447 155.5 Q 444.25 156.583 445 160 Q 448.333 158.875 447 163 L 439.5 162 L 437 159.5 L 436.5 158 L 428 158 L 426.5 161 L 425 152 L 432.5 153 L 434.5 152 L 436.5 153 L 438.5 153 L 440 152.5 L 440 145 Q 442.667 146.125 442 143.5 L 443.5 142 Z  M 493.5 142 L 498 145.5 L 494.5 147 L 493 143.5 L 493.5 142 Z  M 375.5 145 L 376 146.5 L 374 147.5 L 375.5 145 Z  M 394.5 150 L 395 204.5 L 394 204.5 L 394.5 150 Z  M 370.5 155 L 380 156.5 L 371.5 157 L 370.5 155 Z  M 460 158 Q 463 157 462 160 L 465 160 L 465 172.5 L 466.5 173 L 468.5 173 Q 471.125 172.333 470 175 L 472 175 L 472 183 Q 466.4 180.813 468 186.5 L 467 191.5 Q 468.4 194.25 473 193 Q 472.25 196.146 475 195.5 L 475 207 Q 472 205.75 473 209.5 L 472 213 Q 474.667 211.875 474 214.5 L 475 220 Q 478.146 220.75 477.5 218 L 483 218 L 483 215 L 485 215 Q 483.875 212.333 486.5 213 L 488.5 213 L 494.5 212 L 500 213 Q 499 216 502 215 L 502 218 L 505 218 Q 504 221 507 220 L 507 223 L 498.5 223 L 498 225.5 Q 500.75 226.583 500 230 Q 494.75 228.167 497 235.5 L 493 237 L 493 243 L 488 243 L 488 246.5 L 487 251.5 L 489.5 257 L 490 255 Q 493.146 255.75 492.5 253 L 499.5 253 L 502 252 L 502 259.5 L 500 260 L 500 261.5 L 497.5 260 Q 492.1 258.125 493 261.5 L 492 261.5 Q 492.667 258.875 490 260 Q 491.125 262.667 488.5 262 L 482 263 L 482 270 L 477.5 270 L 478 271.5 L 478 278 Q 483.288 276.75 482.5 280 L 487 280 L 487 278 L 490 278 Q 488.75 275 492.5 276 L 492 274.5 L 494.5 271 L 495 273 Q 497.667 274.125 497 271.5 L 498 271.5 Q 497.333 274.125 500 273 L 500 275.5 Q 502.75 276.583 502 280 L 507 280 L 507 278.5 L 508 275.5 L 507 271.5 L 508 271.5 Q 506.667 276.313 510 275 L 510 268.5 L 512 268 L 512 266.5 L 515 265 Q 516 268 513 267 L 513 271 Q 519.4 273.292 517 265.5 L 518 263 L 523 259.5 Q 522.333 256.875 525 258 Q 524 261 527 260 L 527.5 258 L 529.5 262 Q 533.667 260.688 532 265.5 L 533 268 Q 536 267 535 270 L 532 270 L 532 282.5 Q 529.25 281.854 530 285 L 532.5 286 L 534.5 285 L 536.5 286 L 540 285 L 540 281 L 538.5 281 L 538.5 280 Q 541.125 280.667 540 278 L 533 275.5 L 535 275 Q 534 272 537 273 L 537.5 275 L 538 273 L 550 273 Q 549 276 552 275 L 552 279.5 L 553 285 L 555 285 L 555 290 L 553 290.5 L 553 298 Q 556 297 555 300 L 553 300.5 L 555 301 L 555 310 L 552 310 L 552 313 L 547 313 Q 548 316 545 315 L 545 313 L 540 313 Q 541.125 315.667 538.5 315 L 535 316 L 535 320 L 523 320 Q 524.375 316 517.5 318 L 515.5 317 Q 513.75 319.75 507.5 318 L 502 314.5 L 501.5 313 L 495 313 Q 496.833 318.25 489.5 316 L 487.5 318 L 478 318 Q 479.375 314 472.5 316 L 471.5 315 L 462.5 315 Q 458.345 319.167 450 318 Q 451.375 314 444.5 316 L 442 320 Q 436 322 425.5 321 L 422 320 Q 423 317 420 318 L 420 315 Q 423 316 422 313 L 427 313 L 427 308 Q 424 309 425 306 Q 428 307.25 427 303.5 L 428 300 L 439.5 300 L 442 296.5 L 443 290 L 440 290 L 440 285 L 432 285 L 432 280.5 L 433 275 Q 428.875 276.333 430 273 Q 434.125 274.333 433 271 Q 428.313 270 427 273.5 Q 428.313 282.313 424 285.5 Q 426.75 286.583 426 290 L 422 292.5 L 423 296 L 420 295.5 L 422 295 L 421 291.5 L 425 278.5 L 424 276.5 L 426 270.5 L 426 263.5 L 428.5 249 L 430 251.5 L 428 262.5 L 429.5 270 L 430 268 Q 433 267 432 270 L 437 270 L 437 266 Q 441.875 267.6 440 262 L 443 262 Q 442 259 445 260 Q 443.75 263 447.5 262 L 449.5 263 L 451.5 262 L 453.5 262 L 460 260 Q 459 257 462 258 L 462.5 260 L 463 258 L 468 257.5 Q 463.75 257.75 462.5 255 L 457 255 Q 458.313 251.667 453.5 253 L 450 252 L 450 250 L 447 250 Q 448 247 445 248 L 445 245 Q 442.333 246.125 443 243.5 L 442 240 L 440 239.5 L 440 232 L 445.5 232 L 446 230.5 L 447 227 Q 444.333 228.125 445 225.5 L 446 223 L 442 221.5 L 443 218.5 L 442 215 L 440 214.5 L 440 208 L 447 205.5 L 447 202 L 450 202 L 450 198 L 451.5 198 L 451.5 197 Q 448.875 197.667 450 195 Q 452.667 196.125 452 193.5 L 453 188.5 L 453 186.5 L 453 175 Q 457.125 176.333 456 173 L 460 173 L 460 170 Q 457 171.25 458 167.5 L 457 166.5 L 457 160 Q 461.125 161.333 460 158 Z M 515 296 L 515 305 L 520 305 L 520 303 L 523 303 L 525 302 Q 524 304 527 303 L 528 301 L 528 305 L 530 305 L 530 301 L 532 301 L 533 299 L 531 296 L 515 296 Z M 545 310 Q 544 314 547 313 Q 548 309 545 310 Z  M 513.5 161 L 517 167 L 513 165.5 L 514 162.5 L 513.5 161 Z  M 482 162 Q 486.6 160.75 488 163.5 L 488 170 L 482 170 L 482 167 Q 479 168 480 165 Q 483.333 166.125 482 162 Z  M 365.5 163 L 366 164.5 L 365 166.5 L 366 171.5 L 365 171.5 L 364.5 168 L 363 168.5 L 365.5 163 Z  M 427.5 164 L 429.5 169 L 430 167 Q 434.5 165.5 433 170 L 429 170.5 L 430 172.5 L 428.5 175 L 428 173.5 L 429 171.5 Q 425.958 168.792 427.5 164 Z  M 518.5 167 L 521.5 171 L 518.5 169 L 517 169.5 L 518.5 167 Z  M 359.5 175 L 359 176.5 L 359 180 Q 356 178.75 357 182.5 L 355 181.5 L 359.5 175 Z  M 524.5 176 L 528 178.5 L 528 180.5 L 527.5 183 L 527 180 Q 521.8 182.083 523 177.5 L 524.5 176 Z  M 429.5 180 L 430 184.5 L 429 184.5 L 429.5 180 Z  M 373 185 Q 376.333 183.875 375 188 L 378 188 L 378 193 L 379.5 193 L 381.5 192 L 381.5 193 L 380 193 L 380 198 L 382 198 L 382 203 L 380 203.5 L 380 212 L 383 213.5 L 382 220 L 380 220 Q 381.333 224.125 378 223 L 378 230.5 L 380 232.5 L 380 245 Q 383.333 243.875 382 248 L 385 248 L 385 257 L 382 257 L 382 265.5 L 383 268 Q 386 267 385 270 L 383 270.5 L 385 271 L 385 285.5 Q 379.937 290.119 382 301 L 385 301 L 385 310 L 383 310.5 L 383 318 L 385 318 Q 383.875 320.667 386.5 320 L 388 322.5 L 387 328 L 385 328 Q 386.125 330.667 383.5 330 L 380 331 Q 378.875 333.667 381.5 333 L 387 335.5 L 328.5 336 L 328.5 335 Q 331.125 335.667 330 333 Q 327.714 330.429 321.5 331 L 318.5 332 Q 315.875 331.333 317 334 L 320.5 335 L 322.5 334 L 327 335.5 L 285.5 336 L 285.5 335 Q 291.35 336.667 290 333 Q 285.305 329.429 275 331 L 274.5 336 L 246.5 336 L 248.5 333 Q 250.75 333.75 250 331.5 L 251.5 329 L 257 331 Q 255.125 336.6 260 335 Q 260.75 331.854 258 332.5 L 258 326.5 L 255 325.5 L 266.5 311 L 268 311 L 268 316 L 272 318 L 272 313 L 277 313 L 277 308.5 L 281 302.5 L 280 300.5 L 281 300.5 L 281.5 302 L 287 300 L 288 295 L 292 293 L 292 286.5 L 293 283 Q 296 284 295 281 L 297.5 281 L 300 280 Q 299 277 302 278 L 302 273 L 307 273 L 307 271.5 L 308 271.5 Q 307.333 274.125 310 273 Q 308.5 269.25 311.5 270 L 313 270.5 L 313 268 L 317 266 L 317 263 L 315 263 L 315 260 Q 312 261 313 258 L 315 258 L 315 253 L 320 253 L 320 250.5 L 322.5 246 L 326 244.5 L 327.5 242 Q 331.25 243 330 240 L 333 240 L 333 238 L 337 238 L 337 235 Q 334 236 335 233 L 337 232.5 L 335 232 L 335 228 L 336.5 228 L 340 227 L 340 220 Q 343.75 221.5 343 218.5 L 343 216.5 Q 341.25 211.25 346.5 213 L 348 209.5 L 347.5 208 L 353 207 L 353 205 L 358 205 L 358 202 Q 361 203 360 200 L 363 200 L 363 195 L 367 193 L 367 190 L 370 190 Q 368.875 187.333 371.5 188 L 373 185 Z M 344 217 L 344 218 Q 346 217 345 220 Q 348 221 347 219 L 348 219 L 347 222 Q 352 224 350 218 L 352 218 L 344 217 Z M 342 237 L 343 240 L 343 238 L 347 238 L 342 237 Z  M 352.5 187 Q 354.75 186.25 354 188.5 L 354 190.5 L 353.5 193 L 351 189.5 L 353 188.5 L 352.5 187 Z  M 347.5 195 L 347 196.5 L 346.5 198 L 346 196.5 L 347.5 195 Z  M 433.5 197 L 434 202.5 L 433 202.5 L 433.5 197 Z  M 430.5 199 L 431 212.5 L 430 212.5 L 430.5 199 Z  M 345.5 200 Q 348.833 198.875 348 201.5 L 345 203 Q 346.125 206.333 342 205 L 345.5 200 Z  M 338.5 210 L 338.5 212 L 340 212.5 L 337 213 L 338.5 210 Z  M 394.5 210 L 395 282.5 L 394 282.5 L 394.5 210 Z  M 335.5 214 Q 338.5 215.5 335.5 217 L 334 216.5 L 335.5 214 Z  M 430.5 217 L 431 222.5 L 430 222.5 L 430.5 217 Z  M 332.5 219 L 333.5 221 L 332 220.5 L 331 223.5 L 332.5 224 L 335 223 Q 336.125 225.667 333.5 225 L 329.5 227 L 327 228.5 L 326.5 233 L 325.5 231 L 324.5 233 L 324 231.5 L 328.5 225 L 330 225.5 Q 329.375 220.375 332.5 219 Z  M 517 227 L 528 228 Q 527 231 530 230 Q 529 227 532 228 L 535.5 233 Q 539.25 231.75 538 235.5 L 542 238 L 542 243 L 530.5 243 L 525 242 L 525 240 L 520 240 Q 521.125 237.333 518.5 238 L 512 237 L 512.5 240 L 513 238 Q 516 237 515 240 Q 511.854 239.25 512.5 242 L 507 242 L 507.5 238 L 508 240 Q 511.333 241.125 510 237 L 507 237 L 505 233 L 507.5 232 L 509.5 233 L 511.5 232 L 513 232.5 Q 511.8 227.917 517 230 L 517 227 Z  M 429.5 238 L 430 241.5 L 429 241.5 L 429.5 238 Z  M 318.5 240 L 320 245.5 L 319 245.5 L 318.5 243 L 315.5 245 L 318 241.5 L 318.5 240 Z  M 429.5 245 L 430 247 L 433 247.5 L 429 248 L 429.5 245 Z  M 533 245 L 535 245 L 535 250 L 530 250 L 530 248 L 533 246.5 L 533 245 Z  M 312.5 249 L 313 250.5 L 312 253 L 310 252.5 L 312.5 249 Z  M 527.5 252 L 530 253 Q 531.875 258.6 527 257 L 527.5 252 Z  M 567.5 260 L 569 263.5 L 567.5 263 L 566 262.5 L 567.5 260 Z  M 303.5 262 L 304 264.5 L 301.5 266 L 303 263.5 L 303.5 262 Z  M 497.5 265 L 499.5 266 L 501.5 265 L 503 268 Q 506 267 505 270 L 497.5 270 L 497 268.5 L 497 266.5 L 497.5 265 Z  M 299.5 267 L 300 270.5 L 297.5 275 L 296.5 273 L 295 273.5 L 299.5 267 Z  M 394.5 286 L 395 294.5 L 394 294.5 L 394.5 286 Z  M 283.5 289 L 285 289 Q 283.5 292.75 286.5 292 L 286.5 293 L 284.5 292 L 281 293 L 280.5 296 Q 277.25 294.25 281 292.5 L 283.5 289 Z  M 277.5 297 L 279 297.5 L 274.5 301 L 277.5 297 Z  M 420 298 Q 422.667 296.875 422 299.5 L 419 309.5 L 420 313 Q 417 311.75 418 315.5 L 415.5 321 L 414 318.5 L 418.5 305 L 420 305.5 L 419 300.5 L 420 298 Z  M 394.5 302 L 395 320.5 L 394 322.5 Q 396.25 323.75 395 328.5 L 394 328.5 L 393 321.5 L 394 320.5 L 394.5 302 Z  M 269.5 307 L 270 309.5 L 268 308.5 L 269.5 307 Z  M 575.5 314 L 576 322.5 L 577 323.5 L 577 335.5 L 575 334.5 L 575.5 314 Z  M 483.5 321 L 487 321.5 L 483.5 322 L 483.5 321 Z  M 470.5 322 L 477 322.5 L 470.5 323 L 470.5 322 Z  M 490 322 L 493 323.5 L 490 323.5 L 490 322 Z  M 462 323 L 465 324.5 L 462 325 L 462 323 Z  M 508 323 Q 511.812 322 513 324.5 L 511.5 325 L 509.5 325 Q 506.875 325.667 508 323 Z  M 413.5 324 Q 415.333 329.167 423 328.5 L 420 329.5 L 422 330.5 L 410 333 L 413.5 324 Z M 414 328 L 414 330 L 418 330 L 414 328 Z  M 450.5 325 L 454 325.5 L 450.5 326 L 450.5 325 Z  M 432.5 326 L 439 327.5 L 430.5 329 L 430.5 328 L 433 327.5 L 432.5 326 Z  M 442.5 326 L 446 326.5 L 442.5 327 L 442.5 326 Z  M 525.5 326 L 533 327.5 L 530.5 328 L 525.5 327 L 525.5 326 Z  M 544.5 327 Q 548.25 326 547 329 L 541.5 330 L 540.5 328 L 544.5 327 Z  M 558.5 333 Q 562.25 332.25 563 334.5 L 561.5 334 Q 557.5 334.75 558.5 333 Z  M 238.5 404 L 252 404.5 L 249.5 406 L 240 407 L 239.5 405 L 239 408 L 235 408 L 235 406.5 L 238.5 404 Z  M 253.5 404 L 272.5 404 L 276.5 405 Q 278.25 402.25 284.5 404 L 284.5 405 L 279.5 407 L 268.5 407 L 267.5 406 L 257.5 406 L 253.5 405 L 253.5 404 Z  M 333.5 404 L 340.5 405 L 341.5 404 L 363.5 404 L 366 405.5 L 360.5 406 Q 359 403.5 353.5 405 Q 352.25 407.25 347.5 406 L 342 405 Q 343.125 407.667 340.5 407 L 337.5 406 L 335 407 Q 336.125 404.333 333.5 405 L 330.5 406 L 330.5 405 L 333.5 404 Z  M 372.5 404 L 377 405.5 L 373 407 L 372.5 404 Z  M 326.5 410 L 328.5 410 L 333 410.5 L 328 411 L 327 419.5 L 328 421.5 L 326 420.5 L 326.5 410 Z  M 378.5 413 L 379 415.5 L 376.5 422 L 377 420.5 Q 375.5 414.5 378.5 413 Z  M 286.5 418 L 287 420.5 L 283.5 422 L 282 421.5 L 286 420 L 286.5 418 Z  M 258.5 420 L 263 420.5 L 260.5 422 L 258.5 420 Z  M 267.5 420 L 272 420.5 L 267.5 421 L 267.5 420 Z  M 334 420 L 339.5 421 Q 340.75 418.75 345.5 420 L 345.5 421 L 334 422 L 334 420 Z  M 353.5 420 L 357 420.5 L 353.5 421 L 353.5 420 Z  M 363.5 420 L 367 420.5 L 363.5 421 L 363.5 420 Z" />
  <path
     fill="rgb(0,96,208)"
     stroke="rgb(0,96,208)"
     stroke-width="1.2"
     stroke-linejoin="round"
     stroke-linecap="round"
     paint-order="stroke fill"
     id="grouped-path-4"
     d="M 383.5 40 L 388 40.5 L 383.5 41 L 383.5 40 Z  M 390 40 Q 396 37.75 394 44.5 L 393 49.5 L 394 52.5 Q 391.2 54.2 392 59.5 L 393 62.5 L 391 66.5 L 393 67.5 Q 390.5 69 394 70.5 L 395 74.5 L 392.5 76 L 385 72.5 L 385.5 71 L 380 69 Q 381.313 65.667 376.5 67 L 376.5 68 Q 378.75 67.25 378 69.5 L 376.5 69 L 374.5 68 L 373 68.5 L 371.5 66 L 367.5 65 L 365.5 65 L 363.5 64 L 361.5 64 L 359 63.5 L 359.5 62 L 358 61.5 L 360 60.5 L 353.5 59 L 350 60 L 350 57 L 352 57 Q 350.875 54.333 353.5 55 L 352.5 52 L 355 52 Q 353.875 49.333 356.5 50 L 359.5 51 L 370 48 Q 368.333 43.875 372.5 45 L 376.5 47 L 378 46.5 Q 377.333 49.125 380 48 L 380 50 L 381.5 50 L 380.5 53 L 382 53 L 382 57 L 384.5 57 L 387.5 59 L 388 42 Q 391 43 390 40 Z M 380 58 Q 379 61 382 60 L 383 62 L 380 60 L 378 61 L 382 63 L 387 62 L 380 58 Z M 363 60 L 363 63 L 367 64 Q 369 58 363 60 Z  M 410 97 Q 416.455 97.259 420.5 101 L 422.5 101 L 436 106.5 L 437.5 110 L 438.5 107 L 444 109.5 L 443 113 L 447.5 112 L 450 113 L 451.5 117 L 454.5 115 L 457.5 119 L 459 118.5 L 458.5 120 L 461.5 119 L 464 120.5 L 463.5 122 L 470.5 124 L 483 133 L 483.5 136 L 485.5 135 L 493 141.5 L 494 144.5 Q 491.75 145.75 494.5 147 L 498.5 146 L 501 150 Q 503.667 148.875 503 151.5 L 513 160.5 L 514 162.5 L 513 165.5 L 516.5 167 L 518 166.5 L 517 169.5 L 518.5 169 L 526 175.5 L 523 177.5 Q 521.688 181.667 526.5 180 L 528.5 179 L 550 213.5 L 559 233.5 Q 560.736 245.264 566 253.5 L 567 261.5 L 566.5 263 L 569 264.5 L 572 283.5 L 575 293.5 L 576 313.5 L 575 314.5 L 575 334.5 L 577 337.5 L 573.5 339 L 570 338 Q 571.375 334 564.5 336 Q 563.75 332.25 558.5 333 L 556.5 333 L 543 329.5 L 547 329 Q 548.25 326 544.5 327 L 537.5 329 L 534.5 328 Q 531.571 325.429 525.5 326 L 523.5 326 L 517.5 326 L 511.5 323 L 508 323 L 507.5 325 L 506.5 324 Q 499 325.5 495.5 323 L 493.5 324 L 491 323.5 L 491.5 322 L 490 322 L 489.5 324 L 468.5 324 L 467 323.5 Q 467.75 325.75 465.5 325 L 462 323 L 461.5 325 L 450.5 325 L 449.5 326 L 435.5 327 L 432.5 326 L 432.5 328 L 426.5 330 L 420.5 330 L 420.5 329 L 423 328.5 L 417.5 328 L 417.5 330 Q 412.688 331.333 414 328 L 417 327.5 L 413 323.5 L 414 322.5 L 414.5 320 L 416 320.5 L 418 313 Q 421 314.25 420 310.5 L 420 308.5 L 418 304.5 L 420 304 L 420.5 306 L 422 298 Q 419 299 420 296 Q 424.125 297.667 423 293.5 L 422 293.5 L 421.5 295 L 421 293.5 L 426 290 L 424 284.5 L 424.5 282 L 426 282.5 L 427 273.5 L 429.5 271 Q 434.313 269.667 433 273 Q 428.875 271.667 430 275 Q 434.875 273.2 433 279.5 L 432 285 L 440 285 L 440 290 L 443 290.5 L 443 295.5 L 442 298 Q 438.854 297.25 439.5 300 L 428 300 L 428 302.5 L 427 306 Q 424 305 425 308 L 427 308 L 427 313 L 422 313 Q 423 316 420 315 L 420 318 Q 423 317 422 320 L 424.5 320 L 425.5 321 L 437.5 321 L 442 320 L 444.5 316 Q 451.458 314.5 450.5 318 L 456.5 318 Q 461 313.5 471.5 315 L 478 316 L 478.5 318 L 487.5 318 Q 489.167 314.5 495 316 L 495 313 L 502 313 L 503.5 316 L 507.5 318 L 514.5 318 L 516.5 317 L 523 318 L 523.5 320 L 535 320 Q 532.917 314.8 537.5 316 L 540 315 L 540 313 L 545 313 Q 543.667 308.875 547 310 L 547 313 L 552 313 L 552 310 L 555 309.5 L 555 301 L 553 300.5 L 555 300 Q 555.75 296.854 553 297.5 L 553 290 L 555 290 L 555 285 Q 551.333 286.35 553 280.5 L 552 275 Q 548.854 275.75 549.5 273 L 538 273 L 537.5 275 L 537 273 L 535 273 Q 536.125 275.667 533.5 275 L 533.5 276 L 540 278 Q 541.125 280.667 538.5 280 L 538.5 281 L 540 281 L 540 285 L 535.5 286 L 533.5 285 L 531.5 285 Q 528.875 285.667 530 283 L 532 282.5 L 532 270.5 L 535 270 L 535 268 Q 532.333 269.125 533 266.5 L 532 262 L 528 260.5 L 527.5 258 L 527 260 L 523 258 L 519.5 263 Q 517.25 262.25 518 264.5 L 517 271 Q 511 273 513 267 Q 516 268 515 265 L 512 266.5 Q 512.667 269.125 510 268 L 510 274.5 L 508 275 L 508 277.5 L 507 280 L 502 280 L 502 277.5 Q 499.25 276.417 500 273 Q 497.333 274.125 498 271.5 L 497 271.5 Q 497.667 274.125 495 273 L 494.5 271 L 492 274.5 L 492.5 276 Q 488.75 275 490 278 L 487 278 L 487 280 L 482 280 Q 483.2 276.333 478 278 L 478 271.5 L 477.5 270 L 482 270 L 482 263 L 487.5 263 L 490 262 Q 489 259 492 260 L 492.5 262 L 493 260 Q 498.05 258.75 499.5 262 L 500 260 L 502 259.5 L 502 252 Q 498.875 254 492 253 L 492 255 Q 489.333 253.875 490 256.5 L 488 255.5 L 487 247.5 L 488 243 L 493 243 L 493 237 L 495.5 237 Q 498.5 235.375 497 230 Q 501.125 231.667 500 227.5 Q 497.25 226.417 498 223 L 507 223 L 507 220 Q 504 221 505 218 L 502 218 L 502 215 Q 499 216 500 213 L 495.5 213 L 493.5 212 L 488.5 213 L 486.5 213 Q 483.875 212.333 485 215 L 483 215 L 483 218 L 477.5 218 Q 478.146 220.75 475 220 L 474 213 Q 471 214.25 472 210.5 L 473 207 L 475 206.5 L 475 195 Q 472 196 473 193 L 468.5 193 Q 466 192 467 187.5 L 468 183 L 472 183 L 472 175 L 470 175 Q 471.125 172.333 468.5 173 L 466.5 173 L 465 172.5 L 465 160 L 462 160 Q 463 157 460 158 Q 461.125 161.333 457 160 L 457 166.5 L 458 170 Q 461.333 168.875 460 173 L 456 173 Q 457.125 176.333 453 175 L 453 186.5 L 453 188.5 L 452 195 Q 449 194 450 197 L 452 197.5 L 450 198 L 450 202 Q 445.5 200.25 447 205.5 L 440 208 L 440 214.5 L 442 215 L 442 217.5 L 443 219.5 L 442 221.5 L 446 223 L 445 227 Q 448 225.75 447 229.5 L 446 232 L 440 232 L 440 240 Q 443 238.75 442 242.5 L 443 245 L 445 245 L 445 248 Q 448 247 447 250 L 450 250 Q 448.75 253 452.5 252 L 457 253 Q 455.625 257 462.5 255 Q 463.75 257.75 468 257.5 L 463 258 L 462.5 260 L 462 258 Q 459 257 460 260 L 457.5 260 L 452.5 263 L 450.5 262 L 448.5 263 L 445 262 Q 446 259 443 260 Q 444.125 263.333 440 262 L 440 266 L 437 266 L 437 270 L 432 270 Q 433 267 430 268 L 429.5 270 L 428 259.5 L 430 250.5 L 429 248 L 433 247.5 L 430 247 L 429 242.5 L 430 241.5 L 430 223.5 Q 432.25 222.25 431 217.5 L 430 213.5 L 431 212.5 L 431 199.5 L 430 198.5 L 430 180.5 L 428 171.5 Q 429.188 169 433 170 Q 434.5 165.5 430 167 L 429.5 169 L 428 167.5 L 427 160.5 L 428 158 L 436.5 158 L 437 159.5 L 439.5 162 L 447 163 L 447 160 Q 444 161.25 445 157.5 Q 447.75 156.417 447 153 Q 443.667 154.125 445 150 Q 448.333 151.125 447 147 L 445 147 L 445 142 L 443.5 142 L 442 145 L 440 145 L 440 152.5 L 438.5 153 L 436.5 153 L 433.5 152 L 428.5 153 L 425 151.5 Q 427.5 150 424 148.5 L 423 139.5 L 421 135 L 427 133.5 L 422.5 133 Q 421.25 135.25 420 132.5 L 420 130 Q 423 131 422 128 Q 419 129.25 420 125.5 Q 414.667 120.458 416 110 Q 413.333 111.125 414 108.5 L 413 105 Q 415.667 106.125 415 103.5 L 410 99.5 L 410 97 Z M 482 162 Q 483 166 480 165 Q 479 168 482 167 L 482 170 L 488 170 L 488 164 Q 487 161 482 162 Z M 434 197 L 433 203 L 434 203 L 434 197 Z M 440 227 Q 439 232 443 230 Q 445 226 440 227 Z M 517 227 L 517 230 Q 512 228 513 233 L 512 232 L 510 233 L 508 232 L 505 233 L 507 237 L 510 237 L 510 240 Q 507 241 508 239 L 507 239 L 507 242 L 513 242 L 512 237 L 519 238 Q 521 237 520 240 L 525 240 L 525 242 L 531 243 L 542 243 L 542 238 L 538 236 Q 539 232 536 233 L 532 228 Q 529 227 530 230 Q 527 231 528 228 L 517 227 Z M 533 245 L 533 247 L 530 248 L 530 250 L 535 250 L 535 245 L 533 245 Z M 528 252 L 527 257 Q 532 259 530 253 L 528 252 Z M 498 265 L 497 267 L 497 269 L 498 270 L 505 270 Q 506 267 503 268 L 502 265 L 500 266 L 498 265 Z M 508 271 L 507 275 L 508 275 L 508 271 Z M 484 321 L 484 322 L 487 322 L 484 321 Z M 471 322 L 471 323 L 477 323 L 471 322 Z  M 391.5 115 Q 396.313 113.333 395 117.5 Q 391.5 119 394 120.5 L 394 144.5 L 395 149.5 L 394 150.5 L 394 204.5 L 395 209.5 L 394 210.5 L 394 294.5 Q 396.5 296 395 301.5 L 394 302.5 L 394 320.5 L 395 322.5 Q 392.75 323.75 394 328.5 L 395 329.5 L 395 336 Q 385.071 337.091 380 333 Q 378.75 330 382.5 331 L 385 330 Q 384 327 387 328 L 387 323.5 L 388 321.5 L 385 320 Q 385.75 316.854 383 317.5 L 383 310 L 385 309.5 L 385 301 L 382 300.5 L 382 290.5 L 385 285.5 L 385 271 L 383 270.5 L 385 270 L 385 268 Q 382.333 269.125 383 266.5 L 382 265.5 L 382 257 L 385 257 L 385 248 L 382 248 Q 383 243.75 380 244.5 L 380 232.5 L 378 230.5 L 378 223 L 380 223 L 380 220 Q 383 221.25 382 217.5 L 383 213.5 L 380 212 L 380 203.5 Q 383.5 204.292 382 198 L 380 198 L 380 193.5 Q 376.5 194.292 378 188 L 375 188 Q 376.333 183.875 373 185 L 371.5 188 Q 368.875 187.333 370 190 L 367 190 L 367 193 L 363 195 L 363 200 L 360 200 Q 361 203 358 202 L 358 205 L 353.5 205 L 353 207 L 350.5 207 L 347 208.5 L 348 211.5 Q 346.813 214 343 213 L 343 217 L 351.5 217 L 351.5 218 L 350 218 L 350 222 L 347 222 L 347 220 L 343 218 Q 344.125 221.333 340 220 L 340 227 L 337.5 227 L 335 228 L 335 232 L 336.5 232 L 336.5 233 Q 333.875 232.333 335 235 Q 338.333 233.875 337 238 L 333 238 L 333 240 L 330 240 Q 331.25 243 327.5 242 L 324.5 246 L 321 247.5 L 320 253 L 315 253 L 315 258 Q 312 257 313 260 L 315 260 L 315 263 Q 318.333 261.875 317 266 L 313 268 L 313 270.5 L 311.5 270 Q 308.5 269.25 310 273 L 308 273 L 307.5 271 L 307 273 L 302 273 L 302 278 L 300 278 Q 301.125 280.667 298.5 280 L 295 281 Q 296 284 293 283 L 293 285.5 L 292 286.5 L 292 293 L 288 295 L 288 297.5 L 287 300 Q 282.125 299.917 280 303.5 Q 280.5 308 277 308.5 L 277 313 L 272 313 L 272 318 L 270 318 Q 271 315 268 316 L 268 311.5 Q 265.75 310.25 268.5 309 L 270 309.5 L 270 306.5 L 275.5 300 L 279 297.5 Q 276.75 296.25 279.5 295 L 281 295.5 Q 279.75 291.75 283.5 293 L 285 289.5 L 285 287.5 L 290.5 280 L 293 278.5 Q 290.5 277 294 275.5 Q 293.25 273.25 295.5 274 L 297 273.5 L 297.5 275 Q 300.893 272.043 300 266 L 304 264.5 L 304 261.5 L 308.5 255 L 310 254.5 L 309.5 253 Q 312.833 254.125 312 251.5 L 313 248 Q 316 249.25 315 245.5 L 318.5 243 L 319.5 246 L 320 242.5 L 319 239.5 L 323.5 233 Q 325.75 233.75 325 231.5 L 326 231.5 L 326.5 233 Q 325.9 228.4 328.5 227 L 330 226.5 L 329 224.5 L 330 224.5 L 330.5 226 L 333.5 225 Q 336.125 225.667 335 223 L 331.5 224 L 332 222.5 L 334.5 217 L 337 215.5 L 336 213 L 340 212.5 L 338 211.5 L 341.5 205 L 345 205 Q 343.875 202.333 346.5 203 L 348 200 L 344.5 201 L 345 199.5 L 347 196.5 L 350 190 Q 352.667 188.875 352 191.5 L 354 192.5 L 352.5 189 L 351 188.5 L 352.5 188 L 354 188.5 L 353 185.5 L 355.5 182 L 357 182.5 Q 356 178.75 359 180 L 359 176.5 L 362 169 L 364.5 168 L 365.5 172 L 366 167.5 L 365 165.5 L 370.5 156 L 371.5 157 L 379.5 157 L 379.5 156 Q 373.375 157.125 371 154.5 L 374 153.5 L 372 152.5 L 377.5 143 Q 381.667 144.313 380 139.5 Q 377.5 138 381 136.5 L 381.5 135 L 383 135.5 Q 381.875 131.333 386 133 L 386 130 Q 383 131 384 128 Q 387 129.25 386 125.5 L 388.5 121 L 390 121.5 L 389 118.5 L 391.5 115 Z M 363 180 Q 361 185 367 183 Q 369 178 363 180 Z  M 342 237 L 347 237.5 L 343 238 L 342.5 240 L 342 237 Z  M 515 296 L 530.5 296 L 533 298.5 L 531.5 301 L 530 301 L 530 305 L 528 305 L 527.5 301 L 527 303 Q 524.333 304.125 525 301.5 L 522.5 303 L 520 303 L 519.5 305 L 515 305 L 515 296 Z  M 254.5 326 L 256.5 327 L 258 326.5 L 258 332.5 Q 260.75 331.854 260 335 L 257 335 L 257 331 L 255.5 331 L 252 330 L 254.5 326 Z  M 275 331 Q 285.305 329.429 290 333 Q 291.35 336.667 285.5 335 L 280 336 Q 281.5 331.5 277 333 Q 278.333 337.125 275 336 L 275 331 Z  M 319.5 331 L 321.5 331 Q 327.714 330.429 330 333 Q 331.125 335.667 328.5 335 L 326.5 335 L 321.5 334 L 319.5 335 L 317 334 Q 315.875 331.333 318.5 332 L 319.5 331 Z  M 252.5 404 L 257.5 406 L 279.5 407 Q 280.9 404.4 285.5 405 Q 287.75 405.75 287 409.5 L 286 412.5 L 287 417.5 L 286 420 L 280.5 422 L 278.5 422 L 274.5 421 L 273.5 422 L 262.5 422 L 262.5 420 L 258 420.5 L 260 421.5 L 255.5 422 L 253.5 422 L 243.5 422 L 243 420 L 241.5 420 L 241.5 422 Q 236.25 423.25 235 420.5 L 235 417.5 Q 238.25 418.288 237 413 L 235 413 L 235 408 Q 240.2 410.083 239 405.5 L 240 405.5 Q 239.167 408.125 242.5 407 Q 244 404.5 249.5 406 L 252.5 404 Z M 268 420 L 268 421 L 272 421 L 268 420 Z  M 329.5 404 L 335 405 Q 333.875 407.667 336.5 407 L 339.5 406 L 342 407 Q 340.65 403.333 346.5 405 Q 347.75 407.25 352.5 406 Q 354 403.5 359.5 405 Q 360.75 407.25 365.5 406 L 365.5 405 L 364 404.5 L 371.5 404 L 373 407 L 378 406 L 379 412.5 L 377 414.5 Q 378.5 420.5 375.5 422 L 373.5 421 L 372.5 422 L 343.5 422 L 343.5 421 L 346 420.5 L 340.5 420 L 336.5 421 L 334 420 L 334 422 L 328 422 L 327 416.5 L 328 411.5 Q 325.25 410.75 326 406.5 L 329.5 404 Z M 329 410 L 329 411 L 333 411 L 329 410 Z M 354 420 L 354 421 L 357 421 L 354 420 Z M 364 420 L 364 421 L 367 421 L 364 420 Z  M 378.5 416 L 379 419.5 L 378 419.5 L 378.5 416 Z" />
  <path
     fill="rgb(4,96,202)"
     stroke="rgb(4,96,202)"
     stroke-width="1.2"
     stroke-linejoin="round"
     stroke-linecap="round"
     paint-order="stroke fill"
     id="grouped-path-5"
     d="M 392.5 35 L 396 35.5 L 396 77 L 386.5 75 L 338 56.5 L 392.5 35 Z M 393 36 L 341 57 L 348 60 L 357 62 L 376 70 L 380 70 L 387 74 L 395 76 L 395 65 L 394 64 Q 393 59 395 58 L 394 54 L 395 50 L 395 41 L 394 40 Q 395 35 393 36 Z  M 408 95 L 422 99.5 L 420.5 100 L 409.5 97 L 410 98.5 L 419 124.5 L 420 131.5 L 419 131.5 L 417 121.5 L 408 95 Z  M 423.5 100 Q 483.03 121.97 520 166.5 Q 549.656 200.344 565 248.5 L 564 248.5 L 553 219.5 L 534 186.5 Q 518.017 163.483 497.5 145 L 470.5 124 L 441.5 108 L 423.5 101 L 423.5 100 Z  M 394.5 105 L 396 108.5 L 395 112.5 L 396 113.5 L 396 335.5 L 394.5 337 L 244.5 337 L 247 333.5 Q 292.877 279.377 332 218.5 Q 366.809 165.309 394.5 105 Z M 394 110 L 364 168 L 334 218 L 303 264 L 265 314 L 246 336 L 395 336 L 395 287 L 394 286 L 395 283 L 395 131 L 394 130 L 395 121 L 395 119 Q 396 113 394 110 Z  M 421.5 137 L 427 161.5 L 427 167.5 L 429 175.5 L 429 184.5 L 430 185.5 L 430 237.5 L 429 238.5 L 429 248.5 L 426.5 263 L 426 256.5 L 427 255.5 L 428 236.5 L 429 235.5 L 429 187.5 L 428 186.5 L 426 161.5 L 421 140.5 L 421.5 137 Z  M 565.5 250 L 569 262.5 L 568 262.5 L 565.5 250 Z  M 425.5 264 L 426 270.5 L 419 303.5 L 410 333.5 L 411.5 333 L 414 333.5 L 409 335 L 422 286.5 L 425.5 264 Z  M 570.5 268 L 574 286.5 L 573 286.5 Q 573.079 277.921 570 272.5 L 570.5 268 Z  M 574.5 288 L 575 292.5 L 574 292.5 L 574.5 288 Z  M 575.5 295 L 577 303.5 L 577 317.5 L 578 318.5 L 578 339.5 L 575.5 341 L 560.5 335 L 536 329.5 L 540.5 329 L 557.5 334 L 561.5 334 L 575.5 340 L 577 337.5 L 577 323.5 L 576 322.5 L 575.5 295 Z  M 468.5 324 L 504.5 324 L 505.5 325 L 515.5 325 L 522 326.5 L 515.5 327 L 514.5 326 L 502.5 326 L 501.5 325 L 469.5 325 L 468.5 326 L 455.5 326 L 454.5 327 L 439.5 328 L 415.5 333 L 415.5 332 L 439.5 327 L 453.5 326 L 454.5 325 L 467.5 325 L 468.5 324 Z  M 523.5 327 L 535 328.5 L 530.5 329 Q 529 326.5 523.5 328 L 523.5 327 Z  M 591.5 365 L 601 365.5 L 591.5 366 L 591.5 365 Z  M 566.5 366 L 580 366.5 L 566.5 367 L 566.5 366 Z  M 540.5 367 L 550 367.5 L 540.5 368 L 540.5 367 Z  M 513.5 368 L 520 368.5 L 513.5 369 L 513.5 368 Z  M 474.5 369 L 488 369.5 L 474.5 370 L 474.5 369 Z  M 425.5 370 L 445 370.5 L 425.5 371 L 425.5 370 Z  M 361.5 371 L 395 371.5 L 361.5 372 L 361.5 371 Z  M 253.5 372 L 257 372.5 L 253.5 373 L 253.5 372 Z  M 258.5 372 L 262 372.5 L 258.5 373 L 258.5 372 Z  M 548.5 380 L 556 380.5 L 548.5 381 L 548.5 380 Z  M 468.5 382 L 472 382.5 L 468.5 383 L 468.5 382 Z  M 547.5 385 L 556 385.5 L 547.5 386 L 547.5 385 Z  M 237.5 396 L 286 396.5 L 237.5 397 L 237.5 396 Z  M 328.5 396 L 376 396.5 L 328.5 397 L 328.5 396 Z  M 236.5 404 L 238 404.5 L 235 406.5 L 235 420.5 L 236.5 422 L 285.5 422 L 287 420.5 L 287 406.5 L 285 404.5 L 286.5 404 L 288 405.5 L 288 421.5 L 286.5 423 L 236.5 423 L 234 420.5 L 234 406.5 L 236.5 404 Z  M 273.5 404 L 277 404.5 L 273.5 405 L 273.5 404 Z  M 326 404 L 329 404.5 L 326 406.5 L 326 420.5 L 327.5 422 L 376.5 422 L 378.5 420 L 379 421.5 L 377.5 423 L 327.5 423 L 325 420.5 L 325 406.5 L 326 404 Z  M 337.5 404 L 341 404.5 L 337.5 405 L 337.5 404 Z  M 373.5 404 Q 378 403 379 405.5 L 378.5 408 L 376.5 405 Q 372.5 405.75 373.5 404 Z  M 437.5 405 L 438 415.5 L 437 415.5 L 437.5 405 Z  M 580.5 406 L 581 412.5 L 580 412.5 L 580.5 406 Z  M 484.5 425 L 480.5 430 L 480 428 L 484.5 425 Z  M 564.5 428 L 563.5 430 L 561.5 431 L 562.5 429 L 564.5 428 Z  M 548.5 432 L 555 432.5 L 548.5 433 L 548.5 432 Z  M 548.5 437 L 555 437.5 L 548.5 438 L 548.5 437 Z  M 463.5 439 L 468 439.5 L 463.5 440 L 463.5 439 Z  M 508.5 461 L 515 461.5 L 508.5 462 L 508.5 461 Z  M 513.5 467 L 517 467.5 L 513.5 468 L 513.5 467 Z  M 328.5 495 L 333 495.5 L 328.5 496 L 328.5 495 Z  M 472.5 495 L 476 495.5 L 472.5 496 L 472.5 495 Z  M 340.5 496 L 346 496.5 L 340.5 497 L 340.5 496 Z  M 461.5 496 L 467 496.5 L 461.5 497 L 461.5 496 Z  M 356.5 497 L 360 497.5 L 356.5 498 L 356.5 497 Z  M 447.5 497 L 452 497.5 L 447.5 498 L 447.5 497 Z  M 373.5 498 L 380 498.5 L 373.5 499 L 373.5 498 Z  M 427.5 498 L 434 498.5 L 427.5 499 L 427.5 498 Z" />
  <path
     fill="rgb(229,227,233)"
     stroke="rgb(229,227,233)"
     stroke-width="1.2"
     stroke-linejoin="round"
     stroke-linecap="round"
     paint-order="stroke fill"
     id="grouped-path-6"
     d="M 591.5 366 L 601 366.5 L 591.5 367 L 591.5 366 Z  M 564.5 367 L 581 367.5 L 564.5 368 L 564.5 367 Z  M 530.5 368 L 539 368.5 L 530.5 369 L 530.5 368 Z  M 500.5 369 L 508 369.5 L 500.5 370 L 500.5 369 Z  M 464.5 370 L 480 370.5 L 464.5 371 L 464.5 370 Z  M 420.5 371 L 438 371.5 L 420.5 372 L 420.5 371 Z  M 344.5 372 L 395 372.5 L 344.5 373 L 344.5 372 Z  M 194.5 377 L 195 381.5 L 194 381.5 L 194.5 377 Z  M 547.5 379 L 556 379.5 L 547.5 380 L 547.5 379 Z  M 462.5 381 L 470 381.5 L 462.5 382 L 462.5 381 Z  M 552.5 392 L 560 392.5 L 552.5 393 L 552.5 392 Z  M 526.5 393 L 526 394.5 L 525.5 396 L 525 394.5 L 526.5 393 Z  M 280.5 395 L 285 395.5 L 280.5 396 L 280.5 395 Z  M 567.5 395 L 572 397.5 L 571.5 399 Q 573.75 398.25 573 400.5 L 567.5 395 Z  M 483.5 396 L 487 400.5 L 484.5 401 L 483 399.5 L 485 399.5 L 483.5 396 Z  M 560.5 399 L 560 400.5 L 559.5 402 L 559 400.5 L 560.5 399 Z  M 485.5 402 L 488 403.5 L 486.5 404 L 485.5 402 Z  M 452.5 403 L 452 404.5 L 451.5 406 L 451 404.5 L 452.5 403 Z  M 436.5 405 L 437 415.5 L 436 415.5 L 436.5 405 Z  M 487.5 405 L 489 408.5 L 488 408.5 L 487.5 405 Z  M 536.5 409 L 537 413.5 L 536 413.5 L 536.5 409 Z  M 475.5 410 L 479 410.5 L 475.5 411 L 475.5 410 Z  M 529.5 412 L 530 415.5 L 529 415.5 L 529.5 412 Z  M 451.5 420 L 453 422.5 L 451 421.5 L 451.5 420 Z  M 213.5 422 L 215 425.5 L 214 425.5 L 213.5 422 Z  M 217.5 430 L 220 433.5 L 218 432.5 L 217.5 430 Z  M 552 430 L 556 431.5 L 552 432 L 552 430 Z  M 465.5 432 L 474 432.5 L 468.5 434 L 465.5 433 L 465.5 432 Z  M 485.5 443 L 489 443.5 L 485.5 444 L 485.5 443 Z  M 537.5 443 L 540 444.5 L 538.5 444 L 537.5 443 Z  M 227.5 446 L 230 449.5 L 229 449.5 L 227.5 446 Z  M 508.5 460 L 515 460.5 L 508.5 461 L 508.5 460 Z  M 550.5 474 L 552 474.5 L 549.5 476 L 550.5 474 Z  M 290.5 489 L 294 489.5 L 290.5 490 L 290.5 489 Z  M 317.5 493 L 323 493.5 L 317.5 494 L 317.5 493 Z  M 481.5 493 L 485 493.5 L 481.5 494 L 481.5 493 Z  M 328.5 494 L 333 494.5 L 328.5 495 L 328.5 494 Z  M 472.5 494 L 476 494.5 L 472.5 495 L 472.5 494 Z  M 340.5 495 L 344 495.5 L 340.5 496 L 340.5 495 Z  M 462.5 495 L 467 495.5 L 462.5 496 L 462.5 495 Z  M 351.5 496 L 355 496.5 L 351.5 497 L 351.5 496 Z  M 451.5 496 L 456 496.5 L 451.5 497 L 451.5 496 Z  M 435.5 497 L 441 497.5 L 435.5 498 L 435.5 497 Z  M 397.5 498 L 410 498.5 L 397.5 499 L 397.5 498 Z" />
  <path
     fill="rgb(234,234,234)"
     stroke="rgb(234,234,234)"
     stroke-width="1.2"
     stroke-linejoin="round"
     stroke-linecap="round"
     paint-order="stroke fill"
     id="grouped-path-7"
     d="M 585.5 367 L 589 367.5 Q 587.75 370.25 586.5 368 L 585.5 367 Z  M 597 367 L 602 367.5 L 600 368 Q 601.125 371.333 597 370 L 597 367 Z  M 539.5 368 L 558.5 368 L 559 370.5 L 560.5 370 L 569.5 370 L 570.5 371 L 573 370 Q 574.25 373 570.5 372 L 569.5 371 L 560.5 371 L 557 372 L 558 369.5 L 550.5 369 L 550.5 370 L 553 370.5 L 543.5 372 L 538 369.5 L 539.5 368 Z  M 508.5 369 Q 513.75 367.75 515 370.5 L 514.5 372 L 514 370 Q 511 369 512 372 L 509.5 372 L 507.5 371 L 503.5 371 L 501.5 372 L 499.5 372 L 497.5 371 L 496.5 372 L 487.5 372 L 485.5 372 Q 482.875 372.667 484 370 L 507.5 370 L 508.5 369 Z  M 524.5 369 L 528.5 370 L 530.5 369 L 532.5 370 L 536.5 369 L 536.5 371 L 538 371.5 L 536.5 372 L 535.5 371 L 527.5 371 L 524.5 372 L 520.5 371 L 517 372 Q 515.875 369.333 518.5 370 L 520.5 370 L 524.5 369 Z  M 578.5 370 L 581 371.5 L 577.5 373 L 577 371.5 L 578.5 370 Z  M 438.5 371 L 452 371.5 L 443.5 373 L 438.5 372 L 438.5 371 Z  M 395.5 372 L 413 372.5 L 408 373 Q 409.125 376.333 405 375 L 405 373 L 400 373 L 399.5 375 L 385 375 L 385.5 373 L 394.5 373 L 395.5 372 Z  M 415.5 372 Q 419.25 370.75 418 374.5 L 417 374.5 Q 417.75 372.25 415.5 373 L 415.5 372 Z  M 426.5 372 L 430 372.5 L 426.5 373 L 426.5 372 Z  M 199.5 373 L 320 373.5 L 290.5 374 L 285.5 375 L 284.5 374 L 199 374 L 198.5 376 L 198 374.5 L 199.5 373 Z  M 210.5 375 L 226 375.5 L 210.5 376 L 210.5 375 Z  M 231.5 375 L 246 375.5 L 231.5 376 L 231.5 375 Z  M 254.5 375 L 273 375.5 L 254.5 376 L 254.5 375 Z  M 277.5 375 L 281 375.5 L 277.5 376 L 277.5 375 Z  M 291.5 375 L 310 375.5 L 291.5 376 L 291.5 375 Z  M 314.5 375 L 319 375.5 L 314.5 376 L 314.5 375 Z  M 324 375 L 329 375.5 L 324 377 L 324 375 Z  M 472.5 380 L 471.5 382 L 470 381.5 L 472.5 380 Z  M 538.5 381 L 536.5 384 L 534.5 385 L 535.5 383 L 538.5 381 Z  M 528.5 385 L 533 385.5 L 529 388.5 L 530 386 L 528.5 385 Z  M 483.5 386 L 485.5 386 Q 487.75 385.25 487 387.5 L 488 389.5 L 486.5 389 L 483.5 386 Z  M 554.5 387 Q 558.875 385.5 558 388.5 L 555 390 L 554.5 387 Z  M 461.5 388 L 467 388.5 L 465 389 L 464.5 391 L 458 391 Q 456.75 388 460.5 389 L 461.5 388 Z  M 469.5 388 L 476 390 Q 477.25 393 473.5 392 Q 472.25 389.25 468 389.5 L 469.5 388 Z  M 560.5 388 L 567 392.5 L 565.5 392 L 560.5 389 L 560.5 388 Z  M 574.5 389 L 578 391.5 L 578.5 394 L 580 393.5 L 579 395.5 L 580 397.5 L 579 397.5 L 574.5 389 Z  M 454.5 391 L 456 391.5 L 453.5 393 L 454.5 391 Z  M 489.5 392 L 493 393.5 L 492.5 395 Q 497.083 393.65 495 399.5 L 497 402.5 L 494 400.5 L 489.5 392 Z  M 365 393 Q 371.292 391.5 370.5 395 L 374.5 395 L 374.5 396 L 328 395.5 L 365 395 L 365 393 Z  M 480.5 393 L 482.5 396 L 480 394.5 L 480.5 393 Z  M 202.5 394 Q 205.25 395.25 203 396.5 L 204 398.5 L 202 399.5 L 201 395.5 L 202.5 394 Z  M 233.5 395 L 234 397 L 230.5 399 L 233.5 395 Z  M 235.5 395 L 239 395.5 L 235.5 396 L 235.5 395 Z  M 240.5 395 L 247 395.5 L 240.5 396 L 240.5 395 Z  M 248.5 395 L 260 395.5 L 248.5 396 L 248.5 395 Z  M 263.5 395 L 280 395.5 L 263.5 396 L 263.5 395 Z  M 285.5 395 Q 290 394 291 396.5 L 290.5 398 Q 289.75 395.25 285.5 396 L 285.5 395 Z  M 449.5 395 L 450 396.5 L 449.5 399 L 445.5 401 L 449 396.5 L 449.5 395 Z  M 569.5 395 L 572 398.5 L 569 396.5 L 569.5 395 Z  M 522.5 396 L 525 396.5 L 522.5 401 L 520 400 L 520 398 Q 522.75 399 522.5 396 Z  M 381.5 397 L 387 398 L 388 400.5 L 385.5 402 L 382.5 398 L 381.5 397 Z  M 292.5 398 L 298 403.5 L 298 408 Q 294.667 409.313 296 404.5 L 292.5 398 Z  M 228.5 399 L 228 400.5 Q 228.75 402.75 226.5 402 L 225.5 400 L 228.5 399 Z  M 566.5 399 L 569 403.5 L 568.5 406 L 567 404.5 L 566.5 399 Z  M 476.5 400 L 482 403.5 L 481.5 405 L 479.5 402 L 476.5 401 L 476.5 403 L 475 403 L 475 405 Q 472.333 403.875 473 406.5 L 472 406.5 L 474.5 401 L 476.5 400 Z  M 317.5 402 L 318 403.5 L 316.5 407 Q 313.25 405.25 317 403.5 L 317.5 402 Z  M 559.5 402 L 562 403 L 560.5 408 L 559.5 402 Z  M 204.5 403 Q 209.083 401.8 207 407 Q 204 408.25 205 404.5 L 204.5 403 Z  M 529.5 404 L 530 410 Q 533.667 408.65 532 414.5 L 533 414.5 Q 532.25 412.25 534.5 413 L 536 412.5 L 537 418 Q 534 419 535 416 L 532 416 Q 533 419 530 418 L 529.5 404 Z  M 387.5 408 L 388 411 L 390 411 L 392 415 L 387.5 418 L 387.5 408 Z  M 207.5 410 L 209 413 Q 213.125 411.667 212 415 Q 208.25 416.5 209 413.5 L 207.5 410 Z  M 225.5 410 L 226 417.5 L 225 417.5 L 225.5 410 Z  M 521.5 410 L 523 418.5 L 521.5 418 Q 519.25 418.75 520 416.5 L 521 411.5 L 521.5 410 Z  M 497.5 411 L 498.5 413 Q 495.167 411.875 496 414.5 L 495 414.5 L 497.5 411 Z  M 581.5 412 L 582 418.5 L 578.5 423 L 579 421.5 L 581 417.5 L 581 415.5 L 581.5 412 Z  M 296.5 415 L 297 420.5 L 296 420.5 L 296.5 415 Z  M 211.5 417 L 213 419.5 L 211 418.5 L 211.5 417 Z  M 445.5 420 Q 448.125 419.167 447 422.5 L 446 422.5 L 445.5 420 Z  M 538.5 420 L 543.5 427 L 545 427.5 L 542 428.5 L 542.5 430 L 534 423.5 L 535.5 423 L 537 423.5 L 538.5 420 Z  M 315 421 L 318 422.5 L 319 424.5 Q 317.5 427.5 316 424.5 L 315 421 Z  M 437.5 421 L 438.5 424 Q 440.75 423.25 440 425.5 L 441 427.5 L 440 427.5 L 437 423.5 L 437.5 421 Z  M 296.5 422 L 297 424.5 L 294.5 426 L 296 423.5 L 296.5 422 Z  M 493 423 Q 496 422 495 425 L 492 426.5 L 491.5 428 L 491 426.5 L 493 423 Z  M 577.5 424 L 577 425.5 L 576.5 427 L 576 425.5 L 577.5 424 Z  M 215.5 425 L 218 426 Q 219.125 428.667 216.5 428 L 215.5 425 Z  M 385.5 425 L 390 426 L 390 428 Q 385.875 426.667 387 430 L 381.5 430 L 381.5 429 L 385 426.5 L 385.5 425 Z  M 526.5 425 L 533.5 433 Q 535.75 432.25 535 434.5 L 535.5 436 L 530 435 L 530 433 Q 527.333 434.125 528 431.5 L 525 430 L 526.5 425 Z  M 457.5 428 L 462 431 Q 463.25 434 459.5 433 L 457 431.5 L 458 429.5 L 457.5 428 Z  M 574.5 428 L 575 430 L 570.5 433 L 574.5 428 Z  M 489.5 429 L 491 429.5 L 488.5 431 L 489.5 429 Z  M 379.5 430 L 378.5 432 L 363.5 433 L 362.5 432 L 350.5 432 Q 349 434.5 343.5 433 L 342.5 432 L 332.5 432 L 327 433 L 327.5 431 L 378.5 431 L 379.5 430 Z  M 550.5 430 Q 553.125 429.333 552 432 L 549 431.5 L 550.5 430 Z  M 238.5 431 L 285 431.5 Q 281.2 434.2 273.5 433 L 272.5 432 L 247.5 432 L 243.5 433 L 238.5 432 L 238.5 431 Z  M 463.5 432 L 468 433.5 L 464.5 434 L 463.5 432 Z  M 486.5 432 L 485 434.5 L 482.5 438 Q 478 437.5 477.5 441 L 478 439.5 L 479.5 437 L 486.5 432 Z  M 448 435 L 453 437.5 L 451.5 438 L 448 437 L 448 435 Z  M 581.5 437 L 581 438.5 L 580.5 440 L 580 438.5 L 581.5 437 Z  M 223.5 439 L 225 441.5 L 224 441.5 L 223.5 439 Z  M 539.5 441 L 542 442.5 L 539.5 444 Q 536.5 442.5 539.5 441 Z  M 225.5 443 L 230 446 L 229.5 448 L 225.5 443 Z  M 532 443 L 535 443.5 L 532.5 445 L 532 443 Z  M 541.5 447 L 543 451 L 540 449.5 L 541.5 447 Z  M 230.5 449 L 232 451.5 L 230 450.5 L 230.5 449 Z  M 530.5 449 L 530 450.5 Q 530.75 452.75 528.5 452 L 527.5 450 Q 529 452.5 530.5 449 Z  M 493.5 450 L 500 453 L 499.5 457 L 493.5 450 Z  M 539.5 452 L 540 453.5 L 537.5 457 L 537 455.5 L 539.5 452 Z  M 571.5 453 L 571 454.5 L 570.5 456 L 570 454.5 L 571.5 453 Z  M 485.5 454 L 488 457.5 L 485 455.5 L 485.5 454 Z  M 512.5 458 Q 516.25 457 515 460 L 511 459.5 L 512.5 458 Z  M 494.5 463 Q 498 465 493.5 467 L 493 465.5 L 494.5 463 Z  M 244.5 466 L 245 468 Q 249.125 466.333 248 470.5 L 252 473.5 L 250.5 474 L 244 467.5 L 244.5 466 Z  M 560.5 466 L 561 467.5 L 559 468.5 L 560.5 466 Z  M 553.5 470 L 555.5 471 L 557 470.5 L 552.5 474 L 553.5 470 Z  M 259.5 479 L 263 481.5 L 261.5 481 L 259.5 479 Z  M 514.5 486 L 513.5 488 L 512 487.5 L 514.5 486 Z  M 486 491 L 495 491.5 L 486 493 L 486 491 Z  M 323.5 493 L 327 493.5 L 323.5 494 L 323.5 493 Z  M 476.5 493 L 481 493.5 L 476.5 494 L 476.5 493 Z  M 333.5 494 L 338 494.5 L 333.5 495 L 333.5 494 Z  M 361.5 494 L 366 494.5 L 361.5 495 L 361.5 494 Z  M 374.5 494 L 379 494.5 L 374.5 495 L 374.5 494 Z  M 388.5 494 L 392 494.5 L 388.5 495 L 388.5 494 Z  M 401.5 494 L 406 494.5 L 401.5 495 L 401.5 494 Z  M 414.5 494 L 419 494.5 L 414.5 495 L 414.5 494 Z  M 428.5 494 L 432 494.5 L 428.5 495 L 428.5 494 Z  M 441.5 494 L 446 494.5 L 441.5 495 L 441.5 494 Z  M 354.5 495 L 361 496.5 L 355.5 497 L 354.5 495 Z  M 457.5 495 L 462 495.5 L 457.5 496 L 457.5 495 Z" />
  <path
     fill="rgb(162,171,212)"
     stroke="rgb(162,171,212)"
     stroke-width="1.2"
     stroke-linejoin="round"
     stroke-linecap="round"
     paint-order="stroke fill"
     id="grouped-path-8"
     d="M 405.5 35 L 406 39.5 L 405 39.5 L 405.5 35 Z  M 405.5 48 L 406 56.5 L 405 56.5 L 405.5 48 Z  M 405.5 61 L 406 76.5 L 405 76.5 L 405.5 61 Z  M 405.5 137 L 406 144.5 L 405 144.5 L 405.5 137 Z  M 405.5 152 L 406 158.5 L 405 158.5 L 405.5 152 Z  M 405.5 164 L 406 172.5 L 405 172.5 L 405.5 164 Z  M 405.5 183 L 406 188.5 L 405 188.5 L 405.5 183 Z  M 405.5 192 L 406 199.5 L 405 199.5 L 405.5 192 Z  M 405.5 208 L 406 239.5 L 405 239.5 L 405.5 208 Z  M 405.5 246 L 406 255.5 L 405 255.5 L 405.5 246 Z  M 585.5 332 L 586 335.5 L 585 335.5 L 585.5 332 Z  M 235.5 345 L 394 345.5 L 235.5 346 L 235.5 345 Z  M 569.5 356 L 576 356.5 L 569.5 357 L 569.5 356 Z  M 544.5 357 L 550 357.5 L 544.5 358 L 544.5 357 Z  M 370.5 361 L 384 361.5 L 370.5 362 L 370.5 361 Z  M 225.5 362 L 230 362.5 L 225.5 363 L 225.5 362 Z  M 232.5 362 L 257 362.5 L 232.5 363 L 232.5 362 Z  M 263.5 362 L 293 362.5 L 263.5 363 L 263.5 362 Z  M 580.5 366 L 591 366.5 L 580.5 367 L 580.5 366 Z  M 550.5 367 L 564 367.5 L 550.5 368 L 550.5 367 Z  M 520.5 368 L 530 368.5 L 520.5 369 L 520.5 368 Z  M 488.5 369 L 500 369.5 L 488.5 370 L 488.5 369 Z  M 445.5 370 L 464 370.5 L 445.5 371 L 445.5 370 Z  M 395.5 371 L 420 371.5 L 395.5 372 L 395.5 371 Z  M 606.5 371 L 607 374.5 L 606 374.5 L 606.5 371 Z  M 200.5 372 L 248 372.5 L 200.5 373 L 200.5 372 Z  M 262.5 372 L 344 372.5 L 262.5 373 L 262.5 372 Z  M 463.5 387 L 469 387.5 L 463.5 388 L 463.5 387 Z  M 466.5 394 L 472 394.5 L 466.5 395 L 466.5 394 Z  M 558.5 401 L 559 405.5 L 558 405.5 L 558.5 401 Z  M 572.5 401 Q 575.125 400.167 574 403.5 L 575 405.5 L 574 405.5 L 572.5 401 Z  M 569.5 402 L 570 405.5 L 569 405.5 L 569.5 402 Z  M 482.5 403 L 483 407.5 L 482 407.5 L 482.5 403 Z  M 488.5 404 L 489 405.5 L 487 406.5 L 488.5 404 Z  M 522.5 404 L 523 413.5 L 522 413.5 L 522.5 404 Z  M 528.5 404 L 529 413.5 L 528 413.5 L 528.5 404 Z  M 295.5 405 L 296 420.5 L 295 420.5 L 295.5 405 Z  M 386.5 405 L 387 421.5 L 386 421.5 L 386.5 405 Z  M 317.5 406 L 318 419.5 L 317 419.5 L 317.5 406 Z  M 226.5 407 L 227 419.5 L 226 419.5 L 226.5 407 Z  M 442.5 408 L 443 412.5 L 442 412.5 L 442.5 408 Z  M 488 409 Q 491 407.75 490 411.5 L 488.5 417 L 488 409 Z  M 450.5 410 L 451 415.5 L 450 415.5 L 450.5 410 Z  M 211.5 420 L 213 422.5 L 212 422.5 L 211.5 420 Z  M 236.5 430 L 287 430.5 L 236.5 431 L 236.5 430 Z  M 327.5 430 L 378 430.5 L 327.5 431 L 327.5 430 Z  M 477.5 430 L 476.5 432 L 474.5 433 L 474 431 L 477.5 430 Z  M 554.5 430 L 561 430.5 L 556.5 432 L 554.5 430 Z  M 532.5 447 L 533 448.5 L 531 449.5 L 532.5 447 Z  M 293.5 490 L 297 490.5 L 293.5 491 L 293.5 490 Z  M 323.5 494 L 328 494.5 L 323.5 495 L 323.5 494 Z  M 476.5 494 L 480 494.5 L 476.5 495 L 476.5 494 Z  M 333.5 495 L 340 495.5 L 333.5 496 L 333.5 495 Z  M 467.5 495 L 472 495.5 L 467.5 496 L 467.5 495 Z  M 346.5 496 L 351 496.5 L 346.5 497 L 346.5 496 Z  M 456.5 496 L 461 496.5 L 456.5 497 L 456.5 496 Z  M 360.5 497 L 367 497.5 L 360.5 498 L 360.5 497 Z  M 441.5 497 L 447 497.5 L 441.5 498 L 441.5 497 Z  M 380.5 498 L 397 498.5 L 380.5 499 L 380.5 498 Z  M 410.5 498 L 427 498.5 L 410.5 499 L 410.5 498 Z  M 378.5 508 L 384 508.5 L 378.5 509 L 378.5 508 Z" />
  <path
     fill="rgb(235,235,235)"
     stroke="rgb(235,235,235)"
     stroke-width="1.2"
     stroke-linejoin="round"
     stroke-linecap="round"
     paint-order="stroke fill"
     id="grouped-path-9"
     d="M 584.5 367 L 587.5 369 L 589.5 367 L 597 367 Q 595.5 371.5 600 370 Q 598.75 367 602.5 368 L 605 369 L 605 375.5 L 604 376.5 L 605 378.5 L 603 385 Q 600.333 383.875 601 386.5 L 601 388.5 L 600 395.5 L 598 397.5 L 595 408.5 L 593 410.5 L 593 412.5 L 591.5 416 L 590 415.5 L 591 418.5 L 589 420.5 L 589 423.5 Q 584.4 426.233 585 432 L 583 432.5 L 583 434.5 L 578.5 443 Q 575.5 442.25 577 446 L 574.5 446 L 574.5 447 L 576 447.5 L 573 453 L 570 454.5 L 570 456.5 L 563.5 464 Q 560.875 463.333 562 466 L 560 466 L 560 467.5 L 555.5 471 L 553.5 470 Q 555.167 472 551.5 474 L 538.5 480 L 532 481 L 531.5 483 L 529.5 483 L 516.5 486 L 514.5 488 L 512.5 487 L 498.5 491 L 496.5 490 L 495.5 491 L 486 491 L 485.5 493 L 476.5 493 L 466.5 495 L 464.5 495 L 457.5 495 L 448.5 497 L 435.5 497 L 434.5 498 L 392.5 498 L 390.5 497 L 387.5 498 L 385.5 497 L 382.5 498 L 379.5 497 L 376.5 498 L 374.5 498 L 364.5 496 L 361.5 497 L 354.5 495 L 350.5 496 L 348.5 496 L 337.5 494 L 314 493 Q 315.125 490.333 312.5 491 L 310.5 491 L 307.5 492 L 302.5 490 L 300.5 490 L 276.5 487 L 271.5 484 L 269.5 484 L 264.5 483 Q 261.417 478.417 255 478 L 255 475 L 252 475 Q 253.125 472.333 250.5 473 Q 247.25 471.833 248 468 L 245 468 L 245 466 Q 242.333 467.125 243 464.5 L 240 463 Q 241.5 459.25 238.5 460 L 237 457 Q 234.333 458.125 235 455.5 Q 230.417 452.417 230 446 L 225 442.5 L 225 440.5 L 220 434.5 L 220.5 433 Q 218.25 433.75 219 431.5 L 217 428.5 L 218 426 L 214 423.5 L 211.5 417 Q 208.875 417.667 210 415 Q 213 416 212 413 Q 208.25 414.5 209 411.5 L 206 407.5 L 207 403 Q 203.25 404.5 204 401.5 L 203 399.5 L 203 397.5 L 204 395.5 Q 202.75 392.75 201.5 395 Q 198.5 395.875 200 391.5 Q 197.2 389.488 198 385 Q 195.333 386.125 196 383.5 L 195 378.5 L 197.5 374 L 198.5 376 L 199 374 L 284.5 374 L 289.5 375 L 290.5 374 L 319.5 374 L 320.5 373 L 385 373 L 385.5 375 L 400 375 L 400 373 L 405 373 Q 403.875 376.333 408 375 Q 406.65 371.333 412.5 373 L 414.5 372 L 417 373 L 417.5 375 L 418 372 L 423.5 373 L 425.5 372 L 429.5 373 L 430.5 372 L 442.5 372 L 446.5 373 L 454.5 371 L 456.5 372 L 461.5 371 L 464.5 372 L 465.5 371 L 481.5 371 L 484 370 Q 482.875 372.667 485.5 372 L 487.5 372 L 496.5 372 L 497.5 371 L 499.5 372 L 502.5 371 L 504.5 372 L 507.5 371 L 512 372 Q 510.875 369.333 513.5 370 L 514.5 369 L 523.5 369 L 524.5 372 L 527 371.5 Q 524.75 370.25 527.5 369 L 529 369.5 L 527 370.5 L 535.5 371 Q 537.5 367 539.5 371 L 543 370.5 L 540 369.5 L 542.5 369 L 543.5 372 L 547 371.5 L 546.5 370 Q 547.75 372.25 552.5 371 L 552.5 370 L 550 369.5 L 557.5 369 L 557 370.5 Q 556.167 373.125 559.5 372 L 559 370.5 L 559 368 L 565.5 368 L 567.5 368 L 583.5 368 L 584.5 367 Z M 517 370 L 517 372 L 520 372 L 517 370 Z M 521 370 L 521 371 L 524 371 L 521 370 Z M 561 370 L 561 371 L 570 371 L 561 370 Z M 572 370 L 570 372 L 573 372 Q 574 369 572 370 Z M 579 370 L 577 372 L 578 373 L 581 372 L 579 370 Z M 211 375 L 211 376 L 226 376 L 211 375 Z M 232 375 L 232 376 L 246 376 L 232 375 Z M 250 375 Q 249 378 253 377 Q 254 374 250 375 Z M 255 375 L 255 376 L 273 376 L 255 375 Z M 278 375 L 278 376 L 281 376 L 278 375 Z M 292 375 L 292 376 L 310 376 L 292 375 Z M 315 375 L 315 376 L 319 376 L 315 375 Z M 324 375 L 324 377 L 329 376 L 324 375 Z M 547 379 L 541 381 L 539 381 Q 536 386 528 386 L 530 386 L 525 396 L 522 397 Q 523 399 520 398 L 520 400 L 523 402 L 522 407 L 522 409 L 521 412 L 521 416 L 520 418 L 524 419 L 526 425 L 525 430 L 528 432 Q 527 434 530 433 L 530 435 L 536 436 L 536 434 L 542 438 L 557 438 L 560 439 L 574 430 Q 577 431 575 427 L 577 427 L 580 421 L 580 419 L 581 417 L 581 419 L 582 419 L 581 406 L 582 403 L 580 402 L 580 397 L 578 392 L 574 389 L 570 384 L 567 383 Q 564 384 565 381 L 558 379 L 547 379 Z M 462 381 L 453 384 L 450 384 L 450 386 L 447 386 Q 448 389 445 388 L 440 395 L 436 405 L 436 418 L 437 420 L 439 424 L 438 425 L 440 427 Q 439 429 442 428 L 443 431 L 447 433 L 448 437 L 452 438 Q 457 436 456 440 L 459 439 L 464 441 L 473 440 L 475 440 L 478 438 L 479 440 L 483 438 L 485 435 L 491 430 L 491 428 Q 493 429 492 427 L 495 425 L 494 423 L 496 417 L 496 415 L 495 412 L 496 409 L 495 403 L 497 403 L 495 400 Q 497 394 493 395 L 493 394 L 491 393 L 487 388 Q 488 385 486 386 L 484 386 Q 481 387 482 384 L 477 384 L 477 383 L 476 383 Q 471 379 462 381 Z M 365 393 L 365 395 L 329 395 Q 322 396 319 401 L 317 404 Q 313 406 317 408 L 317 421 L 315 421 L 316 425 Q 317 427 319 425 L 320 428 L 324 430 Q 326 429 325 432 L 327 431 L 327 433 L 333 432 L 343 432 L 344 433 Q 349 435 351 432 L 363 432 L 364 433 L 379 432 L 381 430 L 387 430 Q 386 427 390 428 Q 391 424 386 426 L 387 419 L 392 415 L 390 411 L 388 411 L 386 401 L 388 401 L 387 398 L 377 395 L 371 395 Q 371 392 365 393 Z M 234 395 Q 231 399 226 400 L 227 403 L 225 411 L 226 423 L 229 428 L 236 431 L 238 431 L 244 433 L 248 432 L 273 432 L 274 433 L 282 433 L 289 431 L 294 428 Q 293 425 296 426 L 297 423 L 297 421 Q 298 416 296 415 Q 295 407 298 408 L 298 404 L 293 398 Q 290 399 291 397 L 290 395 L 236 395 L 234 395 Z M 498 411 L 496 413 L 499 413 L 498 411 Z M 540 441 Q 538 445 532 443 L 533 446 L 531 447 Q 532 449 528 452 L 529 453 Q 524 458 516 460 L 515 458 Q 512 457 511 460 L 502 458 Q 499 457 500 453 L 492 449 L 492 445 Q 489 446 490 443 L 483 443 Q 482 451 485 456 L 489 458 L 490 461 L 494 464 L 493 467 L 496 465 L 502 468 Q 507 467 509 469 Q 513 470 515 468 L 520 469 L 528 465 L 529 466 Q 528 462 532 463 L 535 459 L 538 457 L 541 450 L 543 451 L 540 443 L 542 443 L 540 441 Z M 362 494 L 362 495 L 366 495 L 362 494 Z M 375 494 L 375 495 L 379 495 L 375 494 Z M 389 494 L 389 495 L 392 495 L 389 494 Z M 402 494 L 402 495 L 406 495 L 402 494 Z M 415 494 L 415 495 L 419 495 L 415 494 Z M 429 494 L 429 495 L 432 495 L 429 494 Z M 442 494 L 442 495 L 446 495 L 442 494 Z  M 546.5 387 Q 553.25 385.25 555 388.5 Q 554.25 390.75 556.5 390 L 559.5 388 L 569 394.5 L 568.5 396 L 566.5 394 L 557.5 391 L 555.5 392 L 553.5 392 L 545.5 394 L 538 400.5 L 538 402.5 L 536 411.5 L 534.5 413 Q 532.25 412.25 533 414.5 L 532 414.5 Q 533.25 408.512 530 409.5 L 530 401.5 L 532 401.5 L 531 398.5 L 533 398.5 L 535 393 L 540 391 L 540.5 389 Q 542 391.5 543.5 388 L 546.5 387 Z  M 467.5 388 L 469 388.5 L 468.5 390 L 475.5 392 Q 477 389.5 478.5 393 Q 480.75 392.25 480 394.5 L 484 397.5 L 486 400.5 L 482.5 398 L 475.5 394 Q 470.75 395.25 469.5 393 L 467.5 394 L 465.5 394 L 460.5 395 L 453 401.5 Q 448.313 405.535 450 415 L 448 415.5 L 450 416 L 450 419.5 L 455.5 428 L 458 429.5 Q 458.75 431.75 456.5 431 L 450 426.5 L 448.5 424 L 447 424 L 447 420 Q 444 421.25 445 417.5 L 443 410.5 L 445 401.5 L 447.5 399 L 450 398.5 L 450 396.5 L 451.5 393 L 456 392 Q 454.875 389.333 457.5 390 L 458.5 391 L 465 391 Q 463.875 388.333 466.5 389 L 467.5 388 Z  M 561.5 399 L 563.5 400 L 565.5 399 Q 568.1 400.4 567.5 405 L 569 404.5 L 566.5 408 L 563.5 409 L 561 408 L 562 403 Q 559 404.25 560 400.5 L 561.5 399 Z  M 476.5 401 L 481 403.5 L 482 406.5 L 481 409 L 475.5 410 L 473 409 L 473 405 L 475 405 Q 473.875 402.333 476.5 403 L 476.5 401 Z  M 532 416 L 535 416 Q 533.875 419.333 538 418 L 538 420.5 L 536.5 424 L 533 421.5 L 531 418.5 L 532 416 Z  M 542.5 428 Q 548.036 427.464 550 430.5 L 545.5 431 L 542.5 428 Z" />
</svg>
