<svg xmlns="http://www.w3.org/2000/svg" viewBox="0 0 800 533" version="1.1" desc="Created with imagetracer.js version 1.2.6" shape-rendering="geometricPrecision" style="background: transparent;"><path fill="rgb(39,34,24)" stroke="rgb(39,34,24)" stroke-width="1.2" stroke-linejoin="round" stroke-linecap="round" paint-order="stroke fill" id="grouped-path-0" d="M 504.5 64 L 506.5 64 L 513 64.5 L 506 65.5 L 506.5 67 L 504.5 64 Z  M 403.5 157 L 404 161.5 L 403 161.5 L 403.5 157 Z  M 245.5 181 L 249 181.5 L 245.5 182 L 245.5 181 Z  M 251.5 181 L 260 181.5 L 251.5 182 L 251.5 181 Z  M 277.5 181 L 288 181.5 L 277.5 182 L 277.5 181 Z  M 290.5 181 L 294 181.5 L 290.5 182 L 290.5 181 Z  M 308.5 183 L 312 183.5 L 308.5 184 L 308.5 183 Z  M 331.5 186 L 335 186.5 L 331.5 187 L 331.5 186 Z  M 504.5 186 L 508 186.5 L 504.5 187 L 504.5 186 Z  M 369.5 190 L 375 190.5 L 369.5 191 L 369.5 190 Z  M 202.5 192 L 204 192.5 L 200.5 194 L 200.5 193 L 202.5 192 Z  M 194.5 196 L 193.5 198 L 190.5 199 L 190.5 198 L 194.5 196 Z  M 709.5 231 L 717 231.5 L 709.5 232 L 709.5 231 Z  M 536.5 263 L 537 266.5 L 536 266.5 L 536.5 263 Z  M 540.5 300 L 545 300.5 L 543 301 L 540.5 305 L 540 303.5 L 541 301.5 L 540.5 300 Z  M 562.5 301 L 579 301.5 L 562.5 302 L 562.5 301 Z  M 533.5 317 L 534 319.5 L 532 320.5 L 533.5 317 Z  M 555.5 323 L 556 335 L 554 334.5 L 554 325.5 L 555.5 323 Z  M 530.5 325 L 531 326.5 L 527.5 332 L 528 330.5 L 530.5 325 Z  M 554.5 336 L 556 341 L 554 340.5 L 554 338.5 L 554.5 336 Z  M 557.5 341 L 561 341.5 L 557.5 342 L 557.5 341 Z  M 576.5 343 L 580 343.5 L 576.5 344 L 576.5 343 Z  M 556.5 401 L 562 407.5 L 556 402.5 L 556.5 401 Z  M 294.5 406 L 298 406.5 L 294.5 407 L 294.5 406 Z  M 336.5 406 L 340 406.5 L 336.5 407 L 336.5 406 Z  M 446.5 410 L 447 413.5 L 446 413.5 L 446.5 410 Z  M 563.5 410 L 571.5 419 L 569 417.5 L 563.5 410 Z  M 275.5 411 L 280 411.5 L 275.5 412 L 275.5 411 Z  M 284.5 412 Q 292.125 410.5 291 414 L 284.5 413 L 284.5 412 Z  M 445.5 415 L 446 418.5 L 445 418.5 L 445.5 415 Z  M 582.5 427 L 587 427.5 L 582.5 428 L 582.5 427 Z  M 442.5 440 L 443 446.5 L 442 446.5 L 442.5 440 Z  M 76.5 443 L 77 446.5 L 76 446.5 L 76.5 443 Z  M 76.5 453 L 77 456.5 L 76 456.5 L 76.5 453 Z  M 122.5 468 L 123 472.5 L 122 472.5 L 122.5 468 Z"/><path fill="rgb(51,50,48)" stroke="rgb(51,50,48)" stroke-width="1.2" stroke-linejoin="round" stroke-linecap="round" paint-order="stroke fill" id="grouped-path-1" d="M 506.5 65 L 513.5 67 L 516.5 66 L 526.5 66 L 527 67.5 L 528.5 67 Q 535.75 67.25 538 72.5 L 537.5 74 L 534.5 70 L 533.5 72 L 532 71.5 L 533 75 L 525 76 L 524.5 78 Q 522.75 74.25 521 77.5 L 522 79.5 L 520.5 79 L 518 77.5 L 519 75.5 L 513.5 75 L 514.5 78 L 507 72.5 L 508 67.5 L 506.5 65 Z  M 541.5 69 Q 550.405 70.095 555.5 75 L 559 75 L 559.5 77 L 561.5 77 L 573 84.5 L 572 87 L 574.5 87 L 580 91.5 Q 579.333 94.125 582 93 L 582 96.5 L 583 99.5 L 582 101.5 L 583 105.5 L 580.5 109 L 579 108.5 L 579.5 107 L 576.5 109 L 571 102.5 L 573 102.5 L 574 100.5 L 572 100 L 571.5 96 L 570 96.5 L 568.5 94 L 567 94.5 L 570 99.5 L 568 98.5 L 565 94.5 L 567 93.5 L 563 88.5 Q 565.75 86.75 561.5 85 L 559 85.5 L 565 92.5 L 547.5 76 L 540 70.5 L 541.5 69 Z M 552 78 L 558 85 L 559 85 L 557 82 Q 558 79 555 80 L 555 78 L 552 78 Z  M 540.5 76 L 545 81.5 L 543 82.5 Q 543.5 78 540 77.5 L 540.5 76 Z  M 516.5 78 L 525 85.5 L 519.5 81 L 516.5 78 Z  M 545.5 83 L 550 90.5 L 549.5 92 Q 551.75 91.25 551 93.5 L 553 99.5 L 552 102.5 L 554 102.5 Q 555.125 105.833 552.5 105 L 553 106.5 L 550.5 110 L 551 108.5 L 550 100 L 552 99.5 L 551.5 97 Q 548.5 97.875 550 93.5 L 547 89.5 L 547 87.5 L 545.5 83 Z  M 407.5 137 L 409 140.5 L 408 140.5 L 407.5 137 Z  M 413.5 142 L 416 143.5 L 414.5 144 L 413.5 142 Z  M 417.5 144 L 426 148.5 L 420.5 151 L 417 150 Q 418.2 146.333 413 148 L 413 153 Q 415.667 151.875 415 154.5 L 418 157.5 L 416.5 160 L 418 160.5 L 416.5 163 Q 420.875 161.5 420 164.5 Q 421.167 167.75 425 167 Q 427.083 172.2 422.5 171 L 419.5 175 Q 416.167 176.125 417 173.5 Q 414.022 169.028 407 170 Q 407.75 166.854 405 167.5 L 405 161.5 L 409 160 Q 407.929 151.104 410.5 145 Q 412.167 148.5 418 147 L 417.5 144 Z  M 405.5 148 Q 407.75 148.75 407 152.5 L 406 152.5 L 405.5 148 Z  M 433.5 152 L 438 153 L 437.5 155 L 435 154.5 L 434.5 153 L 432.5 156 L 430 155 Q 428.75 152 432.5 153 L 433.5 152 Z  M 442.5 155 L 443 157.5 L 440 159.5 Q 438.5 155.125 441.5 156 L 442.5 155 Z  M 405.5 156 L 406 157.5 L 404.5 160 L 404 157.5 L 405.5 156 Z  M 575.5 158 L 576 161.5 L 575 161.5 L 575.5 158 Z  M 460.5 160 L 462 160.5 L 461.5 162 L 465.5 161 L 470 162.5 L 465.5 165 L 460 165 L 459 161.5 L 460.5 160 Z  M 471.5 163 L 475 165.5 L 474 167.5 L 475 170.5 L 471 173.5 L 473 170 L 470 170 L 470 175 L 467.5 175 L 463.5 176 L 461.5 175 L 461.5 177 L 454 176 Q 452.667 171.875 456 173 L 457.5 176 Q 461.667 177.125 460 173 L 464 173 L 464 170 Q 468.125 171.333 467 168 L 471.5 168 Q 476 166 472.5 164 L 470.5 165 L 471.5 163 Z M 468 171 L 466 173 L 469 173 L 468 171 Z  M 444 168 L 446 168 Q 444.875 170.667 447.5 170 L 445 173.5 L 447.5 177 L 453 177.5 L 441.5 178 L 442 176.5 Q 442.667 173.875 440 175 L 440 170 Q 445.2 171.667 444 168 Z  M 403.5 169 L 404.5 171 L 402.5 172 L 403 170.5 L 403.5 169 Z  M 422.5 175 L 428 175.5 L 422.5 176 L 422.5 175 Z  M 429.5 176 L 435 176.5 L 429.5 177 L 429.5 176 Z  M 402.5 179 L 403 183.5 L 402 183.5 L 402.5 179 Z  M 507.5 181 L 521 181.5 L 507.5 182 L 507.5 181 Z  M 249.5 182 Q 252.125 181.167 251 184.5 L 250 184.5 L 249.5 183 L 248.5 187 L 248 183.5 L 249.5 182 Z  M 537.5 184 L 539 187.5 L 537 188.5 L 538 185.5 L 537.5 184 Z  M 226.5 185 L 226 186.5 Q 227.125 189.833 224.5 189 L 225 190.5 L 224 194 L 220 192.5 L 223 192 L 223 190 Q 218.875 191.333 220 188 L 225 188 L 225 186.5 L 226.5 185 Z  M 404.5 186 L 410 188.5 L 408 189.5 L 410 190 L 411.5 193 L 417.5 193 Q 416.708 196.5 423 195 Q 424.125 192.333 421.5 193 L 421.5 192 L 428.5 193 L 431.5 195 L 434.5 194 L 434.5 195 L 433 195.5 L 439.5 197 L 439.5 195 L 447.5 197 L 453.5 197 L 455 196.5 Q 454.25 199.5 458 198 L 458.5 195 L 467.5 195 L 472 198.5 L 471.5 204 L 471 198 Q 467.25 196.5 468 199.5 L 467 199.5 L 465.5 197 L 462 197.5 L 465 198 Q 466.313 201.333 461.5 200 L 460 203 L 451.5 203 Q 452.3 206.4 443.5 205 L 440 206 Q 441.25 211.288 438 210.5 L 438 215 L 434 215 Q 432.875 211.667 437 213 L 437 206 L 433.5 205 L 431.5 205 L 426 205.5 L 427.5 208 L 425 208 L 424.5 210 L 420 210 Q 421.2 206.333 416 208 L 415.5 210 L 415 208 Q 412.333 206.875 413 209.5 L 412 209.5 Q 412.667 206.875 410 208 L 410 205.5 L 409 203 L 407 203 L 407 199 L 405.5 199 L 405.5 198 Q 408.125 198.667 407 196 L 404 194.5 L 405 190 Q 408 191 407 188 Q 402.542 189.333 404.5 186 Z  M 508.5 186 L 520 186.5 L 508.5 187 L 508.5 186 Z  M 333.5 187 L 337 187.5 L 335 188 Q 336.125 190.667 333.5 190 L 333.5 187 Z  M 338.5 188 Q 342.875 186.5 342 189.5 L 342.5 191 Q 338.5 190.5 338.5 188 Z  M 247.5 189 L 248 192.5 L 247 192.5 L 247.5 189 Z  M 358.5 190 L 359 209.5 L 358 209.5 L 358.5 190 Z  M 392.5 190 L 391 192.5 L 390.5 197 L 390 192.5 L 392.5 190 Z  M 618.5 191 L 619 192.5 L 617 193.5 L 618.5 191 Z  M 341.5 192 L 342 194.5 L 340.5 199 L 340 195.5 L 341.5 192 Z  M 305.5 195 L 306 198.5 L 305 198.5 L 305.5 195 Z  M 222.5 196 L 223 197.5 L 221.5 201 L 221 198.5 L 222.5 196 Z  M 281.5 196 L 282 198.5 L 280.5 203 L 280 199.5 L 281.5 196 Z  M 402.5 197 L 405 203.5 L 404 203.5 L 402.5 197 Z  M 185.5 201 Q 188.875 200.1 187 205.5 L 186 205.5 L 185.5 201 Z  M 245.5 205 L 247 211.5 L 245.5 214 L 245.5 205 Z  M 304.5 206 L 306 225.5 L 305 225.5 L 304 222.5 L 304.5 206 Z  M 466.5 208 L 464.5 211 L 460.5 213 L 461.5 211 L 466.5 208 Z  M 387.5 210 L 388 213.5 L 387 213.5 L 387.5 210 Z  M 408.5 210 L 410 212.5 L 409 212.5 L 408.5 210 Z  M 359.5 211 L 360 219.5 L 359 219.5 L 359.5 211 Z  M 336.5 212 L 337 214.5 L 336 221 L 334 220.5 L 336.5 212 Z  M 245.5 215 L 246 225.5 L 245 225.5 L 245.5 215 Z  M 276.5 216 L 277 220.5 L 275.5 227 Q 272.75 225.75 275 224.5 L 276.5 216 Z  M 367.5 217 L 373 218 L 373 222 Q 376 220.75 375 224.5 L 379.5 228 L 381.5 228 Q 386.313 226.333 385 230.5 L 386 230.5 L 386 221.5 L 385 220.5 L 386.5 218 L 387 231.5 Q 384.75 232.75 386 237.5 L 387 238.5 L 387 253 L 385 252.5 Q 387.25 251.25 386 246.5 L 384.5 247 L 383 247 L 383 251 Q 379.25 249.5 380 252.5 L 377.5 251 L 375 251 L 375 248 L 372 248 L 372 245 Q 369.333 246.125 370 243.5 L 369 240 L 366.5 241 L 367 239.5 Q 368.5 234.25 364 236 L 365 242.5 L 364 242.5 L 363 236.5 L 363.5 235 Q 361.25 235.75 362 233.5 L 363 231 Q 360.333 232.125 361 229.5 L 362.5 230 Q 365.5 230.5 364 223.5 L 365 218 L 367.5 217 Z M 383 232 L 383 240 L 385 240 L 385 233 L 383 232 Z  M 440.5 217 L 443 218.5 L 441.5 219 L 440.5 217 Z  M 420.5 219 L 428.5 220 L 430.5 219 L 430.5 220 L 428.5 221 L 417.5 221 L 417.5 220 L 420.5 219 Z  M 216.5 220 L 217 224.5 L 216 224.5 L 216.5 220 Z  M 215.5 226 L 216 232 Q 213.333 233.125 214 230.5 L 215.5 226 Z  M 186.5 228 L 187 231.5 L 186 231.5 L 186.5 228 Z  M 274.5 231 L 275 235 Q 272 236.25 273 232.5 L 274.5 231 Z  M 305.5 231 L 306 234.5 L 305 234.5 L 305.5 231 Z  M 333.5 231 L 334 235.5 L 333 235.5 L 333.5 231 Z  M 246.5 233 L 247 236.5 L 246 236.5 L 246.5 233 Z  M 214.5 239 L 215 243.5 L 214 243.5 L 214.5 239 Z  M 248.5 239 L 248 240.5 L 247.5 243 L 247 240.5 L 248.5 239 Z  M 273.5 241 L 274 262.5 L 273 262.5 L 273.5 241 Z  M 188.5 242 L 190 244.5 L 189 246.5 L 190 251.5 L 189 251.5 L 188.5 242 Z  M 332.5 242 L 333 262.5 L 332 262.5 L 332.5 242 Z  M 694.5 242 L 700 249.5 L 696 246.5 L 694.5 242 Z  M 248.5 245 L 249 249.5 L 248 249.5 L 248.5 245 Z  M 308.5 249 L 310 256.5 L 309 256.5 L 308.5 249 Z  M 368.5 252 L 370 255.5 L 369 255.5 L 368.5 252 Z  M 675.5 254 L 678 254.5 L 676 255.5 L 676.5 257 L 673 255.5 L 675.5 254 Z  M 703.5 255 Q 712.333 267.167 727 273.5 L 725.5 274 L 714.5 267 L 712.5 268 L 712 265.5 L 703.5 255 Z  M 387.5 256 L 388 265.5 L 387 265.5 L 387 260.5 Q 384.25 261.146 385 258 Q 387.75 259 387.5 256 Z  M 371.5 259 L 374 262.5 L 372 261.5 L 371.5 259 Z  M 676.5 260 L 678 262.5 L 677 262.5 L 676.5 260 Z  M 214.5 263 L 215 267.5 L 214 267.5 L 214.5 263 Z  M 386.5 267 L 387 268.5 L 381.5 271 L 381.5 270 L 386 269 L 386.5 267 Z  M 680.5 268 L 686 275.5 L 684 274.5 L 680.5 268 Z  M 333.5 269 L 334 273.5 L 333 273.5 L 333.5 269 Z  M 654.5 273 L 657 277.5 L 656 277.5 L 654.5 273 Z  M 197.5 274 L 200 279.5 L 199 279.5 L 197.5 274 Z  M 215.5 275 L 216 284.5 L 215 284.5 L 215.5 275 Z  M 257.5 275 L 260 279.5 L 259 279.5 L 257.5 275 Z  M 333.5 277 Q 335.75 277.75 335 281.5 L 333 280.5 L 333.5 277 Z  M 318.5 278 L 320 280.5 L 319 280.5 L 318.5 278 Z  M 658.5 281 L 662 286.5 L 660 285.5 L 658.5 281 Z  M 201.5 282 L 204.5 283 L 206 282.5 L 204 285.5 L 206.5 289 L 201.5 282 Z  M 263.5 284 L 266 287.5 L 263 285.5 L 263.5 284 Z  M 273 285 L 275 285.5 L 273.5 288 L 273 285 Z  M 333.5 285 L 330.5 289 L 329 288.5 L 333.5 285 Z  M 636.5 285 Q 639.5 284.125 638 288.5 L 637 288.5 L 636.5 285 Z  M 699.5 289 L 704 292.5 L 701.5 291 L 699.5 289 Z  M 665.5 292 L 673.5 302 L 677 304.5 L 674.5 303 L 670 299.5 L 665 293.5 L 665.5 292 Z  M 610.5 297 L 612 297.5 L 608.5 299 L 608.5 298 L 610.5 297 Z  M 604.5 298 L 607 299.5 L 604 300 L 604.5 298 Z  M 641.5 299 L 645 305.5 L 644 305.5 L 641.5 299 Z  M 545.5 300 L 548 300.5 L 543.5 303 L 545.5 300 Z  M 600.5 301 L 601 302.5 L 600 307.5 L 601 309.5 L 600 311.5 L 601 314.5 L 599.5 317 L 599 302.5 L 600.5 301 Z  M 561.5 302 L 563 302.5 L 560.5 304 L 561.5 302 Z  M 619.5 302 L 620 304 L 617 303.5 L 619.5 302 Z  M 559.5 305 L 560 306.5 L 557.5 311 L 557 309.5 L 559.5 305 Z  M 678.5 306 Q 679.917 310.083 685 310.5 L 682.5 311 L 678 308 L 678.5 306 Z  M 645.5 307 L 648 308 L 649 311.5 L 647 310.5 L 645.5 307 Z  M 538.5 311 L 538 312.5 L 537.5 314 L 537 312.5 L 538.5 311 Z  M 621.5 311 L 624 318.5 L 622 317.5 L 621.5 311 Z  M 577.5 313 L 578 317.5 L 577 317.5 L 577.5 313 Z  M 625.5 322 L 627 325.5 L 626 325.5 L 625.5 322 Z  M 534.5 324 L 535 333.5 L 534 333.5 L 534.5 324 Z  M 553.5 326 L 554 338.5 L 553 338.5 L 553.5 326 Z  M 627.5 327 L 630 330.5 L 628 331.5 L 628 329.5 L 627.5 327 Z  M 577.5 330 L 578 333.5 L 577 333.5 L 577.5 330 Z  M 630.5 332 L 633 335.5 L 631 334.5 L 630.5 332 Z  M 615.5 338 L 618 339.5 L 616.5 340 L 615.5 338 Z  M 533.5 370 L 533 371.5 L 531.5 374 L 532 372.5 L 533.5 370 Z  M 385.5 375 L 386 378.5 L 385 378.5 L 385.5 375 Z  M 524.5 384 L 524 385.5 L 520.5 390 L 523 386.5 L 524.5 384 Z  M 139.5 386 L 143 387.5 L 141.5 388 L 139.5 386 Z  M 148.5 391 L 151 392.5 L 149.5 393 L 148.5 391 Z  M 519.5 391 L 515 396.5 L 510.5 402 L 514 397.5 L 519.5 391 Z  M 547.5 391 L 549 391.5 L 546.5 393 L 547.5 391 Z  M 133.5 394 L 135 397.5 L 134 397.5 L 133.5 394 Z  M 155.5 395 L 160 397.5 L 158.5 398 L 155 397 L 155.5 395 Z  M 539.5 398 L 537.5 401 L 535.5 402 L 536.5 400 L 539.5 398 Z  M 165.5 400 L 169 401.5 L 167.5 402 L 165.5 400 Z  M 434.5 401 L 438 401.5 L 434.5 402 L 434.5 401 Z  M 427.5 402 L 432 402.5 L 427.5 403 L 427.5 402 Z  M 417.5 403 L 421 403.5 L 417.5 404 L 417.5 403 Z  M 509.5 403 Q 509.313 407.688 512.5 409 L 521 409.5 L 512.5 410 Q 507.563 408.563 509.5 403 Z  M 554.5 403 L 554 404.5 L 552.5 407 L 553 405.5 L 554.5 403 Z  M 530.5 404 L 529.5 406 L 526.5 407 L 526.5 406 L 530.5 404 Z  M 140.5 406 L 150 414 L 151 416.5 L 140.5 406 Z  M 182.5 406 L 192 407.5 L 185.5 408 L 182.5 407 L 182.5 406 Z  M 248.5 406 L 249 407.5 L 247.5 412 L 247 408.5 L 248.5 406 Z  M 298.5 406 L 302 406.5 L 298.5 407 L 298.5 406 Z  M 406.5 412 L 412 416.5 L 410.5 416 L 406.5 412 Z  M 248.5 413 L 251.5 415 L 254 416.5 L 252.5 417 L 248.5 413 Z  M 287.5 414 L 291 414.5 L 287.5 415 L 287.5 414 Z  M 112.5 415 L 117 417.5 L 115.5 418 L 112.5 415 Z  M 278.5 416 L 282 416.5 L 278.5 417 L 278.5 416 Z  M 256.5 417 L 260 417.5 L 256.5 418 L 256.5 417 Z  M 270.5 417 L 275 417.5 L 270.5 418 L 270.5 417 Z  M 153.5 418 Q 155.75 417.25 155 419.5 L 155.5 421 L 153.5 418 Z  M 121.5 420 L 126 422.5 L 124.5 423 L 121.5 420 Z  M 157.5 421 Q 158.583 423.75 162 423 L 161.5 425 L 157.5 421 Z  M 433.5 422 L 438 422.5 L 433.5 423 L 433.5 422 Z  M 131.5 425 L 134 426.5 L 132.5 427 L 131.5 425 Z  M 288.5 425 L 286.5 428 L 284.5 429 L 285.5 427 L 288.5 425 Z  M 559.5 428 L 558.5 430 L 556.5 431 L 557.5 429 L 559.5 428 Z  M 143.5 430 L 142.5 432 L 141 431.5 L 143.5 430 Z  M 280.5 430 L 279.5 432 L 275.5 434 L 276.5 432 L 280.5 430 Z  M 272.5 434 L 274 434.5 L 268.5 437 L 268.5 436 L 272.5 434 Z  M 111.5 435 L 117 439.5 L 120 443.5 L 111.5 435 Z  M 539.5 435 L 545 435.5 L 539.5 436 L 539.5 435 Z  M 434.5 437 L 438 437.5 L 434.5 438 L 434.5 437 Z  M 263.5 438 L 262.5 440 L 261 439.5 L 263.5 438 Z  M 415.5 440 L 419 440.5 L 415.5 441 L 415.5 440 Z  M 121.5 444 Q 122.583 446.75 126 446 L 127 448.5 L 124.5 447 L 121.5 444 Z  M 76.5 448 L 77 451.5 L 76 451.5 L 76.5 448 Z  M 257.5 450 L 260 451.5 L 258.5 452 L 257.5 450 Z  M 287.5 450 L 291 450.5 L 283.5 452 L 283.5 451 L 287.5 450 Z  M 267.5 453 L 275 453.5 L 267.5 454 L 267.5 453 Z  M 442.5 460 L 443 464.5 L 442 464.5 L 442.5 460 Z  M 122.5 473 L 123 480.5 L 122 480.5 L 122.5 473 Z  M 427.5 505 L 436 505.5 L 427.5 506 L 427.5 505 Z"/><path fill="rgb(126,125,124)" stroke="rgb(126,125,124)" stroke-width="1.2" stroke-linejoin="round" stroke-linecap="round" paint-order="stroke fill" id="grouped-path-2" d="M 450.5 46 L 455 46.5 Q 450.4 45.9 449 48.5 Q 446.25 52.75 446.5 60 L 446 53.5 L 450.5 46 Z  M 462.5 50 L 466 52.5 L 464.5 52 L 462.5 50 Z  M 445.5 63 L 446 87.5 L 445 87.5 L 445.5 63 Z  M 534.5 68 L 539 70.5 L 536.5 71 L 534.5 68 Z  M 435.5 77 L 436 82.5 L 435 82.5 L 435.5 77 Z  M 548.5 86 L 550 88.5 L 549 88.5 L 548.5 86 Z  M 435.5 87 L 437 90.5 L 435.5 95 L 435.5 87 Z  M 446.5 90 L 447 94.5 L 446 94.5 L 446.5 90 Z  M 475.5 93 L 471.5 98 L 462.5 105 L 464.5 102 L 475.5 93 Z  M 585.5 99 L 586.5 101 L 584 100.5 L 585.5 99 Z  M 450.5 105 L 454 107.5 L 451 108 L 450.5 105 Z  M 460.5 105 L 458.5 108 L 455.5 109 L 456.5 107 L 460.5 105 Z  M 430.5 116 L 431 119.5 L 430 119.5 L 430.5 116 Z  M 595.5 117 L 597 120.5 L 595 119.5 L 595.5 117 Z  M 412.5 125 L 413 126.5 L 411 127.5 L 412.5 125 Z  M 573.5 150 L 575 152.5 L 574 152.5 L 573.5 150 Z  M 605.5 152 L 606 155.5 L 605 155.5 L 605.5 152 Z  M 606.5 159 L 610.5 164 Q 608.25 164.75 609 162.5 L 606.5 159 Z  M 554.5 167 L 556 169.5 L 554 168.5 L 554.5 167 Z  M 601.5 168 L 601 169.5 L 600.5 173 L 600 169.5 L 601.5 168 Z  M 437.5 178 L 456 178.5 L 437.5 179 L 437.5 178 Z  M 512.5 180 L 518 180.5 L 512.5 181 L 512.5 180 Z  M 245.5 182 L 248 183.5 L 247.5 185 L 247 183 L 245.5 182 Z  M 301.5 183 L 306 183.5 L 301.5 184 L 301.5 183 Z  M 539.5 186 L 540 187.5 L 538 188.5 L 539.5 186 Z  M 355.5 189 L 358 190.5 L 357.5 193 L 357 190 L 355.5 189 Z  M 462.5 194 L 467 194.5 L 462.5 195 L 462.5 194 Z  M 527.5 194 L 533 194.5 L 527.5 195 L 527.5 194 Z  M 185.5 202 L 186 207.5 L 185 207.5 Q 186.5 203.125 183.5 204 L 183.5 203 L 185.5 202 Z  M 357.5 203 L 358 209.5 L 357 209.5 L 357.5 203 Z  M 389.5 204 L 390 207.5 L 389 207.5 L 389.5 204 Z  M 597.5 209 L 602 209.5 L 597.5 210 L 597.5 209 Z  M 303.5 212 L 304 218.5 L 303 218.5 L 303.5 212 Z  M 388.5 212 L 389 216.5 L 388 216.5 L 388.5 212 Z  M 462.5 212 L 461.5 214 L 460 213.5 L 462.5 212 Z  M 244.5 213 L 245 219.5 L 244 219.5 L 244.5 213 Z  M 419.5 221 L 429 221.5 L 419.5 222 L 419.5 221 Z  M 387.5 224 L 388 231.5 L 387 231.5 L 387.5 224 Z  M 159.5 225 L 160 226.5 L 156 229.5 L 159.5 225 Z  M 185.5 226 L 186 230.5 L 185 230.5 L 185.5 226 Z  M 245.5 232 L 246 236.5 L 245 236.5 L 245.5 232 Z  M 709.5 232 L 717 232.5 L 709.5 233 L 709.5 232 Z  M 305.5 238 L 306 242.5 L 305 242.5 L 305.5 238 Z  M 387.5 238 L 388 244.5 L 387 244.5 L 387.5 238 Z  M 274.5 240 L 275 246.5 L 274 246.5 L 274.5 240 Z  M 734.5 247 L 736 250.5 L 735 250.5 L 734.5 247 Z  M 333.5 248 L 334 255.5 L 333 255.5 L 333.5 248 Z  M 388.5 252 L 389 257.5 L 388 257.5 L 388.5 252 Z  M 274.5 259 L 275 263.5 L 274 263.5 L 274.5 259 Z  M 535.5 262 L 536 273.5 L 535 273.5 L 535.5 262 Z  M 139.5 265 L 139 266.5 L 138.5 268 L 138 266.5 L 139.5 265 Z  M 334.5 285 L 335 286.5 L 333 287.5 L 334.5 285 Z  M 635.5 286 L 637 289.5 L 636 289.5 L 635.5 286 Z  M 640.5 299 L 642 301.5 L 640 300.5 L 640.5 299 Z  M 598.5 304 L 599 313.5 L 598 313.5 L 598.5 304 Z  M 578.5 315 L 579 322.5 L 578 322.5 L 578.5 315 Z  M 129.5 323 L 130 327.5 L 129 327.5 L 129.5 323 Z  M 654.5 326 L 656 326.5 L 651.5 329 L 651 327 L 654.5 326 Z  M 578.5 327 L 579 331.5 L 578 331.5 L 578.5 327 Z  M 582.5 343 L 590 343.5 L 582.5 344 L 582.5 343 Z  M 119.5 358 L 120 359.5 L 118 360.5 L 119.5 358 Z  M 463.5 359 Q 467.25 358.25 468 360.5 L 466.5 360 Q 462.5 360.75 463.5 359 Z  M 155.5 394 L 158 395.5 L 156.5 395 L 155.5 394 Z  M 308.5 406 L 312 406.5 L 308.5 407 L 308.5 406 Z  M 321.5 406 L 325 406.5 L 321.5 407 L 321.5 406 Z  M 386.5 412 L 387 415.5 L 386 415.5 L 386.5 412 Z  M 101.5 416 L 102 420.5 L 101 420.5 L 101.5 416 Z  M 425.5 422 L 429 422.5 L 425.5 423 L 425.5 422 Z  M 79.5 423 L 80 426.5 L 79 426.5 L 79.5 423 Z  M 437.5 423 L 444 423.5 L 436.5 425 L 437.5 423 Z  M 413.5 439 L 418 439.5 L 413.5 440 L 413.5 439 Z  M 77.5 440 L 78 443.5 L 77 443.5 L 77.5 440 Z  M 389.5 440 L 390 444.5 L 389 444.5 L 389.5 440 Z  M 79.5 468 L 80 471.5 L 79 471.5 L 79.5 468 Z  M 121.5 468 L 122 472.5 L 121 472.5 L 121.5 468 Z  M 84.5 484 Q 87.125 483.167 86 486.5 L 85 486.5 L 84.5 484 Z  M 424.5 504 L 428 504.5 L 424.5 505 L 424.5 504 Z  M 435.5 504 L 439 504.5 L 435.5 505 L 435.5 504 Z"/><path fill="rgb(130,130,130)" stroke="rgb(130,130,130)" stroke-width="1.2" stroke-linejoin="round" stroke-linecap="round" paint-order="stroke fill" id="grouped-path-3" d="M 445.5 33 L 449 34.5 L 446 35 L 447.5 38 Q 451.25 37 450 40 L 453 40 L 455.5 36 Q 457.5 39.167 462 39 L 463 42.5 L 460 43 L 459 46.5 L 462 48.5 L 461.5 50 L 458 48 L 458 45 L 450 45 Q 451.2 48.667 446 47 L 445.5 43 L 445 50 Q 448 48.75 447 52.5 L 444.5 58 L 443 57.5 L 443 49.5 L 443 47.5 L 442 41.5 L 443 38 L 445 37.5 L 444 36.5 Q 447.083 34.75 445.5 33 Z  M 478.5 50 L 484 54.5 L 481.5 55 Q 477.125 56.5 478 53.5 L 477.5 52 L 479 51.5 L 478.5 50 Z  M 439.5 51 L 440 53 Q 443.667 51.65 442 57.5 L 440 56.5 L 439.5 51 Z  M 473 55 L 477 57 L 477 59.5 L 477.5 61 L 473 57.5 L 473 55 Z  M 440.5 62 Q 443.125 61.167 442 64.5 L 443 64.5 Q 441.75 60.75 445.5 62 L 445.5 63 Q 443.25 62.25 444 64.5 L 445 65.5 L 445 72 L 442 73.5 L 442 78 L 445 78.5 L 445 87.5 L 446 92.5 L 445 93.5 L 445 103 Q 448.333 104.313 447 99.5 L 448 99.5 Q 446.125 104.9 449.5 104 L 449.5 105 L 445 105 Q 445.75 101.854 443 102.5 L 443 97 L 440.5 97 L 437 98 Q 435.75 95 439.5 96 L 439.5 95 L 436 93.5 L 437 89.5 L 435 86.5 L 436 84.5 L 436 82.5 Q 434.125 77.1 437.5 78 L 437.5 77 L 436 76.5 L 438 71 L 436 70.5 L 438 64.5 L 440.5 62 Z  M 485 63 L 492.5 63 L 495 65.5 L 493 68.5 L 495 69 Q 493.2 73.875 499.5 72 Q 501.05 76.25 507 75 L 507.5 77 L 509.5 77 L 514 78.5 L 513 80.5 L 515.5 83 Q 521.75 81.75 523 85.5 L 523.5 88 L 525.5 87 L 525 88.5 Q 523.5 92.875 526.5 92 L 528 95 L 533.5 95 L 534 96.5 Q 537.083 98.25 535.5 100 L 537 100 L 537 105 L 539.5 105 L 542 105.5 L 544.5 110 L 546 109.5 L 545 112 L 547.5 111 L 551.5 111 L 554 108.5 L 555 102.5 L 554 98.5 L 554.5 97 L 553 96.5 L 553 94.5 L 551 91.5 L 552 89.5 L 550 89.5 L 548 85.5 L 550 85 Q 548.65 88.667 554.5 87 L 556.5 87 L 560 89.5 L 559 91.5 L 564.5 97 Q 565.75 94.75 567 97.5 L 570 102.5 L 568.5 105 Q 571.5 104.25 570 108 L 574.5 108 L 577 109 Q 575.875 111.667 578.5 111 L 580 111.5 L 582.5 108 L 586.5 107 L 588 110 L 591.5 109 L 593 111.5 L 590 113 L 590 117 L 591.5 117 L 595 119 Q 593.875 121.667 596.5 121 L 595 123.5 Q 593.75 129.488 597 128.5 L 597 134.5 L 598 138 L 602 139.5 L 604 145.5 L 602 145.5 L 601 150.5 Q 603.857 154.143 603 161.5 Q 600.75 162.75 602 167.5 L 599.5 170 L 598 170 L 598 175 L 604 178.5 L 602 182 L 607.5 181 Q 611.167 183 609.5 185 L 611 185.5 L 610.5 187 Q 616.35 184.917 615 189.5 L 615.5 191 Q 612.875 190.333 614 193 L 610.5 193 L 612 195.5 L 610 197.5 L 609.5 199 L 603 198 Q 604.25 201 600.5 200 L 598.5 200 L 595 200 Q 596.25 197 592.5 198 L 590.5 197 Q 588.75 199.75 587 195.5 L 588.5 196 L 590 195.5 Q 588.25 191.25 586.5 194 L 585 193.5 L 587 192.5 L 583.5 191 L 579 200.5 L 580 200.5 L 580.5 199 L 582 205 L 586 207 L 586.5 205 L 588.5 208 Q 586.25 207.25 587 209.5 L 589.5 212 Q 595.75 210.25 597.5 213 L 602 211.5 L 600 210.5 L 602.5 209 L 604.5 210 L 607.5 209 L 610 210 L 611 213.5 L 609.5 213 Q 607.25 213.75 608 211.5 L 607 211.5 Q 607.667 214.125 605 213 L 605 215 L 607 215.5 L 605.5 218 Q 608.125 217.333 607 220 Q 604 218.75 605 222.5 L 603.5 222 L 601 223.5 L 602 225.5 L 598.5 230 L 593 232.5 L 595 233.5 L 591 235.5 L 587.5 240 L 583.5 242 L 581.5 242 L 576 243.5 L 576 245.5 L 575.5 247 L 575 245 L 570 245 Q 571.125 247.667 568.5 247 L 565.5 250 L 558 251 Q 559.125 253.667 556.5 253 L 556.5 254 L 558 254.5 L 556.5 255 Q 554.607 251.25 548 253 Q 550.75 260.5 542.5 258 L 538.5 257 L 534.5 263 Q 531.875 262.167 533 265.5 Q 536.5 267 534 268.5 L 535 270.5 Q 531.5 272 533 278.5 L 535 278.5 L 532 280 L 532 283 Q 529 282 530 285 L 532 285.5 L 531 289.5 L 533 292.5 L 531 293.5 L 530.5 292 L 530 295 Q 526.667 293.875 528 298 L 531 299.5 L 530.5 301 L 528 300 Q 529.5 303.75 526.5 303 L 526.5 304 L 529 305.5 L 528.5 307 L 525 306.5 Q 523.5 313.5 526.5 313 L 526 314.5 L 524 317.5 L 524 319.5 L 523 323 L 518 323 L 518 325.5 Q 515.75 326.75 518.5 328 L 520.5 327 L 519 329.5 L 518 333 L 516 333.5 L 516.5 335 Q 513.875 334.167 515 337.5 L 514 337.5 L 513.5 336 L 512 339.5 L 513 341.5 L 510 343.5 L 510.5 345 L 505 347.5 Q 509.25 349.75 504.5 352 L 502.5 351 L 500 355.5 L 503 354.5 L 497 358.5 Q 497.75 360.75 495.5 360 L 495.5 362 L 493.5 361 L 491 362.5 L 494 363.5 L 489 366 Q 490.125 368.667 487.5 368 L 487.5 366 L 485 366 L 485 371 L 482.5 371 L 480.5 370 L 476 373.5 L 479 374.5 L 473.5 377 L 468 375 L 470 368.5 L 468.5 369 L 467 368.5 L 470 361.5 L 468 361.5 L 467 359.5 L 469 358.5 L 465.5 358 Q 464.25 360.25 463 357.5 L 462.5 356 L 462 358 Q 456 356 458 362 L 460.5 361 L 459.5 363 L 458 363.5 L 460 364 L 459.5 366 L 458 365.5 L 459 367.5 L 455 370.5 L 456 375.5 L 452 378 L 452.5 382 L 454 381.5 L 453 385 Q 448.125 383.2 450 389.5 L 451 391.5 L 449.5 396 L 448.5 393 L 448 395 L 444 396.5 Q 446.25 397.75 443.5 399 L 436.5 398 L 436.5 399 L 439 399.5 L 436.5 400 L 434.5 400 L 432.5 401 L 430.5 400 L 427.5 402 L 424.5 401 L 420.5 401 L 416.5 402 L 415.5 401 L 408 401 L 408 403.5 L 404 409.5 L 404 411.5 L 408 415.5 L 409.5 418 L 411 417.5 L 410.5 419 L 414.5 420 L 416.5 420 L 419.5 422 L 421.5 422 L 425 422 Q 423.875 424.667 426.5 424 L 428 423.5 Q 426.875 426.833 429.5 426 L 432.5 424 L 435 425 Q 433.875 422.333 436.5 423 L 436.5 425 L 444 424 Q 442.125 426.687 443 433.5 L 441.5 435 L 438.5 436 L 436 434.5 Q 436.875 437.5 432.5 436 Q 431 439.5 429.5 437 L 424.5 439 L 421.5 438 L 411.5 440 L 411.5 438 Q 409.25 437.25 410 439.5 Q 408.75 442.25 407.5 440 L 406 440.5 L 406.5 442 L 405 441.5 Q 405.75 445.75 403 446.5 L 405 447.5 L 404 449.5 L 406 449.5 L 407.5 452 L 423.5 460 L 427.5 460 L 431.5 459 Q 434.467 461.833 440 461 L 444 477 L 446 477.5 L 445 480 L 449 478 L 448 480.5 L 452 483.5 L 454 488.5 L 454 493.5 L 447.5 502 L 441.5 504 L 439.5 504 L 430.5 503 L 428 504.5 L 428.5 503 Q 425.992 499.8 420 501 Q 418.75 504 422.5 503 L 422.5 504 L 416 501.5 L 418 500.5 L 415 500 L 415 496 L 413.5 496 L 412 493 L 409.5 492 L 408 492.5 Q 408.75 490.25 406.5 491 Q 405.25 493.25 404 490.5 L 403 485 L 400 483.5 L 402 483.5 Q 403.125 480.167 400.5 481 L 399 481.5 L 398 479.5 L 400 478.5 L 396 475.5 L 397 473.5 L 396 471.5 L 397 469.5 L 394 468.5 L 394.5 467 L 395.5 469 L 397 465 L 395 465 Q 396.667 459.8 393 461 L 393 455.5 L 391 449.5 L 391.5 448 L 390 447.5 L 390 440.5 L 389 437.5 L 390 435.5 L 388 432.5 L 390 429.5 L 390 427.5 L 389 424.5 L 390 421 Q 386.667 422.313 388 417.5 L 388 415.5 L 387 413.5 L 387 398.5 L 386 396.5 L 386 392.5 L 386.5 389 L 388 389.5 L 386 381.5 L 389 375.5 L 390 368.5 L 387 365.5 L 388 364.5 Q 389 359 385.5 358 L 382.5 357 L 378.5 361 L 377.5 360 Q 375.25 359.25 376 361.5 L 377 364 L 379 364.5 Q 376.167 367.167 377 373.5 L 378 375.5 L 375.5 380 L 366.5 382 L 364.5 381 Q 362.5 384 356.5 383 L 352 381 Q 350.75 384 354.5 383 L 354.5 384 L 348.5 383 Q 347.25 385.25 342.5 384 L 338.5 383 L 334.5 385 L 310.5 385 L 309.5 384 L 295.5 383 L 292.5 384 L 280 382 Q 281.125 379.333 278.5 380 L 273.5 381 L 272.5 380 L 259.5 379 L 239.5 373 L 237.5 374 L 232 372.5 L 235 371.5 Q 229.625 372.375 228 369.5 L 227.5 368 L 224 369 L 221.5 374 L 222 372.5 L 221.5 371 L 218 373 L 219 377.5 Q 216.75 382.25 214.5 378 L 213 378.5 L 213.5 384 L 210 383 L 210.5 387 L 212 386.5 L 205 392.5 L 205.5 394 L 202.5 396 L 200.5 396 L 198 397.5 L 198.5 401 L 193.5 405 L 191.5 405 L 185 403.5 L 185.5 402 L 182 401 L 183 404.5 L 182 404.5 L 181.5 403 L 178.5 404 L 174 402.5 L 174.5 401 L 170 400.5 L 172 399.5 Q 171.25 397.25 167.5 398 L 167.5 400 L 161 395.5 Q 161.75 393.25 159.5 394 L 156.5 393 L 154.5 393 L 153 392.5 Q 155.25 391.25 152.5 390 L 149.5 391 Q 151.083 389.25 148 387.5 L 147.5 386 L 145.5 389 L 142.5 385 L 140.5 385 L 136.5 384 L 131.5 387 L 130 386.5 Q 129 391.5 132 392.5 L 131 394.5 L 132.5 397 L 131 397.5 L 135 399.5 L 134.5 401 Q 136.75 400.25 136 402.5 L 135 405 L 137.5 404 L 137.5 406 L 148 415.5 L 146.5 418 L 148.5 419 L 150 418.5 L 148.5 421 L 152.5 423 L 154.5 422 L 160 424 L 158.5 427 L 155.5 428 L 154.5 426 L 154 429 L 145 430 L 144.5 426 L 141.5 428 L 138.5 427 L 136 425.5 L 137 423 L 129 422.5 L 129.5 421 L 123.5 419 L 122 419.5 Q 122.875 416.5 118.5 418 L 115 413 L 109.5 412 Q 108 414.5 106.5 411 L 105 411.5 L 105.5 413 L 102.5 411 L 103.5 414 Q 101.25 413.25 102 415.5 L 101 420.5 L 102 423.5 L 107 431.5 L 107 434.5 L 109.5 437 L 111 436.5 Q 108.75 437.75 111.5 439 L 122 446.5 L 120.5 446 L 119 446.5 L 122.5 450 L 123.5 449 Q 125.75 448.25 125 450.5 L 125 452.5 L 123 457.5 L 124 458.5 L 121 463.5 L 122 468 Q 116.8 466.333 118 470 L 121 471.5 L 122 477.5 L 122 479.5 L 120 483.5 L 121 486.5 L 120 490.5 L 112.5 499 L 110.5 500 L 107.5 499 L 104.5 500 L 103 499.5 L 105 498.5 L 101.5 498 L 97.5 498 L 94 497 L 94 495 Q 91.333 496.125 92 493.5 L 90 493.5 L 88 490.5 L 90 490.5 L 90 488 Q 87.333 489.125 88 486.5 L 86 486.5 L 86 484 Q 83.333 485.125 84 482.5 L 82 479.5 L 83 477.5 L 81 477.5 L 83 473.5 L 81.5 470 L 80 470.5 L 78 463.5 L 78 461.5 L 77 455.5 L 78 454.5 L 78 445.5 L 78 443.5 Q 77 437.5 80 435.5 L 78 434.5 L 79 433.5 L 79 427 L 82 425.5 L 83 418.5 L 81 414.5 L 83 414 L 82 411.5 L 85 410 L 84 406.5 L 86.5 401 L 87.5 403 L 89 400.5 L 88.5 399 L 91 400 Q 92.125 397.333 89.5 398 L 93.5 393 L 96 391.5 L 99.5 387 Q 101.75 387.75 101 385.5 L 102.5 383 L 104 383.5 Q 103.5 378.5 107.5 378 L 109.5 379 L 109.5 375 L 112 376 L 111 372.5 L 113.5 369 L 117 370 L 116 367.5 L 116.5 365 L 120 365 Q 119 362 122 363 L 122 360.5 L 120.5 361 L 119 360.5 L 121 359.5 Q 118.5 358 122 356.5 L 123 354.5 L 123 352.5 L 125 348.5 L 124.5 347 L 126 347.5 L 125 344.5 L 126 344.5 L 126.5 346 L 128 341.5 L 127 341.5 L 126.5 343 L 126 340 L 128 340 Q 126.333 334.8 130 336 L 130 330.5 L 129 328.5 L 131 325.5 Q 128.75 324.25 130 319.5 Q 133.5 318 131 316.5 L 132 314.5 L 130 310.5 L 131.5 309 L 133 309.5 L 132 304.5 L 134 301.5 L 132 301 L 133 294.5 L 132.5 293 Q 136.667 294.313 135 289.5 L 137 285.5 L 136.5 284 L 139 283.5 L 136.5 282 L 134.5 285 L 134 283.5 L 137 277.5 L 136 275.5 L 136.5 273 L 138 273.5 Q 137 267.5 140 265.5 Q 137.75 264.25 140.5 263 Q 144.667 264.125 143 260 Q 140.333 261.125 141 258.5 L 142 256 Q 144.667 257.125 144 254.5 L 143.5 253 Q 145.75 253.75 145 251.5 L 145 249.5 L 148 246.5 L 149 244.5 L 149 242.5 L 150.5 240 L 152 239.5 L 151.5 238 L 153 237.5 Q 150.75 236.25 153.5 235 Q 155.75 234.25 155 236.5 L 157 235.5 Q 158.5 231.125 155.5 232 L 155.5 231 L 157 231 L 157 229 Q 159.667 230.125 159 227.5 L 160.5 225 L 163 226 Q 161.875 223.333 164.5 224 L 163 221.5 L 170.5 214 L 174 211.5 L 174.5 210 L 176 210.5 L 176.5 209 L 178.5 210 L 180.5 210 L 183 210 Q 182 214.25 185 213.5 L 185 229.5 L 184.5 231 L 186 231.5 L 186 239.5 L 185 242.5 L 188 247.5 L 187 249.5 Q 190.5 251 188 252.5 L 189 256.5 L 188 261 Q 190.667 262.125 190 259.5 L 191 259.5 L 190 266 L 193 266.5 L 193 268.5 L 194.5 274 L 196 273.5 L 195 278 L 200 281.5 L 199.5 283 L 201 283.5 Q 198.75 284.75 201.5 286 L 206 289.5 L 206.5 291 L 207.5 290 L 210.5 293 Q 216.35 294.667 215 291 L 212 290.5 L 215 288.5 L 215.5 287 L 217.5 288 L 220 287 Q 221 284 218 285 L 218 281.5 L 216 276.5 Q 218.5 275 217 269.5 L 215 266.5 L 217 258.5 Q 214.5 257 216 251.5 L 216 249.5 L 215 247.5 L 217 243.5 L 215 239.5 L 218 226.5 L 217 224.5 L 219 221.5 L 219 219.5 L 219 214.5 L 222 208.5 L 222 206.5 L 222.5 204 Q 223.75 206.25 225 203.5 L 222 201.5 L 224 197.5 L 227 186 L 230 186 Q 228.875 189.333 233 188 L 234 185.5 L 232 184.5 L 237.5 184 L 239 184.5 L 239.5 183 L 240 185 Q 242.667 183.875 242 186.5 L 244.5 188 L 246.5 187 L 246 188.5 L 245.5 197 L 245 195 Q 241.667 193.875 243 198 Q 247 196.625 245 203.5 L 243 207.5 Q 245.75 208.25 245 212.5 Q 242.5 214 244 219.5 L 245 222.5 L 243 227.5 L 245 228 L 246 239.5 L 245 242.5 Q 248.287 245.712 248 252.5 L 247 257.5 L 250 256.5 L 248.5 259 Q 250.75 258.25 250 260.5 L 252 264.5 Q 249.5 266 253 267.5 Q 251.5 271.875 254.5 271 L 255 273.5 L 256 276.5 L 255 280 L 259 280 L 259 281.5 L 261 285.5 L 260 288 L 267 289 Q 265.75 292 269.5 291 L 272 290.5 L 272.5 289 L 274 289.5 L 275.5 287 L 277 287.5 L 276 284.5 L 277 282.5 L 277 280.5 L 278 277.5 L 276 277 L 275 273.5 Q 277.25 272.25 276 267.5 L 274 258.5 L 274 247.5 L 275 246.5 L 276 233.5 L 276 231.5 L 277 226.5 Q 274.5 225 278 223.5 L 279 218.5 L 278 215.5 Q 281.5 214 279 212.5 L 280 205.5 L 282 203.5 Q 279.5 202 283 200.5 L 285 195.5 L 284 192.5 L 286 190.5 L 287 185 Q 290.75 186.5 290 183.5 L 289.5 182 Q 292.5 181.25 291 185 L 294.5 185 L 296.5 185 L 300.5 184 L 302.5 184 L 306 185.5 L 305 187.5 L 305 189.5 Q 306.5 193.875 303.5 193 L 304 194.5 L 303 197.5 L 305 198.5 L 303 199 L 304 211.5 Q 301.5 213 303 218.5 L 304 221.5 Q 301.5 223 303 228.5 L 303 230.5 Q 302.25 232.75 304.5 232 L 304 233.5 L 303 235.5 L 305 237.5 L 306 244.5 L 306 246.5 L 307 248.5 L 306 250.5 L 308 254.5 L 309 256.5 L 309 260.5 L 308 262.5 L 311 263.5 L 310 266.5 Q 313.65 268.35 314 273.5 L 313.5 275 L 316 276.5 L 315 283 L 318.5 284 L 319.5 282 L 322.5 288 L 324 287.5 Q 321.75 288.75 324.5 290 L 326.5 290 L 330.5 291 L 332.5 288 L 334.5 289 L 335 286.5 L 336.5 282 L 338 282.5 L 338 278.5 Q 335.25 277.75 336 273.5 L 337 270 L 334.5 271 L 334 261.5 L 334 259.5 L 335 255.5 L 334 250.5 L 335 248.5 L 334 247.5 L 334 234.5 L 336 234.5 L 335 229.5 L 337 229.5 L 335 226.5 L 337 221.5 L 337 219.5 L 338 216.5 L 337.5 215 Q 340.125 215.833 339 212.5 L 339 210.5 Q 338 206 340.5 205 Q 342.75 205.75 342 203.5 L 341 201.5 L 342 199.5 L 342 197.5 L 343.5 194 L 345 193.5 L 343 192.5 L 344.5 192 L 346.5 193 L 350 192 L 349 189.5 L 352 189.5 Q 349.75 190.75 352.5 192 L 355 191.5 L 354.5 190 L 357 190.5 L 356 192.5 L 357 197.5 L 356 199.5 L 356 201.5 L 357 207.5 L 357 211.5 Q 356 217.5 359 219.5 L 358 222.5 L 361 234.5 L 360 236.5 L 362 236.5 L 360 239.5 L 362 239.5 L 363 245 L 365 245.5 L 365 247.5 L 366 249.5 L 364 249.5 L 363 253 L 365 253 L 365 255 Q 367.667 253.875 367 256.5 L 371 260.5 L 370 261.5 L 370.5 263 L 372 262.5 L 376 267.5 L 374.5 267 Q 371.5 266.25 373 270 L 377.5 269 L 377 270.5 Q 376.167 273.125 379.5 272 L 381 271.5 L 380.5 273 Q 385 274 386 271.5 L 385.5 270 L 387.5 270 Q 389.75 270.75 389 268.5 L 389 266.5 Q 387.5 259 390 255.5 L 388 250.5 L 389 248.5 L 388 247.5 L 387 232.5 L 388 231.5 L 389 220.5 L 388 217.5 L 390 212.5 L 389 208.5 L 391 201.5 L 391 199.5 L 392 196.5 L 391.5 195 L 393.5 195 Q 396.125 195.667 395 193 L 398 193 L 398 191.5 L 399 191.5 Q 402.167 196 402 203 Q 404.667 201.875 404 204.5 L 404 206.5 L 406 209.5 L 407.5 212 L 406 211.5 L 405 215 Q 408 213.75 407 217.5 L 408 220 Q 411 219 410 222 L 412.5 222 L 417.5 225 L 422 225 L 422 222 L 428.5 222 L 430.5 221 L 432.5 222 L 437.5 220 L 439.5 220 L 443.5 220 L 451.5 217 L 453.5 218 L 458.5 214 L 461.5 214 L 466.5 211 L 467.5 213 L 470 212 L 469 209.5 L 473 207.5 L 471.5 205 Q 473.75 205.75 473 203.5 L 474 201.5 L 474 199.5 L 469.5 195 L 464.5 193 Q 463.1 195.6 458.5 195 L 455.5 193 L 453.5 194 Q 452.25 191.75 447.5 193 L 445 194 L 444.5 192 L 444 194 L 441.5 195 L 441 193 L 436.5 194 L 429.5 192 L 427.5 192 L 425 190.5 L 427 190 Q 428.125 187.333 425.5 188 Q 424.25 185.75 419.5 187 L 418 185.5 L 420 185 Q 418.75 182 422.5 183 L 423.5 182 L 430 182 Q 428.875 179.333 431.5 180 Q 432.25 177.25 436.5 178 L 441.5 180 L 443.5 180 L 449.5 179 L 454.5 180 L 457.5 178 L 463 180 Q 461.5 176.25 464.5 177 L 469.5 178 L 469.5 176 Q 471.75 176.75 471 174.5 L 472.5 175 L 477 170.5 Q 476.917 164.083 472.5 162 L 468.5 160 L 467 160.5 L 467.5 159 L 462.5 158 L 460 159.5 Q 458.75 155.75 462.5 157 L 462.5 156 L 458.5 155 L 456.5 156 L 452.5 155 Q 451 158.5 449.5 156 Q 446.167 157.125 447 154.5 L 445 154.5 L 445.5 153 L 442.5 154 L 439 152.5 L 440 150 L 433.5 151 L 428 147.5 L 430 146.5 L 427 144.5 Q 427.583 141.75 421.5 143 L 417.5 143 L 414 141.5 L 415 138 Q 411.5 139.125 413 131.5 L 411 130.5 L 410.5 133 L 410 130.5 L 415 122.5 L 415 120.5 L 416.5 118 Q 421.25 118.75 422 115.5 Q 423.333 110.687 420 112 L 418.5 115 L 419 113.5 L 424.5 104 Q 429.313 102.333 428 106.5 L 429 112 Q 425.667 110.875 427 115 Q 431.125 113.333 430 117.5 L 428 123 L 430 123 Q 428.5 126.75 431.5 126 Q 433 128.5 434.5 125 L 438 125 Q 437 122 440 123 L 440 114.5 L 442 110.5 L 442.5 107 L 444.5 108 L 450.5 106 L 451 108 L 455.5 109 L 459.5 107 L 463 108 L 464 103 L 468.5 100 L 474 99.5 L 472.5 97 L 474.5 98 L 474 96.5 Q 473.167 93.875 476.5 95 L 476.5 93 L 480 92.5 L 479.5 91 Q 480.75 93.25 482 90.5 L 481.5 89 L 489 83.5 L 489.5 82 L 491 82.5 L 490 79.5 L 492 79 L 491.5 77 L 490 77.5 L 491 75 Q 488.333 76.125 489 73.5 L 485.5 69 L 487 69.5 L 488 65 Q 483.875 66.333 485 63 Z M 560 143 Q 561 146 559 145 L 555 147 Q 556 149 553 148 L 551 153 L 552 155 L 550 155 L 552 163 L 550 163 Q 548 168 552 167 L 554 167 L 556 172 L 555 173 L 560 177 L 560 175 L 564 177 L 573 177 L 574 174 L 574 172 L 576 172 Q 578 171 576 170 Q 575 167 578 168 L 578 166 L 575 167 L 576 165 L 576 162 L 578 162 L 578 157 L 579 155 L 577 156 L 575 151 L 571 146 L 568 146 L 568 143 L 560 143 Z M 509 178 L 503 181 L 497 180 L 499 184 L 498 183 L 495 188 Q 493 193 497 192 L 498 196 L 497 200 L 500 201 L 500 202 Q 497 201 498 204 L 495 205 L 495 210 L 505 210 L 505 212 L 510 212 Q 509 209 512 210 L 511 214 L 512 217 L 509 218 L 507 218 Q 504 217 505 220 L 503 220 L 503 222 L 505 222 Q 502 223 503 228 L 505 227 L 509 228 L 511 227 L 510 230 Q 514 231 513 229 L 516 227 L 517 223 L 515 223 L 520 220 Q 522 216 524 220 L 527 218 Q 525 216 529 214 L 531 215 L 531 213 L 534 212 L 537 213 L 536 212 L 538 211 L 540 211 L 540 210 L 540 208 L 542 205 Q 543 201 540 202 L 540 201 L 538 200 L 539 197 L 539 199 L 540 199 Q 541 194 538 193 Q 539 190 536 191 L 534 192 Q 536 187 538 190 L 542 188 L 542 187 Q 538 188 540 184 L 540 182 L 540 180 L 531 180 L 530 178 L 522 178 L 521 181 L 518 181 L 520 180 L 517 178 L 513 179 L 509 178 Z M 461 192 L 458 194 L 462 194 L 461 192 Z M 184 225 L 183 230 L 184 230 L 184 225 Z M 598 227 L 597 229 L 599 228 L 598 227 Z M 505 228 L 504 230 L 508 230 L 505 228 Z M 132 319 L 131 325 L 132 325 L 132 319 Z M 378 357 L 379 360 L 380 358 L 378 357 Z M 451 376 L 450 380 L 451 380 L 451 376 Z M 166 396 L 164 398 L 167 398 L 166 396 Z M 181 401 L 178 403 L 181 403 L 181 401 Z M 108 410 Q 108 414 110 411 L 108 410 Z  M 538.5 71 Q 541.125 70.167 540 73.5 L 539 73.5 L 538.5 71 Z  M 546.5 78 L 546 79.5 L 548 82.5 L 546 83 L 544 79.5 L 546.5 78 Z  M 550.5 80 L 554.5 85 Q 551.75 79.583 549 81.5 L 550.5 80 Z  M 586.5 101 L 589 104.5 L 587 105 L 586.5 101 Z  M 407.5 173 L 413 174.5 L 407 175 L 407.5 173 Z  M 403.5 182 L 405.5 185 L 406.5 183 L 409 186.5 L 404.5 185 Q 401.375 185.75 403.5 182 Z  M 413 182 Q 418.6 180.125 417 185 Q 414.333 183.875 415 186.5 L 413 185.5 L 413 182 Z  M 612.5 184 L 616 184.5 L 612.5 185 L 612.5 184 Z  M 414.5 188 L 417 189.5 L 415.5 190 L 414.5 188 Z  M 505.5 196 L 509 198.5 L 504.5 200 L 504 197.5 L 505.5 196 Z  M 527.5 201 L 531 201.5 L 527.5 202 L 527.5 201 Z  M 520.5 203 L 521 206 L 517 204.5 L 518.5 205 Q 520.958 205.667 520.5 203 Z  M 182.5 204 L 185 204.5 L 179.5 208 L 182.5 204 Z  M 532.5 204 L 534 204.5 L 531.5 206 L 532.5 204 Z  M 523 206 L 525.5 207 L 527.5 206 L 526.5 208 L 524.5 209 L 523 206 Z  M 518 208 Q 520.667 206.875 520 209.5 L 520.5 211 L 518 210 L 518 208 Z  M 710 233 Q 712.667 231.875 712 234.5 L 713 234.5 Q 712.5 231.5 719.5 233 L 719.5 234 L 718 234.5 L 720 238 L 725.5 236 L 731 240.5 L 730 242.5 L 735 245.5 L 734 247.5 Q 736.833 250.167 736 256.5 L 735.5 259 L 734 258.5 L 735 263 L 733 263.5 L 735 264.5 L 733 265 L 731.5 269 L 729 269.5 Q 731.25 270.75 728.5 272 L 723 269.5 Q 724.313 265.333 719.5 267 L 716 265.5 L 718 265 L 716.5 262 Q 713.875 262.667 715 260 L 713 260 L 712.5 263 L 707 256.5 L 708 256.5 L 710.5 260 Q 713.833 261.125 713 258.5 L 712 255 L 709.5 255 L 705 252 Q 706 249 703 250 L 702.5 252 L 698 244.5 L 698.5 243 Q 695.875 243.833 697 240.5 Q 694.25 238.75 698.5 237 L 702.5 238 L 702 236.5 L 703.5 234 L 707 235 Q 705.688 238.333 710.5 237 L 711.5 235 Q 708.875 235.667 710 233 Z  M 572.5 246 Q 575.5 247.5 572.5 249 L 570 248.5 L 572 248 L 572.5 246 Z  M 672.5 257 Q 674.75 256.25 674 258.5 L 674.5 260 L 673 259.5 Q 672.25 261.75 674.5 261 L 680 268.5 L 678 270.5 L 678.5 273 L 681.5 275 L 685 276 L 688 280.5 L 688 285 L 690.5 284 Q 688.833 286 692.5 288 Q 697.625 287.375 699 290.5 L 698 293.5 Q 697.125 296.5 701.5 295 L 703 294.5 L 701.5 297 L 700 296.5 Q 701.125 299.833 698.5 299 Q 697 302.5 695.5 300 Q 691.75 299.25 691 301.5 L 692 303.5 L 690 303.5 Q 690.75 305.75 688.5 305 L 688.5 307 L 687 306.5 L 686.5 308 Q 685 305.5 683.5 309 L 681 307.5 L 679.5 305 L 673 299.5 L 670.5 296 Q 668.25 296.75 669 294.5 L 666.5 290 L 665 290.5 L 665.5 289 Q 663.25 289.75 664 287.5 L 661 282.5 L 663 282 Q 664.25 279 660.5 280 L 659 280.5 L 660 278.5 L 658 278 L 656 271.5 L 658.5 270 L 660.5 270 Q 663.125 270.667 662 268 L 659.5 269 L 660.5 267 L 662.5 266 L 663.5 268 L 670 262.5 L 671 260.5 L 669.5 260 L 668 260.5 L 672.5 257 Z  M 634.5 287 L 635.5 290 L 637 290 L 637 297.5 L 638.5 298 L 640 297.5 L 639 300.5 L 642 302.5 L 641 305 L 644 306.5 Q 644.667 309.125 642 308 L 642 310 L 648 312.5 L 652 320 L 657 323.5 Q 658.25 327.25 654.5 326 L 651 327 L 650.5 329 L 647.5 328 Q 645.25 327.25 646 329.5 L 646.5 331 L 643 330 L 641.5 333 L 637.5 334 L 636.5 333 L 634 334.5 L 634.5 333 Q 632.25 333.75 633 331.5 L 631 331.5 L 632 329.5 L 629 327.5 L 629.5 326 Q 627.25 326.75 628 324.5 L 624 316.5 L 625 316.5 L 625.5 318 L 627 313 Q 624 314 625 311 L 622 311 L 622 307.5 L 621 302.5 L 622 300 Q 619 301.25 620 297.5 L 627 293 L 628.5 290 L 632 290.5 L 634.5 287 Z  M 598.5 303 L 598 304.5 L 597.5 308 L 597 304.5 L 598.5 303 Z  M 591.5 304 L 595 305 Q 596 309.25 593 308.5 L 593 315 L 595 315 Q 593.667 319.125 597 318 L 597 322.5 L 599.5 329 L 600.5 327 L 601 329.5 L 600.5 331 Q 603.125 330.167 602 333.5 L 601.5 336 Q 598.875 335.333 600 338 L 592.5 338 L 592 339.5 L 593 341.5 L 591.5 341 L 583.5 340 L 582.5 342 L 587.5 341 L 588 343 L 581.5 343 L 580 341.5 L 579 334.5 L 580 334.5 L 581.5 337 Q 583.75 337.75 583 335.5 L 582 333 Q 579.333 334.125 580 331.5 L 580 329.5 L 579.5 326 L 578 326.5 L 580 315 Q 583 316 582 313 Q 578.25 314.5 579 311.5 L 580 308 L 582 307.5 L 581.5 306 L 589.5 305 L 591 305.5 L 591.5 304 Z  M 597.5 312 L 599 314.5 L 597 315.5 L 597.5 312 Z  M 602.5 340 L 603 342 L 599 341.5 L 602.5 340 Z  M 463.5 380 L 464 381.5 L 462 382.5 L 463.5 380 Z  M 465 380 L 468 380.5 L 465 382 L 465 380 Z  M 409.5 496 Q 411.25 499.083 413 497.5 L 412.5 500 L 409 498 L 409.5 496 Z"/><path fill="rgb(101,101,101)" stroke="rgb(101,101,101)" stroke-width="1.2" stroke-linejoin="round" stroke-linecap="round" paint-order="stroke fill" id="grouped-path-4" d="M 543.5 29 L 549 35.5 L 554 47.5 L 558 66 L 538.5 60 L 516 58 Q 521.728 47.274 531.5 39 L 535 36.5 Q 534.25 34.25 536.5 35 L 543.5 29 Z  M 450.5 47 L 458.5 48 L 466.5 53 L 487 71.5 Q 490.75 73.75 490 80.5 L 485.5 86 L 461.5 105 L 454.5 108 L 449 103.5 L 446 89.5 L 446 60.5 Q 448.5 59 447 53.5 L 450.5 47 Z  M 431.5 177 L 435 177.5 L 431.5 178 L 431.5 177 Z  M 357.5 193 L 358 202.5 L 357 202.5 L 357.5 193 Z  M 614.5 203 L 616 203.5 L 613.5 205 L 614.5 203 Z  M 185.5 208 L 186 211.5 L 185 211.5 L 185.5 208 Z  M 387.5 220 L 388 223.5 L 387 223.5 L 387.5 220 Z  M 185.5 222 L 186 225.5 L 185 225.5 L 185.5 222 Z  M 186.5 235 L 187 238.5 L 186 238.5 L 186.5 235 Z  M 333.5 240 L 334 247.5 L 333 247.5 L 333.5 240 Z  M 387.5 245 L 388 248.5 L 387 248.5 L 387.5 245 Z  M 214.5 250 L 215 257.5 L 214 257.5 L 214.5 250 Z  M 333.5 256 L 334 264.5 L 333 264.5 L 333.5 256 Z  M 388.5 258 L 389 264.5 L 388 264.5 L 388.5 258 Z  M 216.5 279 L 217 282.5 L 216 282.5 L 216.5 279 Z  M 545 301 L 560 302 L 556 310.5 L 553 323.5 L 553 340 L 536 338 Q 534.167 332.75 535 323.5 Q 538.033 309.87 545 301 Z  M 520 344 Q 522.667 342.875 522 345.5 L 533 369.5 L 521 388.5 L 510 400.5 L 509 407.5 Q 510.906 412.094 518.5 411 L 532.5 405 L 547.5 393 L 550 393 L 552 398 L 555 399.5 Q 548.005 415.005 536 425.5 L 535 433.5 Q 536.625 437.875 543.5 437 L 556.5 432 L 572.5 420 L 576 425 L 580.5 428 Q 590.125 426.875 595.5 430 L 604 437.5 Q 606.333 440.667 605 447.5 L 596.5 458 Q 594.25 457.25 595 459.5 L 584.5 467 L 577.5 469 L 574.5 468 L 571.5 469 L 554.5 464 L 535 453 L 532.5 449 L 530.5 449 L 523.5 444 L 510 432.5 Q 510.75 430.25 508.5 431 L 505 429 Q 506.5 425.25 503.5 426 L 498 421.5 Q 498.75 419.25 496.5 420 L 489 411 L 485 408.5 L 483 404 L 475 397.5 Q 476.125 394.167 473.5 395 L 469 389.5 Q 489.799 379.799 505 364.5 L 513 354 Q 515.667 355.125 515 352.5 L 520 346.5 L 520 344 Z  M 378.5 373 L 379 376.5 L 378 376.5 L 378.5 373 Z  M 385.5 384 L 386 393.5 L 385 393.5 L 385.5 384 Z  M 220.5 399 L 229.5 403 L 234.5 403 L 247 407 L 246 411.5 L 250.5 417 L 260.5 419 L 270.5 419 L 271.5 418 L 281.5 418 L 289.5 415 L 290 419.5 Q 288.75 425.25 284.5 428 L 257.5 440 L 253 444.5 L 253 447.5 L 257.5 452 Q 265.444 455.556 278.5 454 L 302.5 448 L 306 453 L 322 463.5 L 327 472.5 L 327 480.5 L 323.5 485 Q 315.553 493.053 297.5 491 L 284.5 488 L 267.5 479 Q 251.07 467.43 238 452.5 L 230 441.5 L 228 435.5 L 227 424.5 L 225 418.5 L 225 411.5 L 220.5 399 Z  M 325.5 406 L 329 406.5 L 325.5 407 L 325.5 406 Z  M 125.5 448 L 127 450.5 L 126 450.5 L 125.5 448 Z"/><path fill="rgb(43,43,43)" stroke="rgb(43,43,43)" stroke-width="1.2" stroke-linejoin="round" stroke-linecap="round" paint-order="stroke fill" id="grouped-path-5" d="M 510.5 65 L 521 65.5 L 515.5 67 L 512.5 66 Q 509.5 66.5 510.5 65 Z  M 534.5 70 L 537.5 74 L 540 75.5 L 543.5 83 L 545 82.5 L 548 88.5 L 547 90.5 L 550 91.5 L 550 93.5 Q 548.5 97.875 551.5 97 Q 549.917 98.75 553 100.5 L 552.5 103 L 552 100 Q 548.5 98.875 550 106.5 L 551 108.5 L 548.5 110 L 544 106.5 L 542 102.5 L 526.5 86 L 513 75.5 L 518.5 75 L 518 76.5 L 519.5 79 Q 521.75 79.75 521 77.5 L 522.5 76 L 525 77.5 Q 524.1 74.125 529.5 76 L 533 75 L 532 71.5 L 534 71.5 L 534.5 70 Z  M 553.5 73 L 558 74.5 L 555.5 75 L 553.5 73 Z  M 547.5 74 L 550 75 L 549.5 77 L 547.5 74 Z  M 551.5 78 L 555 78 L 555 80 Q 557.667 78.875 557 81.5 L 559.5 85 Q 564.5 84.5 565 88.5 Q 562.5 90 566 91.5 L 567.5 94 L 570 95.5 L 570.5 97 L 572 96.5 Q 570.5 100.875 573.5 100 L 573 101.5 L 572.5 103 L 566.5 94 Q 564.25 94.75 565 92.5 L 558.5 85 L 551.5 78 Z  M 572 85 L 577 88.5 L 574.5 87 Q 570.75 88 572 85 Z  M 580.5 106 L 578.5 109 L 578 107 L 580.5 106 Z  M 407.5 140 L 410 140.5 Q 409.167 143.125 412.5 142 L 418 145.5 Q 418.583 148.25 412.5 147 L 410 145.5 L 409 160 L 405 161.5 L 405 168 Q 408 167 407 170 L 411.5 170 L 416.5 173 L 418 172.5 L 415.5 174 L 405.5 171 L 403 168.5 L 403 162.5 L 406 156.5 L 404 156.5 L 405.5 151 L 406.5 153 L 407 149.5 Q 403.5 148 406 146.5 L 407.5 140 Z  M 413 148 L 417 148 Q 415.75 151 419.5 150 L 421.5 150 L 426.5 149 L 433 152.5 L 430 153 Q 428.875 155.667 431.5 155 L 433 155.5 L 434.5 153 L 435.5 155 L 438.5 154 L 442 155.5 L 440 156 L 440.5 160 L 443.5 156 L 447.5 158 L 460 160.5 L 459 162.5 L 460 165 L 465.5 165 Q 466.25 162.25 470.5 163 L 475 166.5 L 474.5 168 L 473.5 166 Q 472.05 169.25 467 168 Q 468.125 171.333 464 170 L 464 173 L 460 173 Q 461.667 177.125 457.5 176 L 456.5 177 L 447.5 177 L 445 173.5 L 447.5 170 Q 444.875 170.667 446 168 L 444 168 Q 445.2 171.667 440 170 L 440 175 Q 443 174 442 177 L 420.5 175 L 419 173.5 L 421 173.5 L 422.5 171 Q 427.083 172.2 425 167 Q 421.167 167.75 420 164.5 Q 420.875 161.5 416.5 163 L 417.5 160 L 416 159.5 Q 420.5 157 415 154.5 Q 415.667 151.875 413 153 L 413 148 Z M 454 173 Q 452 177 457 176 L 456 175 Q 457 172 454 173 Z  M 473.5 169 L 473 170.5 L 470.5 174 L 470 170 L 473.5 169 Z  M 467.5 171 L 468.5 173 L 466 172.5 L 467.5 171 Z  M 260.5 181 L 276.5 181 L 277 182.5 L 278.5 182 L 285.5 182 L 286 184.5 L 280 199.5 L 280 204.5 L 274 225.5 L 275 230.5 L 273 234.5 Q 275.25 235.75 274 240.5 L 273 241.5 L 273 262.5 L 274 263.5 L 275 285 Q 272 283.75 273 287.5 Q 272 290 267.5 289 L 264 284 L 261 282.5 L 255 270.5 L 250 255.5 L 246 232.5 L 246 215.5 L 245 214.5 L 247 211.5 L 246 210.5 L 246 199.5 L 249.5 183 L 250.5 185 L 251 182 L 259.5 182 L 260.5 181 Z  M 308.5 184 L 310.5 185 L 313.5 184 L 315.5 185 L 317.5 184 L 324.5 186 L 330.5 186 L 334 188.5 L 333.5 190 L 336.5 188 L 338.5 187 L 339.5 190 Q 342.833 191.125 342 188.5 L 343 188.5 L 340 195.5 L 340 199.5 L 334 220.5 L 335 224.5 L 334 225.5 L 333 241.5 L 332 242.5 L 332 262.5 L 333 263.5 Q 331.75 271.75 334 276.5 L 333 280.5 L 334 284.5 L 328.5 289 L 320 281.5 L 320 279.5 L 315 272.5 L 310 258.5 L 310 253.5 L 306 238.5 L 305 226.5 L 306 222.5 L 305 221.5 L 305 205.5 L 305 203.5 L 306 191.5 L 308.5 184 Z  M 225.5 185 L 225 186.5 L 225 188 L 220 188 L 220 190 Q 224.125 188.667 223 192 L 220 192.5 L 223 194.5 L 220 202.5 L 214 231.5 Q 216.5 233 215 238.5 L 214 239.5 L 214 267.5 L 215 268.5 L 215 286.5 L 209.5 290 L 204 285.5 L 205 283 Q 201.167 283.75 200 280.5 L 190 254.5 L 189 245.5 L 189 243.5 L 186 227.5 L 186 206.5 L 187 201.5 L 189.5 199 L 208.5 190 L 212.5 190 L 214.5 188 Q 221.458 187.958 225.5 185 Z  M 403.5 186 L 404 188 Q 408.125 186.667 407 190 Q 404.333 188.875 405 191.5 L 404 194.5 L 407 196 Q 408.125 198.667 405.5 198 L 405.5 199 L 407 199 L 407 203 Q 409.667 201.875 409 204.5 L 410 208 Q 412.667 206.875 412 209.5 L 413 209.5 Q 412.333 206.875 415 208 L 415.5 210 L 416 208 Q 421.287 206.75 420.5 210 L 425 210 Q 423.75 207 427.5 208 L 426.5 205 Q 431.25 203.75 432.5 206 L 434.5 205 L 437 206 L 437 213 Q 432.875 211.667 434 215 L 438 215 L 438 210 Q 441.667 211.2 440 206 L 442.5 206 L 443.5 205 L 451 205 L 451 203 L 459.5 203 L 460 201.5 Q 461.188 199 465 200 Q 466.25 197 462.5 198 L 462.5 197 Q 466.25 196.25 467 198.5 L 467.5 200 L 468 198 L 471 198 L 471 204.5 Q 465.25 210.75 456.5 214 L 455 213.5 Q 455.875 216.5 451.5 215 Q 443.583 219.583 431.5 220 L 429.5 219 Q 428 221.5 422.5 220 L 420.5 219 L 416.5 220 L 414 219 L 406 206.5 Q 405.458 200.042 402 196.5 Q 404.5 195 401 193.5 L 400 190.5 L 403 188.5 L 403.5 186 Z  M 408.5 189 L 423 193 L 423 195 L 418 195 Q 419.125 191.5 411.5 193 L 410 190 L 408.5 189 Z  M 359 190 L 368.5 190 L 370 191.5 Q 369.25 193.75 371.5 193 L 371.5 191 L 391 191.5 L 388.5 204 L 387 203.5 L 388 209.5 Q 385.25 211.25 387 217.5 L 385 220.5 L 386 221.5 L 386 230.5 L 385 230.5 Q 386.313 226.333 381.5 228 L 379.5 228 L 375 224.5 Q 376 220.75 373 222 L 373 218 L 371.5 218 L 367.5 217 L 365 218 L 364 230 L 361 228.5 L 362 224.5 L 360 224 L 359 190 Z  M 433.5 195 Q 438.75 193.75 440 196.5 L 438.5 197 L 433.5 196 L 433.5 195 Z  M 447.5 196 L 454 196.5 L 447.5 197 L 447.5 196 Z  M 383 232 L 385 232.5 L 385 240 L 383 239.5 L 383 232 Z  M 363.5 235 L 367 236 L 367 240 Q 370 238.75 369 242.5 L 370 245 Q 373.333 243.875 372 248 L 375 248 L 375 251 L 377.5 251 L 380 252.5 Q 379.25 249.5 383 251 L 383 247 L 384.5 247 L 386 246.5 Q 387.25 251.25 385 252.5 L 387 253 L 387 258 Q 384 257 385 260 Q 388.5 258.875 387 266.5 L 386 269 L 380.5 270 L 378 269 L 370 256.5 L 370 253.5 L 365 244.5 Q 365.536 237.607 363.5 235 Z  M 692.5 241 Q 695.125 240.167 694 243.5 L 713 266.5 L 712.5 268 L 714.5 267 L 727 274.5 L 714.5 287 L 713 287 L 712.5 289 Q 711.25 286.75 710 289.5 L 708.5 292 L 705.5 294 L 686 276.5 L 675 257.5 L 677 256.5 L 676.5 255 L 678 254.5 L 676 253.5 L 680.5 250 L 683 250 L 686.5 245 L 692.5 241 Z  M 654.5 272 L 654 273.5 L 658 282.5 L 665 291.5 L 665 293.5 L 673.5 303 L 678 306.5 Q 677.25 308.75 679.5 308 L 682 311.5 L 680 311.5 L 678.5 314 L 674 315 Q 675.125 317.667 672.5 317 Q 669.767 321.6 664 321 Q 665.125 323.667 662.5 323 L 659.5 324 L 649 312.5 L 648 308 L 645 306.5 L 639 293.5 L 638 284 L 641.5 283 L 654.5 272 Z  M 615.5 295 Q 619.25 293.75 618 297.5 L 619 303 L 617 303.5 L 620 304 L 622 317.5 L 632 335.5 L 628.5 338 L 626 337 Q 627.375 341 620.5 339 L 618.5 340 L 616 339 Q 617.375 343 610.5 341 L 608.5 342 Q 601.333 331.667 600 315.5 L 601 312.5 L 600 310.5 L 601 308.5 L 600 303.5 L 601 301.5 L 600 299 L 603.5 298 L 604 300 L 607 299.5 L 605 298.5 L 607.5 298 L 609.5 299 L 609.5 297 L 612 298 Q 610.75 295 614.5 296 L 615.5 295 Z  M 539.5 300 L 541 302.5 L 540 304.5 L 543 303.5 Q 533.266 313.266 534 333.5 L 535 337 L 526 334.5 L 534 319.5 L 539.5 300 Z  M 579.5 301 L 580 303.5 Q 574.692 314.692 577 333.5 L 580 342.5 L 568.5 343 L 564.5 341 L 561.5 342 L 556 341 L 554 335.5 L 556 335 L 555.5 323 L 554.5 325 L 554 322.5 Q 557.5 321 555 319.5 L 560 304 L 563.5 302 L 565.5 302 L 578.5 302 L 579.5 301 Z  M 534.5 370 L 547 389.5 L 547 391.5 L 546 394 L 533.5 403 L 521.5 409 L 512.5 409 Q 509 408 510 402.5 Q 524.467 388.467 534.5 370 Z  M 135.5 386 L 143.5 388 L 155 395.5 Q 154.167 398.125 157.5 397 L 167.5 402 L 190 408.5 Q 177.623 418.884 162 425 Q 163.25 422 159.5 423 L 155 419.5 Q 155.833 416.875 152.5 418 L 150 414 L 148.5 414 L 139 404.5 L 133 393.5 L 133 388.5 L 135.5 386 Z  M 447.5 398 L 449 398.5 L 448 400.5 L 448 402.5 L 444 421.5 L 444.5 423 L 429.5 422 L 416.5 419 L 406 411.5 L 405 408.5 L 411.5 404 L 431.5 403 L 447.5 398 Z  M 555.5 402 L 571 419.5 Q 561.95 428.45 549.5 434 L 538.5 435 Q 535 434 536 428.5 Q 547.405 416.905 555.5 402 Z  M 249.5 407 L 289 413.5 L 277.5 417 L 260.5 418 L 250 415 Q 251 412 248 413 L 248 408.5 L 249.5 407 Z  M 106.5 413 L 110.5 414 L 113.5 417 L 117.5 418 L 132.5 427 L 145 431.5 L 131 439.5 L 128 448 Q 125 449 126 446 L 123.5 446 L 117 440.5 L 115.5 438 L 110 433.5 Q 103.033 428.467 103 416.5 L 104 414 L 106.5 413 Z  M 288.5 426 Q 293.475 438.025 302 446.5 Q 300.25 444.917 298.5 448 L 278.5 453 L 263.5 453 L 255 448.5 L 254 445.5 L 256.5 442 L 269.5 437 L 288.5 426 Z  M 442.5 436 L 443 439.5 L 442 440.5 L 442 459 L 432.5 459 L 422.5 457 L 411.5 453 L 406 447.5 Q 405.25 442.75 408.5 442 L 425.5 440 L 431.5 438 L 437.5 438 L 442.5 436 Z"/><path fill="rgb(145,144,145)" stroke="rgb(145,144,145)" stroke-width="1.2" stroke-linejoin="round" stroke-linecap="round" paint-order="stroke fill" id="grouped-path-6" d="M 566.5 149 L 571 151.5 Q 572 157 568.5 158 L 563 155.5 L 564 150 L 566.5 149 Z  M 263.5 173 L 272 173.5 L 263.5 174 L 263.5 173 Z  M 230.5 372 L 234.5 374 L 238.5 374 L 256.5 379 L 286.5 383 L 287.5 384 L 309.5 385 L 310.5 386 L 337.5 386 L 338.5 385 L 351.5 385 L 352.5 384 L 367.5 383 L 378 381 L 378 399.5 L 374.5 400 L 359.5 404 L 348.5 404 L 347.5 405 L 337.5 405 L 336.5 406 L 297.5 406 L 296.5 405 L 273.5 404 L 251.5 399 L 245.5 399 L 219 390.5 L 220 388 L 223 386.5 L 230 376.5 L 230.5 372 Z"/><path fill="rgb(131,131,131)" stroke="rgb(131,131,131)" stroke-width="1.2" stroke-linejoin="round" stroke-linecap="round" paint-order="stroke fill" id="grouped-path-7" d="M 445.5 34 L 448.5 35 L 450.5 35 Q 454.25 34.25 455 36.5 L 453 40 L 450 40 Q 451.25 37 447.5 38 L 445.5 34 Z  M 462 40 L 464.5 40 L 478 49 L 478.5 51 L 480 50.5 L 477 52.5 L 478 55 L 482.5 54 L 485 54.5 L 488.5 59 L 491 60.5 L 492 62.5 L 485 63 L 485 65 Q 488.75 63.5 488 66.5 L 486.5 70 L 478 61.5 L 477 57 L 473 55 L 472.5 57 L 462 49.5 L 460.5 47 L 459 46.5 L 460 43 L 463 42.5 L 462 40 Z  M 445.5 43 L 446 47 L 449 47.5 L 448 50 L 445 50 L 445.5 43 Z  M 441.5 44 L 444 48.5 L 443 49.5 L 443 58 L 445.5 57 L 446 62 Q 441.875 60.333 443 64.5 L 444 64.5 L 444.5 63 L 445 64.5 Q 443.5 67.5 442 64.5 Q 443.125 61.167 440.5 62 L 437.5 66 L 437 62.5 L 440 52.5 L 440 46.5 L 441.5 44 Z M 440 53 L 440 57 L 442 58 Q 444 52 440 53 Z  M 450.5 45 L 457.5 45 L 458 47 Q 455.938 45.375 450.5 46 L 450.5 45 Z  M 495.5 66 L 501.5 73 L 504.5 74 L 506.5 74 Q 511.5 73.5 512 77.5 L 510.5 77 L 508.5 76 L 507 76.5 Q 507.9 73.125 502.5 75 Q 500.95 70.75 495 72 Q 496.5 68.25 493.5 69 L 495.5 66 Z  M 436 71 Q 438.667 69.875 438 72.5 L 436.5 76 L 436 71 Z  M 443.5 72 L 445 72.5 L 445 78 Q 440.125 79.8 442 73.5 L 443.5 72 Z  M 540.5 72 L 550 79 L 554.5 85 L 557 86.5 L 554.5 87 L 550 87 Q 551.125 84.333 548.5 85 L 546 80.5 Q 546.75 78.25 544.5 79 L 544.5 77 Q 540.5 77.5 540 74.5 L 540.5 72 Z  M 490.5 75 L 492 78.5 L 491 78.5 L 490.5 75 Z  M 513 79 Q 517.667 78.25 519 82.5 L 515.5 83 L 513 79 Z  M 525.5 88 L 531 92.5 Q 530.25 94.75 532.5 94 L 532.5 95 Q 527.1 96.875 528 93.5 L 525 92 L 525.5 88 Z  M 558.5 89 L 561 90 L 566 97.5 L 559 91.5 L 558.5 89 Z  M 480 90 L 482 90.5 L 478.5 93 L 478.5 92 Q 481.125 92.667 480 90 Z  M 437.5 93 L 440 93.5 L 437 94.5 L 440 95.5 L 437 96 Q 435.75 99 439.5 98 L 443 97 L 443 103 L 445 103 L 445.5 93 L 447 103 Q 444 102 445 105 L 450 105 L 450 107 L 443.5 108 L 442 107.5 Q 442.75 111.75 440 112.5 L 440 114.5 L 440 123 Q 437 122 438 125 L 434.5 125 Q 433 128.5 431.5 126 Q 428.5 126.75 430 123 L 428 123 L 428 120.5 L 429 118.5 L 428.5 117 L 431.5 122 L 435.5 123 L 439 118.5 L 436 103.5 L 436 94.5 L 437.5 93 Z  M 473.5 96 L 474.5 98 L 473 98.5 L 473.5 100 L 469 99.5 L 473 98 L 473.5 96 Z  M 427.5 99 L 428 100.5 L 427.5 102 Q 430.875 101.1 429 106.5 L 428 106.5 L 428 104 Q 424.25 105.5 425 102.5 L 427.5 99 Z  M 535.5 99 L 540 102.5 L 541 105.5 L 539.5 105 L 537 105 L 537 100 L 535.5 100 L 535.5 99 Z  M 585.5 100 L 587 105 Q 590.75 103.5 590 106.5 L 591 110 Q 587.25 111.5 588 108.5 L 584.5 107 L 583 107.5 L 585 104.5 L 585 102.5 L 585.5 100 Z  M 569.5 103 Q 571.75 102.25 571 104.5 L 573.5 108 L 570 108 Q 571.5 104.25 568.5 105 L 569.5 103 Z  M 463.5 104 L 463 105.5 Q 464.125 109.667 460 108 L 461.5 105 L 463.5 104 Z  M 543.5 108 L 547 110 Q 548 113 545 112 L 543.5 108 Z  M 580.5 109 L 580 110.5 L 579.5 112 L 577 110.5 L 580.5 109 Z  M 429.5 110 L 430 115 Q 425.5 116.5 427 112 Q 429.75 113 429.5 110 Z  M 420 112 Q 423.333 110.688 422 115.5 L 419.5 118 L 415.5 119 L 417 116.5 Q 416.25 114.25 418.5 115 L 420 112 Z  M 592.5 112 L 595 115.5 L 594 117.5 L 594.5 119 L 590 117 L 590 113 L 591.5 113 L 592.5 112 Z  M 596.5 122 L 600 129.5 L 599 131.5 L 602 138.5 L 600.5 138 Q 596.75 139.25 598 135.5 L 597 134.5 L 597 128 Q 593.333 129.35 595 123.5 L 596.5 122 Z  M 412.5 129 L 413 131.5 L 413 137.5 Q 416 136.75 415 141 Q 410.125 141.083 408 137.5 L 412.5 129 Z  M 419.5 143 L 421.5 143 Q 427.583 141.75 427 144.5 L 430 146.5 L 428 147.5 L 428.5 149 L 419 145 L 419.5 143 Z  M 560 143 L 567.5 143 L 568 145 L 561.5 145 L 554 150.5 L 555 152.5 L 552 156.5 L 554 166.5 Q 552.75 169.25 551.5 167 Q 548.125 167.9 550 162.5 L 551 157.5 L 550 155 L 552 154.5 L 551 152.5 L 553 148 Q 555.667 149.125 555 146.5 L 558.5 145 Q 561.125 145.667 560 143 Z  M 603.5 144 L 604 146.5 Q 606.5 150 605 157.5 L 607 162 L 609 162.5 L 607 163 Q 608.125 165.667 605.5 165 L 602.5 167 L 602 162.5 Q 604.5 161 603 155.5 L 601 150.5 L 603.5 144 Z  M 570.5 146 Q 572 149.5 573.5 147 Q 575.75 146.25 575 148.5 L 574.5 151 L 570.5 146 Z  M 434.5 150 Q 440.583 148.75 440 151.5 Q 438.75 154.25 437.5 152 Q 433.75 151.75 434.5 150 Z  M 444.5 153 L 447 154.5 L 444.5 155 L 443 154.5 L 444.5 153 Z  M 576.5 153 L 576 154.5 L 576.5 156 L 578.5 155 L 578 156.5 Q 580 163.375 576 162 L 575 154.5 L 576.5 153 Z  M 452.5 155 L 457.5 156 L 460.5 155 L 463 156.5 L 460 157 Q 461.25 160 457.5 159 L 457.5 157 L 454 158 L 453.5 156 L 451.5 157 L 452.5 155 Z  M 462.5 158 L 470 160.5 L 468.5 161 L 461 159.5 L 462.5 158 Z  M 577.5 166 L 578 168 Q 575.333 166.875 576 169.5 L 577 170.5 L 574 173.5 L 572.5 177 L 563.5 177 L 562 175.5 Q 568.78 175.565 572 173 L 575.5 167 L 577.5 166 Z  M 476.5 168 L 477 170.5 L 475 171.5 L 476.5 168 Z  M 598 170 Q 601.333 168.688 600 173.5 L 601 175.5 L 599.5 175 Q 597.25 174.25 598 176.5 L 598.5 178 L 597 175.5 L 598 170 Z  M 556.5 171 L 561 174.5 L 559.5 177 L 555 172.5 L 556.5 171 Z  M 403 172 L 407 173 Q 405.625 177 412.5 175 L 414.5 175 L 433 178.5 L 430 180 Q 431.125 183.5 423.5 182 L 420 183 Q 421.125 185.667 418.5 185 L 419.5 187 Q 424.938 186.375 427 188 Q 428.125 190.667 425.5 190 L 425.5 192 L 414.5 188 L 412.5 188 Q 408 188.5 407.5 185 Q 405.75 187.75 404 183.5 L 403 181.5 L 403 172 Z M 413 182 L 413 186 L 415 187 Q 414 184 417 185 Q 419 180 413 182 Z  M 469.5 175 L 472 176.5 L 470.5 176 L 469 176.5 L 469.5 178 L 465 177.5 L 469.5 175 Z  M 508.5 178 L 512.5 179 L 516.5 178 L 520 179.5 L 510.5 180 L 509.5 181 L 507.5 181 L 503 180.5 Q 507.25 180.75 508.5 178 Z  M 522 178 L 529.5 178 L 530.5 180 L 539.5 180 L 540 181.5 L 540 183.5 L 539.5 186 L 539 184 L 528.5 182 L 525.5 180 L 521.5 181 L 522 179.5 L 522 178 Z  M 443.5 179 L 448 179.5 L 443.5 180 L 443.5 179 Z  M 450.5 179 L 455 179.5 L 450.5 180 L 450.5 179 Z  M 603.5 179 L 606 180.5 L 606 182 L 602 182 L 603.5 179 Z  M 496.5 180 L 501 181.5 L 498 183.5 L 500 188 L 518.5 187 L 519.5 188 L 536 189.5 L 535.5 191 Q 538.833 189.875 538 192.5 Q 541 193.5 540 198.5 L 539 198.5 L 536.5 194 Q 531 195.5 529.5 193 L 524.5 195 L 522.5 194 L 518.5 196 L 516.5 196 L 508.5 198 L 505.5 196 L 503.5 200 L 498.5 201 L 497 198.5 L 498 195.5 L 497 192 Q 493.333 193.35 495 187.5 L 498 182.5 L 496.5 180 Z  M 288.5 182 L 290 185 L 287 184.5 L 288.5 182 Z  M 609.5 182 L 612 183 Q 610.688 186.333 615.5 185 L 619 184 L 618 193 Q 613.512 192.2 611.5 195 L 610.5 193 L 614 193 Q 612.875 190.333 615.5 191 L 615 189.5 Q 616.35 184.917 610.5 187 L 610.5 185 L 608.5 184 L 607 184.5 Q 606.25 182.25 608.5 183 L 609.5 182 Z  M 240 183 L 247 183 L 247 187 L 243.5 188 L 242 185 Q 239 186 240 183 Z  M 291 183 L 300.5 183 L 302 184.5 L 299.5 185 L 295.5 184 L 291 185 L 291 183 Z  M 230.5 184 L 234 185.5 L 233 188 L 230 188 Q 231.125 185.333 228.5 186 L 228.5 185 L 230.5 184 Z  M 540.5 187 L 542 187.5 L 539.5 189 L 540.5 187 Z  M 345.5 189 L 349.5 190 L 352.5 189 L 356 190.5 L 352.5 192 L 350 190.5 Q 350.833 193.125 347.5 192 L 343.5 194 L 343.5 193 L 345 192.5 L 344 190.5 L 345.5 189 Z  M 398.5 190 L 398 191.5 L 398 193 L 395 193 Q 396.125 195.667 393.5 195 L 391 196.5 L 392 192 L 398.5 190 Z  M 583.5 191 L 590 195.5 L 588.5 196 L 586 194.5 L 586.5 193 L 582 194 L 583.5 191 Z  M 429.5 192 L 436 193.5 L 433.5 194 L 429.5 193 L 429.5 192 Z  M 444.5 192 L 445 194 Q 447.063 192.375 452.5 193 L 454.5 194 L 456.5 193 L 458.5 193 L 460.5 192 L 461.5 194 Q 454 196.5 442.5 195 L 442.5 194 Q 444.958 194.667 444.5 192 Z  M 303.5 193 L 305 193 L 305 198 L 303 197.5 L 304 194.5 L 303.5 193 Z  M 284.5 195 L 285 196.5 L 282.5 201 L 282 199.5 L 284.5 195 Z  M 590.5 197 L 595 198 Q 593.688 201.333 598.5 200 L 600.5 200 L 603 200 L 603.5 198 L 609 198 Q 610.125 200.667 607.5 200 L 604.5 202 L 603 201.5 Q 603.5 204.5 596.5 203 L 594 202 Q 595.313 198.667 590.5 200 Q 587.5 198.5 590.5 197 Z  M 303.5 199 L 304 207.5 L 303 207.5 L 303.5 199 Z  M 341.5 199 L 342 200.5 L 341 202.5 L 342 205 Q 338.667 206.313 340 201.5 L 341.5 199 Z  M 473.5 199 Q 476.25 200.25 474 201.5 L 473.5 203 L 473 201.5 L 473.5 199 Z  M 531 200 L 536.5 201 L 539.5 200 L 539.5 202 Q 543.25 200.75 542 204.5 L 542 206.5 L 540.5 209 L 541 207.5 L 538.5 204 L 535.5 203 L 528.5 207 L 526.5 206 L 524.5 206 Q 522.25 205.25 523 207.5 L 524 210 L 520 210 Q 521.125 212.667 518.5 212 L 514.5 215 L 513 214.5 L 512.5 216 L 511 213.5 L 512 210 Q 509 209 510 212 L 505 212 L 504.5 210 L 495 210 L 495 205 L 497.5 204 L 500.5 208 L 505.5 206 L 507 206.5 Q 506.167 203.875 509.5 205 L 512.5 204 L 526.5 201 L 531 202 L 531 200 Z M 521 203 L 520 205 L 518 206 L 521 206 L 521 203 Z  M 222.5 202 L 225 203.5 Q 223.5 206.5 222 203.5 L 222.5 202 Z  M 582.5 202 L 586 204 Q 587.333 208.125 584 207 Q 585 204 582 205 L 582.5 202 Z  M 243.5 203 Q 246 204 245 208.5 L 243.5 211 L 243 209.5 L 243 207.5 L 244 204.5 L 243.5 203 Z  M 183.5 205 L 185 205.5 L 185 213 Q 181.667 214.125 183 210 L 180.5 210 L 178.5 210 Q 175.875 210.667 177 208 L 179.5 208 L 183.5 205 Z  M 403.5 205 L 405 207.5 L 404 207.5 L 403.5 205 Z  M 613.5 205 L 614 207.5 L 607.5 219 L 605 217.5 L 606.5 215 Q 603.875 215.667 605 213 Q 607.667 214.125 607 211.5 L 608 211.5 Q 607.333 214.125 610 213 L 610 210 Q 607 211 608 208 L 613.5 205 Z  M 471.5 206 L 472.5 208 L 469 209.5 L 470 212 L 467.5 213 L 466.5 211 L 465 211.5 L 471.5 206 Z  M 220 208 Q 223 206.75 222 210.5 L 220.5 213 L 220 208 Z  M 587 208 L 596.5 209 L 598.5 211 L 600.5 211 L 602 211.5 L 597.5 213 Q 595.75 210.25 589.5 212 L 587 209.5 L 587 208 Z  M 357.5 211 L 358 216.5 L 357 216.5 L 357.5 211 Z  M 406.5 211 L 415.5 221 Q 417.75 220.25 417 222.5 L 418.5 222 Q 423.75 220.5 422 225 L 417.5 225 Q 415.321 221.536 410 222 L 410 220 Q 407.333 221.125 408 218.5 L 407 215 Q 404.333 216.125 405 213.5 L 406.5 211 Z  M 338.5 212 L 340 215.5 L 338 214.5 L 338.5 212 Z  M 172.5 214 L 174 214.5 L 170.5 217 L 172.5 214 Z  M 526.5 215 L 526.5 218 L 523.5 220 Q 520.5 218.5 523.5 217 L 526.5 215 Z  M 454.5 216 L 453.5 218 L 452 217.5 L 454.5 216 Z  M 505 218 L 507.5 219 L 509.5 218 L 509.5 219 L 506 220 L 503.5 224 L 503 221.5 Q 502.333 218.875 505 220 L 505 218 Z  M 165.5 220 L 167 220.5 L 164 222.5 L 164.5 224 L 161.5 226 Q 158.5 224.5 161.5 223 L 165.5 220 Z  M 303.5 222 L 304 228.5 L 303 228.5 L 303.5 222 Z  M 602.5 222 Q 604.75 221.25 604 223.5 L 601 225 L 602.5 222 Z  M 244.5 223 L 245 228 L 243 227.5 L 244.5 223 Z  M 514.5 223 Q 518.25 221.75 517 225.5 L 513 228.5 Q 513.75 231.5 510 230 L 512.5 224 L 514.5 223 Z  M 183.5 225 L 185 230.5 L 183 229.5 L 183.5 225 Z  M 503.5 226 L 505.5 229 L 508 229.5 L 504 230 L 503.5 226 Z  M 335.5 227 L 337 229.5 L 335 228.5 L 335.5 227 Z  M 597.5 227 L 599 227.5 L 596.5 229 L 597.5 227 Z  M 597.5 230 L 595.5 233 L 593 232.5 L 597.5 230 Z  M 216.5 231 L 217 234.5 L 216 234.5 L 216.5 231 Z  M 155 232 Q 158.333 230.688 157 235.5 L 155 236.5 L 154 234.5 L 155 232 Z  M 275.5 233 L 276 237.5 L 275 237.5 L 275.5 233 Z  M 304.5 233 L 305 236.5 L 303 235.5 L 304.5 233 Z  M 707.5 233 L 710 233 Q 709 236 712 235 L 712.5 233 L 713 234.5 Q 711.688 238 707 237 Q 708.25 234 704.5 235 L 704.5 234 L 707.5 233 Z  M 718.5 234 Q 723.75 232.75 725 235.5 L 720 238 L 718.5 234 Z  M 360.5 235 L 362 238.5 L 360 239.5 L 361 237.5 L 360.5 235 Z  M 701.5 235 L 703 237.5 L 698.5 239 L 699 237.5 Q 698.25 235.25 700.5 236 L 701.5 235 Z  M 695.5 239 L 697 243 L 699 243.5 L 697 244.5 Q 693.983 242.683 695.5 239 Z  M 185.5 240 L 187 244.5 L 186 244.5 L 185.5 240 Z  M 215.5 240 L 217 243.5 L 215.5 247 L 215.5 240 Z  M 582.5 241 L 585 241.5 L 576.5 246 L 576.5 243 L 582.5 241 Z  M 730 241 L 733 242.5 L 730 244.5 L 730 242.5 L 730 241 Z  M 149.5 243 L 148 245.5 L 145.5 249 L 147 246.5 L 149.5 243 Z  M 570 245 L 575 245 L 575 247.5 L 572 246.5 L 572 248 L 570 248 Q 571.125 250.667 568.5 250 L 560.5 254 L 558.5 254 L 548.5 258 L 548 253 L 554.5 253 L 555.5 254 L 558 253 Q 556.688 249.667 561.5 251 L 566 249.5 L 565.5 248 Q 567 250.5 568.5 247 Q 571.125 247.667 570 245 Z  M 215.5 248 L 217 250.5 Q 214.5 252 216 257.5 L 217 259.5 L 215.5 266 L 215.5 248 Z  M 363.5 248 L 370 258.5 L 367 256.5 L 363 251.5 L 364 249.5 L 363.5 248 Z  M 145.5 250 L 145 251.5 L 144.5 253 L 144 251.5 L 145.5 250 Z  M 703 250 L 705 250 Q 703.875 252.667 706.5 252 Q 707.75 255.75 712 255 L 713 260 L 715 260 Q 713.875 262.667 716.5 262 L 718 265 L 713 264 Q 715.083 258.8 710.5 260 L 708 256 L 704 255 L 703 250 Z  M 188.5 252 Q 190.9 255.308 190 261 Q 186.667 262.313 188 257.5 L 189 255.5 L 188.5 252 Z  M 247 253 Q 250.333 251.688 249 256.5 L 250 259 L 247 257.5 L 247 253 Z  M 538.5 257 L 545 258.5 L 537 260 L 538.5 257 Z  M 735.5 257 L 735 258.5 L 734.5 260 L 734 258.5 L 735.5 257 Z  M 672.5 258 L 675.5 262 L 673 261 L 672.5 259 L 671.5 262 L 670 261.5 L 666.5 266 L 663.5 268 L 663 265.5 L 672.5 258 Z  M 308.5 259 L 310 263 L 308 262.5 L 309 260.5 L 308.5 259 Z  M 368.5 260 L 371 261.5 L 370.5 263 L 370 261 L 368.5 260 Z  M 533 263 Q 536.333 261.688 535 266.5 L 533 265.5 L 533 263 Z  M 310.5 264 L 312 267.5 L 310 266.5 L 310.5 264 Z  M 718.5 266 L 723 267 L 722.5 270 L 718.5 266 Z  M 275.5 267 L 277 273.5 L 275 272.5 L 275.5 267 Z  M 373 267 L 380.5 272 L 383.5 272 L 389.5 267 L 389 268.5 Q 389.75 270.75 387.5 270 Q 386.5 274 380.5 273 L 377 272 Q 378.2 268.333 373 270 L 373 267 Z  M 660.5 268 Q 663.125 267.333 662 270 L 659.5 271 L 658.5 269 L 660.5 268 Z  M 216.5 269 L 217 275.5 L 216 275.5 L 216.5 269 Z  M 679.5 269 L 684 275.5 L 682.5 276 L 680 275 Q 681.125 272.333 678.5 273 L 678 270.5 L 679.5 269 Z  M 137.5 270 L 138 273.5 L 136 274.5 L 137.5 270 Z  M 335 270 Q 338 268.75 337 272.5 L 336 276.5 Q 339 277.5 338 282.5 L 336 282.5 L 335.5 284 L 335 270 Z  M 194.5 271 Q 194.679 276.321 198 278.5 L 196.5 278 Q 193.5 278.875 195 274.5 L 193 274.5 L 194.5 271 Z  M 534.5 271 L 535 274.5 L 534 278.5 L 535 281.5 L 532.5 292 L 531 286.5 L 531.5 285 Q 528.875 285.667 530 283 L 532 283 Q 530.5 279.25 533.5 280 L 533 278.5 Q 531.5 272.5 534.5 271 Z  M 729.5 271 L 728.5 273 L 727 272.5 L 729.5 271 Z  M 135 277 L 137 277.5 L 136.5 280 L 135 277 Z  M 255 277 L 258 278.5 Q 258.75 281.5 255 280 L 255 277 Z  M 276 277 L 278 277.5 L 276.5 281 L 276 277 Z  M 316.5 278 L 319 283.5 L 317.5 283 Q 313.75 284.25 315 280.5 L 316.5 278 Z  M 660 280 Q 664.125 278.667 663 282 L 661 282.5 L 661.5 284 L 660 280 Z  M 217.5 281 L 218 285 Q 221 284 220 287 L 216 288 L 217.5 281 Z  M 688.5 281 L 694.5 288 L 688 285 L 688.5 281 Z  M 136.5 282 L 139 283.5 L 136 284.5 L 137 286.5 Q 134.2 288.512 135 293 Q 131.333 294.35 133 288.5 L 136.5 282 Z  M 261.5 285 L 263.5 288 Q 259.125 289.5 260 286.5 L 261.5 285 Z  M 275.5 285 L 277 287.5 L 275 286.5 L 275.5 285 Z  M 322.5 287 L 325 288 L 324.5 290 L 322.5 287 Z  M 635.5 287 L 636 289.5 L 634 288.5 L 635.5 287 Z  M 666.5 288 L 667 290.5 L 666.5 292 L 665 289.5 L 666.5 288 Z  M 215 289 Q 218 288 217 291 Q 214 290 215 293 L 210.5 293 L 209.5 291 Q 216.375 293 215 289 Z  M 330.5 289 L 332 289.5 L 328.5 291 L 328.5 290 L 330.5 289 Z  M 626.5 291 L 627 293 L 625 293.5 L 627 294.5 L 625.5 295 Q 624 292.5 622.5 296 L 620.5 297 L 620 294 L 626.5 291 Z  M 698.5 291 L 705 294.5 L 703.5 295 L 701.5 295 Q 697.125 296.5 698 293.5 L 698.5 291 Z  M 530.5 292 L 532 295.5 L 530.5 299 L 528 298 L 528 295 Q 531.146 296.125 530.5 292 Z  M 528 300 Q 531 298.75 530 302.5 L 530 304.5 L 529.5 306 L 526 303.5 L 528 303 L 528 300 Z  M 593.5 300 L 599 300 L 599 302.5 Q 596.25 303.25 597 307.5 L 598 311.5 L 597 315.5 L 599 315.5 L 598 319.5 Q 600.75 320.25 600 324.5 L 600 326.5 L 598.5 330 L 598 327.5 L 597 318 L 595 318 Q 596.333 313.875 593 315 L 593 308 Q 596.333 309.125 595 305 L 591.5 304 L 590.5 306 Q 589 303.5 583.5 305 L 581 306.5 L 581.5 308 Q 578.875 308.833 580 305.5 L 581 302 Q 584.45 300.3 591.5 301 L 593.5 302 L 593.5 300 Z  M 620 300 Q 622.667 298.875 622 301.5 L 620 302.5 L 620 300 Z  M 692.5 300 Q 696.875 298.5 696 301.5 L 692.5 304 L 691 301.5 L 692.5 300 Z  M 131 301 L 134 301.5 L 132 304.5 L 133 309.5 L 131 308.5 L 132 306.5 L 131 301 Z  M 640.5 302 L 642.5 305 Q 640.25 305.75 641 303.5 L 640.5 302 Z  M 690.5 303 L 691 304.5 L 687.5 307 L 688.5 305 Q 690.958 305.667 690.5 303 Z  M 525.5 306 L 529 307.5 L 526.5 313 L 525 312.5 L 525.5 306 Z  M 642 308 L 646 309.5 L 645.5 311 L 642 310 L 642 308 Z  M 130.5 311 L 132 312.5 L 131 315.5 L 132 317.5 L 132 319.5 Q 133.25 324.25 131 325.5 L 131.5 327 Q 128.75 325.75 131 324.5 L 130.5 311 Z  M 623 311 L 627 313 L 627 315.5 L 626 317.5 Q 628.25 318.75 625.5 320 L 625 317.5 L 623 311 Z  M 579 313 Q 583.125 311.667 582 315 Q 579 313.75 580 317.5 L 579 317.5 L 579 313 Z  M 518 323 L 523 323.5 L 519.5 328 L 517 326.5 L 518 323 Z  M 579.5 326 L 580 329.5 L 579 329.5 L 579.5 326 Z  M 646 328 L 648.5 329 L 650 328.5 L 643 332 L 643 330 Q 647.125 331.333 646 328 Z  M 519.5 329 L 520 330.5 L 518 331.5 L 519.5 329 Z  M 129.5 330 L 130 336 Q 127 337.25 128 333.5 L 129.5 330 Z  M 579.5 331 L 580 333 Q 582.667 331.875 582 334.5 L 583 337 L 580 335.5 L 579.5 331 Z  M 632.5 331 L 633 333 L 635.5 334 L 637 333.5 L 635.5 335 L 633 334.5 L 632.5 331 Z  M 602.5 333 L 606 341.5 L 603 342 L 602.5 340 L 599 341.5 L 601 342.5 L 591.5 343 L 589.5 343 Q 587.25 343.75 588 341.5 L 586.5 342 L 582 341.5 Q 583.5 338.5 589.5 340 L 592.5 342 L 593 340.5 L 592 338 L 599.5 338 L 600 336 L 601.5 336 L 602.5 333 Z  M 513.5 336 L 515 338.5 L 512 340 L 513.5 336 Z  M 127.5 341 L 128 343.5 L 124.5 349 L 125 347.5 L 126 344.5 L 125.5 343 Q 127.958 343.667 127.5 341 Z  M 508.5 345 L 510 345.5 L 507.5 349 L 505 347.5 L 508.5 345 Z  M 502.5 351 L 505 352.5 L 500 356.5 Q 500.75 358.75 498.5 358 L 497 358.5 L 502.5 351 Z  M 123.5 353 L 122 355.5 L 121 357.5 L 122 360.5 L 122 363 Q 119 362 120 365 L 116.5 365 L 117 363.5 L 118.5 361 L 121 360.5 L 120 357.5 L 121 354 L 123.5 353 Z  M 462.5 356 L 464 358.5 L 458 362 L 458 358 Q 462.783 359.667 462.5 356 Z  M 378 357 L 380 357.5 L 378 360.5 L 379 364 Q 376.333 365.125 377 362.5 L 376 360 Q 379.333 361.125 378 357 Z  M 385.5 358 Q 389 359 388 364.5 L 387 364.5 Q 387.6 359 385.5 358 Z  M 465.5 358 L 469 358.5 L 465.5 359 L 465.5 358 Z  M 490.5 360 L 494 361.5 Q 494.833 364.125 491.5 363 L 490 363.5 L 493 361.5 Q 489.667 361.583 490.5 360 Z  M 378.5 365 L 379 370.5 L 377.5 374 L 377 368.5 L 378.5 365 Z  M 115 366 L 117 366.5 L 117 368.5 Q 117.75 371.5 114 370 L 115 366 Z  M 387.5 366 Q 390.5 366.5 390 370.5 L 386.5 381 L 386 369.5 L 387.5 366 Z  M 485 366 L 488 366.5 L 487.5 369 L 485.5 370 L 485 366 Z  M 227.5 368 L 228 370 L 224 369.5 L 227.5 368 Z  M 458.5 368 L 458 369.5 L 456.5 374 L 455 370.5 L 458.5 368 Z  M 469.5 368 L 470 370.5 L 468 375 L 473.5 377 L 475.5 376 L 474.5 378 L 468.5 381 L 465 380 L 466 382.5 L 462.5 384 L 464 381.5 L 465.5 373 L 467 373.5 L 466 371.5 L 467 369 L 469.5 368 Z  M 480.5 370 L 483 371.5 Q 482 375 476.5 374 L 476.5 373 L 480.5 370 Z  M 221.5 371 L 222 372.5 L 219.5 377 L 218.5 375 L 217.5 377 L 217 375.5 L 218 373 L 221.5 371 Z  M 230.5 371 L 235 371.5 L 231.5 373 L 230.5 371 Z  M 110 373 Q 113.333 371.875 112 376 L 110 376.5 L 110.5 380 L 108 379 L 110 373 Z  M 239.5 373 L 259 378.5 L 256.5 379 L 239 375 L 239.5 373 Z  M 377.5 376 L 378 381 L 369.5 382 L 369.5 381 Q 375.036 381.536 377 378.5 Q 374.75 377.25 377.5 376 Z  M 450.5 376 L 451 379.5 L 450 379.5 L 450.5 376 Z  M 454.5 377 L 455 381 L 453 381.5 L 453.5 383 Q 451 381.813 452 378 L 454.5 377 Z  M 213.5 378 L 216 379.5 L 214.5 384 L 213 383.5 L 210.5 387 L 210 383 L 214 381.5 L 213.5 378 Z  M 261.5 379 L 277.5 381 L 280 380 Q 278.65 383.667 284.5 382 L 284.5 383 L 261.5 380 L 261.5 379 Z  M 352 381 L 360 383.5 L 355.5 384 L 352 383 L 351.5 385 L 338.5 385 L 337.5 386 L 310.5 386 L 309.5 385 L 297.5 385 L 295 383.5 L 298.5 383 L 299.5 384 L 309.5 384 L 310.5 385 L 334.5 385 L 341.5 383 Q 342.75 385.25 347.5 384 L 352 383 L 352 381 Z  M 360.5 381 L 363.5 382 L 365.5 381 L 368 382.5 L 362.5 383 L 360.5 381 Z  M 287.5 383 L 292 383.5 L 287.5 384 L 287.5 383 Z  M 386.5 385 Q 388.75 385.75 388 389.5 L 386 388.5 L 386.5 385 Z  M 450 385 L 453 385.5 L 450.5 390 L 450 385 Z  M 130.5 386 Q 133.25 387.25 131 388.5 L 130.5 391 L 130.5 386 Z  M 147.5 386 L 150.5 390 L 154 391.5 L 151.5 392 L 146 389 L 147.5 386 Z  M 156.5 393 L 161 394 L 162.5 397 L 165.5 396 L 167.5 398 Q 171.25 397.25 172 399.5 L 168.5 400 L 163.5 397 L 161.5 397 Q 156.917 396.25 156.5 393 Z  M 448.5 393 L 450 396.5 L 445.5 398 Q 442.5 396.5 445.5 395 Q 449 396 448.5 393 Z  M 199.5 396 L 201.5 397 L 203 396.5 L 200 398 Q 201.125 400.667 198.5 400 L 198 397.5 L 199.5 396 Z  M 131.5 397 L 134 398.5 L 132.5 398 L 131.5 397 Z  M 88.5 398 Q 92.25 397 91 400 L 88 401.5 L 86.5 404 L 87 402.5 Q 85.875 399.167 88.5 400 L 88.5 398 Z  M 386.5 398 L 387 411.5 L 386 411.5 L 386.5 398 Z  M 436.5 398 L 440 398.5 L 435.5 400 L 436.5 398 Z  M 180.5 401 L 181.5 403 L 182 401 L 186 402.5 L 185.5 404 L 191.5 405 L 193 404.5 L 191.5 407 L 183 405 L 182.5 403 L 180.5 403 L 177.5 404 L 178.5 402 L 180.5 401 Z  M 408 401 L 417.5 402 L 420.5 401 L 419.5 403 Q 411.313 401.875 408 404 L 408 401 Z  M 135 403 Q 137.667 401.875 137 404.5 L 137.5 406 L 135 405 L 135 403 Z  M 313.5 406 L 321 406.5 L 313.5 407 L 313.5 406 Z  M 107.5 410 L 111 411.5 L 109.5 413 Q 108 409.5 106.5 412 L 103.5 413 L 102.5 411 L 104.5 412 L 107.5 410 Z  M 111.5 413 Q 115.875 411.5 115 414.5 L 115.5 416 L 111.5 414 L 111.5 413 Z  M 387.5 414 L 389 416.5 L 388 421 Q 391 419.75 390 423.5 L 389 425.5 L 390 427.5 L 389 430.5 L 388.5 432 L 387 423.5 L 387.5 414 Z  M 81.5 415 L 83 420.5 L 80.5 427 L 80 418.5 L 81.5 415 Z  M 147.5 416 L 156 422.5 L 154.5 422 L 152.5 423 L 148 420.5 Q 150.25 419.25 147.5 418 L 146 417.5 L 147.5 416 Z  M 408.5 416 L 413 418.5 L 410.5 419 L 408.5 416 Z  M 123.5 419 L 130 421.5 L 129.5 423 L 136.5 423 L 137 424.5 Q 135.75 427.25 134.5 425 Q 126 424.25 123.5 419 Z  M 428 423 L 434.5 423 L 435 425 L 432.5 424 L 428 426 L 428 423 Z  M 442.5 425 L 444 428.5 L 443 428.5 L 442.5 425 Z  M 144.5 426 L 145 429 Q 141.188 430 140 427.5 L 141.5 428 L 144.5 426 Z  M 107.5 432 L 110 437 L 116 441.5 L 112.5 439 L 107 434.5 L 107.5 432 Z  M 78 435 L 80 435.5 L 78.5 438 L 78 435 Z  M 406.5 440 L 408 440.5 L 406 441 L 405.5 443 L 405 441.5 L 406.5 440 Z  M 403.5 442 L 405 447 L 403 446.5 L 403 444.5 L 403.5 442 Z  M 77.5 445 L 78 454.5 L 77 454.5 L 77.5 445 Z  M 119.5 446 L 126 449.5 L 125.5 451 L 125 449 L 122.5 450 L 119.5 446 Z  M 390 448 L 392 448.5 L 390.5 451 L 390 448 Z  M 391.5 452 L 393 459.5 L 392 459.5 L 391.5 452 Z  M 123.5 453 L 125 455.5 L 123.5 458 L 123 456.5 L 124 454.5 L 123.5 453 Z  M 422.5 458 Q 426.875 456.5 426 459.5 L 423.5 460 L 422.5 458 Z  M 427.5 459 L 431 459.5 L 427.5 460 L 427.5 459 Z  M 435.5 460 Q 441.583 458.75 441 461.5 L 442 466.5 L 441 466.5 L 440 461 L 435.5 461 L 435.5 460 Z  M 393 461 L 395 461 L 395 465 Q 398 463.75 397 467.5 L 397 469.5 L 396 472.5 L 397 474.5 L 396 474.5 L 395 470.5 L 395 468.5 L 393 461 Z  M 118 468 Q 122.125 466.333 121 470.5 L 119.5 470 Q 116.875 470.667 118 468 Z  M 81.5 470 L 83 474.5 L 82 476.5 L 83 478.5 L 82 478.5 L 80 471.5 L 81.5 470 Z  M 444.5 474 L 447 480 Q 444.333 481.125 445 478.5 L 445.5 477 Q 442.375 477.75 444.5 474 Z  M 398.5 476 L 400 476.5 L 398 477.5 L 400 478.5 L 398.5 479 Q 395.5 477.5 398.5 476 Z  M 449.5 479 L 450 481.5 L 448 480.5 L 449.5 479 Z  M 400 481 Q 403 479.75 402 483.5 L 401.5 485 Q 404.125 484.167 403 487.5 L 401 486.5 L 400 484.5 L 400 482.5 L 400 481 Z  M 87.5 486 L 88 488 Q 90.667 489.125 90 486.5 L 92 487.5 L 90 488 L 91 491.5 L 86 487.5 L 87.5 486 Z  M 406.5 491 Q 408.75 490.25 408 492.5 L 410.5 493 Q 412.75 492.25 412 494.5 L 415 496 Q 412.917 501.2 417.5 500 L 417.5 501 L 415.5 502 Q 412.75 496.583 410 498.5 Q 412.25 497.25 409.5 496 L 407 494.5 Q 407.75 492.25 405.5 493 L 406.5 491 Z  M 118.5 492 L 116 495.5 L 114.5 498 L 113.5 496 L 115 496.5 L 116 494.5 L 115.5 493 Q 117 495.5 118.5 492 Z  M 100 496 L 102 496.5 L 101.5 498 Q 105.25 497.25 106 499.5 L 104.5 499 L 100.5 498 L 99 498.5 L 100 496 Z  M 111.5 496 L 111 497.5 L 109.5 500 L 107 499.5 L 110 499 L 111.5 496 Z  M 420 501 Q 426.994 499.714 429.5 504 Q 431 501.5 436.5 503 L 436.5 504 L 429.5 505 L 420 503 L 420 501 Z"/><path fill="rgb(0,0,0)" stroke="rgb(0,0,0)" stroke-width="1.2" stroke-linejoin="round" stroke-linecap="round" paint-order="stroke fill" id="grouped-path-8" d="M 544.5 21 L 548 22 L 558 38.5 L 563 54.5 L 566 72 Q 577.895 77.382 586 87.5 Q 596.607 99.893 603 116.5 Q 610.262 134.899 613 157 L 614.5 157 L 623 165.5 L 626 176.5 L 626 186.5 L 623 202.5 L 617 217.5 Q 608.6 232.6 595.5 243 Q 574.279 259.982 543 266 L 542 268.5 L 542 280.5 L 541 281.5 L 540 292.5 L 541.5 294 L 554.5 294 L 555.5 295 L 580.5 295 L 581.5 294 L 592.5 294 L 603.5 292 L 626.5 284 L 639.5 276 Q 666.715 249.715 698.5 228 L 709.5 225 L 716.5 225 Q 729.775 227.225 737 235.5 Q 744 243.5 743 259.5 L 741 267.5 L 737 274.5 L 720.5 291 Q 687.625 321.125 643.5 340 L 628.5 345 L 609.5 349 L 571.5 350 L 570.5 349 L 552.5 348 L 535.5 344 L 530 344 Q 548.841 389.913 583.5 421 Q 602.202 421.298 610 432.5 L 613 442.5 L 608 456.5 L 602 464 L 588.5 473 L 577.5 476 L 570.5 476 L 552.5 471 L 527.5 456 Q 501.08 436.42 479 412.5 L 462.5 393 Q 457.75 392.25 457 395.5 L 450 428.5 L 449 468.5 Q 461.343 476.157 461 496.5 L 454.5 506 Q 444.225 513.725 424.5 512 L 411.5 508 L 402 500.5 Q 391.664 488.336 387 470.5 L 382 443.5 L 381 427.5 L 380 426.5 L 380 412.5 L 379 407 L 358.5 411 L 350.5 411 L 340.5 413 L 311.5 414 L 310.5 413 L 298 413 L 296 420.5 L 296 426.5 L 306 441.5 L 314.5 450 Q 322.756 453.244 328 459.5 Q 334.5 466 335 478.5 Q 333.523 487.023 327.5 491 Q 321.65 496.15 312.5 498 L 295.5 498 Q 279.814 495.186 268.5 488 Q 247.319 475.181 232 456.5 L 222 440.5 L 219 418.5 L 215 403.5 L 211.5 398 Q 198.718 412.718 181.5 423 L 162.5 433 L 140.5 441 L 137 443.5 L 129 463.5 Q 130.75 469.75 128 471.5 L 129 472.5 L 129 481.5 L 126 494.5 L 117.5 505 Q 112.071 508.571 101.5 507 L 91.5 504 L 85 498.5 L 77 486.5 L 72 471.5 L 71 458.5 L 70 457.5 L 70 442.5 L 71 441.5 L 72 424.5 L 75 410.5 L 81 395.5 L 85.5 390 L 95 381.5 Q 111.768 364.268 120 338.5 L 123 324.5 L 124 302.5 L 125 301.5 L 125 293.5 L 126 292.5 L 127 281.5 Q 130.473 263.973 137 249.5 Q 148.819 221.819 170.5 204 Q 190.026 188.026 217.5 180 L 246.5 175 L 278.5 174 L 279.5 175 L 294.5 175 L 295.5 176 L 315.5 177 L 316.5 178 L 331.5 179 L 354.5 183 L 364.5 183 L 365.5 184 L 394.5 184 L 396 182.5 L 397 154.5 L 402 132.5 Q 410.869 104.869 429 86.5 L 429 71.5 L 430 70.5 L 430 61.5 L 432 50.5 L 436 36.5 L 441.5 26 L 447.5 26 L 459.5 30 Q 482.497 40.503 498.5 58 L 506.5 58 L 523.5 37 L 527 34.5 L 528.5 32 L 544.5 21 Z M 544 28 L 534 36 Q 523 45 515 58 L 520 59 L 528 59 L 539 61 L 559 67 L 553 43 L 548 33 L 545 30 Q 546 27 544 28 Z M 446 32 L 442 38 L 438 51 L 436 62 L 436 70 L 435 71 L 435 103 L 436 104 L 437 121 L 435 122 L 432 121 L 429 97 Q 416 111 409 131 L 404 151 L 403 169 L 402 170 L 402 185 L 403 188 L 401 190 L 392 190 L 391 191 L 361 190 L 353 188 L 346 188 L 344 188 L 335 186 L 321 185 L 320 184 L 313 184 L 306 182 L 295 182 L 294 181 L 252 181 L 251 182 L 249 181 Q 203 186 176 208 Q 156 224 144 249 L 137 267 L 132 287 L 131 302 L 130 303 L 129 326 L 127 332 L 127 337 L 122 352 Q 111 375 94 392 Q 91 391 92 394 L 90 395 Q 83 401 81 412 L 77 432 L 77 443 L 76 444 L 76 457 L 77 458 L 78 471 L 82 483 L 88 493 Q 92 499 102 501 Q 110 503 114 500 Q 120 496 122 488 L 123 484 L 123 463 L 128 450 L 128 447 L 132 438 L 169 423 L 195 406 Q 212 391 226 371 Q 229 371 230 374 L 218 392 L 257 402 L 282 405 L 283 406 L 294 406 L 295 407 L 340 407 L 341 406 L 351 406 L 379 401 L 379 368 Q 382 366 380 361 L 382 359 Q 385 358 386 361 L 386 372 L 385 373 L 385 409 L 386 410 L 386 425 L 387 426 L 388 444 L 394 473 L 401 489 L 406 496 Q 413 504 426 506 L 439 506 L 450 502 L 455 495 Q 454 478 443 472 L 443 460 L 442 459 L 443 436 L 444 435 L 445 420 Q 448 413 448 404 L 462 361 L 465 360 L 467 361 L 468 364 L 460 386 L 472 381 L 492 367 Q 512 350 524 325 L 533 298 L 535 281 L 536 280 L 537 263 L 542 260 L 556 257 L 569 252 Q 583 246 595 236 Q 609 224 616 205 L 616 202 L 604 209 Q 587 210 582 200 Q 580 193 586 195 L 587 198 Q 590 203 598 204 Q 604 205 608 202 L 613 196 Q 614 193 619 194 L 620 185 L 619 183 L 611 182 L 604 178 L 602 175 L 602 170 Q 605 165 612 164 L 607 159 L 603 136 L 596 116 Q 590 102 582 92 Q 579 93 580 91 Q 569 77 551 71 L 536 67 L 525 66 L 524 65 L 514 65 L 513 64 L 504 65 L 507 69 L 507 71 Q 508 74 503 72 L 499 68 Q 486 53 470 42 Q 459 35 446 32 Z M 613 169 L 609 171 Q 606 170 607 173 Q 611 178 619 178 L 619 172 L 618 171 Q 619 168 613 169 Z M 710 231 Q 700 233 695 239 Q 692 238 693 241 Q 673 253 657 270 Q 654 269 655 272 L 638 285 L 617 295 L 601 299 L 583 300 L 582 301 L 540 300 L 526 336 L 548 341 L 557 341 L 566 343 L 576 343 L 577 344 L 599 344 Q 600 341 607 343 L 627 339 L 650 331 L 691 307 L 718 285 L 733 270 L 737 261 Q 739 247 733 241 Q 726 231 710 231 Z M 522 342 L 510 358 Q 493 377 468 390 L 483 408 Q 503 430 528 448 L 551 463 L 567 469 L 582 469 Q 590 467 596 461 Q 602 455 606 447 L 606 438 Q 599 427 581 427 L 562 409 L 547 390 Q 532 368 522 342 Z M 220 398 L 225 418 L 227 436 L 236 452 Q 250 468 268 480 L 286 489 L 299 492 L 311 492 L 323 487 L 328 481 Q 329 469 324 465 Q 319 458 311 455 Q 297 444 289 427 L 291 412 L 281 412 L 280 411 L 273 411 L 260 408 L 255 408 L 227 401 L 220 398 Z  M 562.5 146 Q 569.778 145.222 572 149.5 Q 576.5 154 575 164.5 L 569.5 173 L 561.5 174 L 557 170.5 Q 552.5 166 554 155.5 L 560.5 147 L 562.5 146 Z M 566 149 L 562 153 L 563 157 Q 564 159 570 158 Q 573 157 572 152 Q 571 148 566 149 Z  M 502.5 182 L 526.5 182 L 536.5 184 L 538 185.5 L 536.5 189 L 522.5 186 L 504.5 186 L 501.5 187 L 500 183 L 502.5 182 Z  M 529.5 195 Q 535.5 193.5 537 196.5 Q 538.125 199.833 535.5 199 L 534.5 200 L 518.5 201 L 504.5 206 L 499 206 L 500.5 202 L 511.5 198 L 521.5 196 L 528.5 196 L 529.5 195 Z  M 535.5 205 L 539 206.5 Q 540.125 209.833 537.5 209 L 522.5 216 L 509.5 226 L 505.5 227 L 504 224.5 Q 516.872 211.872 535.5 205 Z"/><path fill="rgb(96,93,92)" stroke="rgb(96,93,92)" stroke-width="1.2" stroke-linejoin="round" stroke-linecap="round" paint-order="stroke fill" id="grouped-path-9" d="M 614.5 169 L 618 170.5 L 619 177.5 L 617.5 177 L 609 175 L 608 171 L 614.5 169 Z  M 402.5 172 L 403 178.5 L 402 178.5 L 402.5 172 Z  M 435.5 177 L 441 177.5 L 435.5 178 L 435.5 177 Z  M 453.5 177 L 458 177.5 L 453.5 178 L 453.5 177 Z  M 443.5 195 L 458 195.5 L 443.5 196 L 443.5 195 Z  M 304.5 202 L 305 205.5 L 304 205.5 L 304.5 202 Z  M 358.5 210 L 359 213.5 L 358 213.5 L 358.5 210 Z  M 185.5 212 L 186 221.5 L 185 221.5 L 185.5 212 Z  M 387.5 214 L 388 219.5 L 387 219.5 L 387.5 214 Z  M 429.5 220 L 434 220.5 L 429.5 221 L 429.5 220 Z  M 304.5 223 L 305 227.5 L 304 227.5 L 304.5 223 Z  M 245.5 226 L 246 229.5 L 245 229.5 L 245.5 226 Z  M 386.5 232 L 387 237.5 L 386 237.5 L 386.5 232 Z  M 333.5 236 L 334 239.5 L 333 239.5 L 333.5 236 Z  M 214.5 244 L 215 249.5 L 214 249.5 L 214.5 244 Z  M 387.5 249 L 388 255.5 L 387 255.5 L 387.5 249 Z  M 214.5 258 L 215 262.5 L 214 262.5 L 214.5 258 Z  M 333.5 265 L 334 268.5 L 333 268.5 L 333.5 265 Z  M 274.5 267 L 275 270.5 L 274 270.5 L 274.5 267 Z  M 554.5 301 Q 561.5 299.5 561 302.5 L 559.5 302 Q 553.5 303.25 554.5 301 Z  M 544.5 302 L 543 304.5 L 541.5 307 L 542 305.5 L 544.5 302 Z  M 559.5 304 L 559 305.5 L 558.5 307 L 558 305.5 L 559.5 304 Z  M 577.5 318 L 578 329.5 L 577 329.5 L 577.5 318 Z  M 544.5 339 L 548 339.5 L 544.5 340 L 544.5 339 Z  M 553.5 339 L 554 341 L 551 340.5 L 553.5 339 Z  M 519.5 345 L 520 346.5 L 517 348.5 L 519.5 345 Z  M 515.5 351 L 515 352.5 L 514.5 354 L 514 352.5 L 515.5 351 Z  M 525.5 352 L 529 358.5 L 527 357.5 L 525.5 352 Z  M 530.5 362 L 533 366.5 L 531 365.5 L 530.5 362 Z  M 533.5 368 L 534 369.5 L 532 370.5 L 533.5 368 Z  M 529.5 376 L 528 378.5 L 526.5 381 L 527 379.5 L 529.5 376 Z  M 378.5 377 L 379 390.5 L 378 390.5 L 378.5 377 Z  M 385.5 379 L 386 383.5 L 385 383.5 L 385.5 379 Z  M 525.5 382 L 523 385.5 L 521.5 388 L 522 386.5 L 525.5 382 Z  M 474.5 386 L 473.5 388 L 472 387.5 L 474.5 386 Z  M 132.5 388 L 133 393.5 L 132 393.5 L 132.5 388 Z  M 547.5 392 L 550 392.5 Q 544.083 393.083 542.5 398 L 547.5 392 Z  M 378.5 393 L 379 399.5 L 377 400.5 L 378.5 393 Z  M 385.5 394 L 386 403.5 L 385 403.5 L 385.5 394 Z  M 540.5 398 L 537.5 402 L 530.5 406 L 531.5 404 L 540.5 398 Z  M 479.5 402 L 483 404.5 L 481.5 405 L 479.5 402 Z  M 552.5 405 L 552 406.5 L 549.5 410 L 551 407.5 L 552.5 405 Z  M 245.5 406 Q 248.833 404.875 248 407.5 L 246.5 407 L 245.5 406 Z  M 329.5 406 L 333 406.5 L 329.5 407 L 329.5 406 Z  M 246.5 409 L 250.5 416 L 256 417.5 L 252.5 418 L 247 413.5 L 246.5 409 Z  M 513.5 410 L 519 410.5 L 513.5 411 L 513.5 410 Z  M 224.5 411 L 225 414.5 L 224 414.5 L 224.5 411 Z  M 548.5 411 L 547 413.5 L 543.5 418 L 546 414.5 L 548.5 411 Z  M 104.5 413 L 103 415.5 L 102.5 417 L 102 415.5 L 104.5 413 Z  M 282.5 416 L 285 416.5 Q 281.9 418.9 275.5 418 L 275.5 417 Q 281 418.5 282.5 416 Z  M 260.5 418 L 271 418.5 L 260.5 419 L 260.5 418 Z  M 542.5 419 L 538 424.5 L 536.5 427 L 536 425.5 L 542.5 419 Z  M 288.5 423 L 289 424.5 L 286 426.5 L 288.5 423 Z  M 501.5 424 L 505 426 L 504.5 428 L 501.5 424 Z  M 565.5 424 L 562.5 428 L 559.5 430 L 561.5 427 L 565.5 424 Z  M 280.5 429 L 282 429.5 L 279.5 431 L 280.5 429 Z  M 557.5 430 L 556.5 432 L 553.5 433 L 553.5 432 L 557.5 430 Z  M 275.5 432 L 274.5 434 L 273 433.5 L 275.5 432 Z  M 535.5 432 L 537.5 435 L 544 436.5 L 539.5 437 L 535 433.5 L 535.5 432 Z  M 599.5 432 L 604 435.5 Q 607.4 438.1 606 445.5 L 605 445.5 L 605 439.5 L 599.5 432 Z  M 270.5 434 L 272 434.5 L 266.5 437 L 266.5 436 L 270.5 434 Z  M 259.5 439 L 261 439.5 L 256.5 442 L 257.5 440 L 259.5 439 Z  M 411.5 440 L 415 440.5 L 411.5 441 L 411.5 440 Z  M 254.5 443 L 254 444.5 L 255 448.5 L 253 447.5 Q 252.25 443.75 254.5 443 Z  M 531.5 449 L 535 451.5 L 532.5 450 L 531.5 449 Z  M 275.5 453 L 279 453.5 L 275.5 454 L 275.5 453 Z  M 308.5 453 L 320 461.5 L 317.5 460 L 312.5 458 L 308.5 453 Z  M 600.5 454 L 594.5 461 L 595 459.5 Q 594.25 457.25 596.5 458 L 600.5 454 Z  M 543.5 457 L 549 460.5 L 547.5 460 Q 543.5 459.5 543.5 457 Z  M 436.5 459 L 442 459.5 L 436.5 460 L 436.5 459 Z  M 589.5 463 L 591 463.5 L 585.5 467 L 586.5 465 L 589.5 463 Z  M 442.5 465 L 443 468.5 L 442 468.5 L 442.5 465 Z  M 327.5 474 L 328 479.5 L 327 479.5 L 327.5 474 Z  M 105.5 500 L 110 500.5 L 105.5 501 L 105.5 500 Z"/></svg>