<?xml version="1.0" encoding="UTF-8" standalone="no"?>
<svg
   viewBox="0 0 82.271507 66.058464"
   version="1.1"
   desc="Created with imagetracer.js version 1.2.6"
   shape-rendering="geometricPrecision"
   id="svg1"
   sodipodi:docname="pandamain.svg"
   width="82.271507"
   height="66.058464"
   inkscape:version="1.4 (86a8ad7, 2024-10-11)"
   xmlns:inkscape="http://www.inkscape.org/namespaces/inkscape"
   xmlns:sodipodi="http://sodipodi.sourceforge.net/DTD/sodipodi-0.dtd"
   xmlns="http://www.w3.org/2000/svg"
   xmlns:svg="http://www.w3.org/2000/svg">
  <defs
     id="defs1" />
  <sodipodi:namedview
     id="namedview1"
     pagecolor="#ffffff"
     bordercolor="#111111"
     borderopacity="1"
     inkscape:showpageshadow="0"
     inkscape:pageopacity="0"
     inkscape:pagecheckerboard="1"
     inkscape:deskcolor="#d1d1d1"
     inkscape:zoom="4.0051813"
     inkscape:cx="60.047219"
     inkscape:cy="54.554334"
     inkscape:window-width="1920"
     inkscape:window-height="1017"
     inkscape:window-x="-8"
     inkscape:window-y="-8"
     inkscape:window-maximized="1"
     inkscape:current-layer="svg1" />
  <path
     fill="#b9b8b7"
     stroke="#b9b8b7"
     stroke-width="0.480735"
     stroke-linejoin="round"
     stroke-linecap="round"
     paint-order="stroke fill"
     id="grouped-path-0"
     d="M 51.981364,0.24033383 52.496503,1.2703515 Q 51.573718,0.62659047 49.233958,0.92701231 L 47.51683,1.6136908 V 1.2703515 Z m 1.030277,0.68667848 1.545416,0.34333919 0.515139,1.0300178 0.858564,0.5150088 0.171713,0.5150089 h 2.40398 0.686851 l 0.858564,0.5150089 -3.434257,0.3433392 0.686852,1.7166962 H 56.961037 L 55.587334,2.6437085 54.041918,1.95703 55.587334,3.8453959 55.415621,4.7037439 54.900483,4.5320743 54.72877,5.0470832 54.557057,4.1887351 54.72877,3.6737262 54.213631,3.1587174 q -0.600995,0.543506 -1.20199,-0.5150089 L 52.496503,3.1587174 51.809651,2.8153781 51.981364,1.6136908 h 0.686852 L 53.698493,1.95703 53.355067,1.2703515 Z M 46.829978,1.6136908 46.143127,2.6437085 45.284563,3.1587174 44.769424,3.6737262 44.082573,4.7037439 43.91086,4.1887351 45.284563,2.3003693 Z m 16.141009,2.4033747 0.686851,0.3433392 H 64.34469 L 66.576957,5.0470832 66.405244,5.7337617 63.314413,4.7037439 Z M 43.395721,5.0470832 43.567434,5.9054313 43.052296,6.7637794 42.880583,6.2487705 Z m 23.696374,0.3433392 2.575693,1.373357 -0.171713,0.6866785 -0.858564,-0.3433393 Q 69.066793,6.0771009 67.778947,6.4204401 L 66.920383,6.0771009 Z M 57.476176,6.4204401 57.647888,7.6221275 57.304463,8.4804756 56.617611,8.308806 Z M 42.70887,7.1071186 42.880583,10.025502 q -0.858564,0.515009 0.343426,1.030018 l 1.373702,2.918383 2.232267,1.373357 2.060555,0.34334 1.545415,-0.686679 0.343426,-1.373357 1.20199,-0.686678 v -0.686679 l 0.515139,-0.515009 1.030277,-0.515008 0.171713,-1.030018 0.515138,0.171669 V 9.8538326 h 1.030277 Q 54.857554,8.9381468 55.759047,9.1671541 l 0.686851,-0.3433393 v 0.3433393 l -0.858564,0.5150088 -0.515138,0.5150091 -1.20199,0.686678 q 0.386353,0.915686 -0.515139,0.686679 l -0.343426,1.030017 -0.515138,0.515009 -0.343426,0.858348 Q 50.865231,13.458895 51.1228,14.488912 l -0.343426,0.858348 -1.030277,0.515009 0.515139,0.17167 0.515138,-0.17167 -1.030277,0.515009 q 0.429282,1.030018 -0.858564,0.686679 h -0.686852 l -2.232267,0.858348 -0.858564,1.201687 -0.515139,-0.17167 0.343426,-0.686678 -2.40398,2.060035 -1.030277,2.060036 1.20199,-0.858348 0.515139,0.171669 -0.343426,0.686679 0.343426,0.343339 -1.373703,1.373357 0.343425,0.343339 0.171713,0.515009 0.858565,-0.515009 -0.686852,1.030018 0.515139,0.858348 0.515138,-0.17167 -0.343425,1.030018 0.515138,-0.171669 0.515139,0.515008 -1.373703,2.060036 0.686851,0.171669 0.858565,-1.373356 0.515138,0.171669 -1.030277,1.716696 0.515139,1.201688 1.20199,-0.686679 -0.343426,2.231705 h 0.343426 l 0.515138,-0.858348 0.515139,0.17167 -0.343426,1.373357 0.515138,-0.17167 h 0.515139 q -0.643923,1.648028 0.515139,1.373357 h 0.686851 q 1.287846,-0.429174 0.858564,0.858348 l 0.515139,-0.171669 1.717128,1.716696 0.686852,-0.343339 0.686851,1.373356 0.171713,-0.686678 4.636247,1.716696 0.515139,-0.171669 0.171713,0.515008 1.030277,-0.343339 2.060554,0.686679 0.686851,-0.34334 1.030278,0.686679 0.858564,-0.515009 q -0.309083,1.15877 1.545416,0.515009 l 1.888841,-0.858348 q -0.286074,0.901265 0.858564,0.515009 l 1.373703,-1.030018 0.686851,0.343339 3.777683,-1.030018 2.40398,-2.060035 0.171713,0.858348 -1.030277,1.545027 Q 74.933535,38.308072 75.1626,39.209338 l -3.090832,1.545026 0.171713,0.686679 q 4.206965,-1.630862 6.696801,-4.978419 l 0.686852,-1.545027 -1.888842,0.343339 v -0.343339 l 2.575693,-0.686678 0.343426,-2.746714 h -0.858564 l -1.545416,-1.201688 -0.343426,-0.686678 1.20199,0.858348 1.717129,0.686678 0.858564,-0.515008 q -0.807394,4.585295 -3.090831,7.381793 h -0.686852 v 0.686679 l -1.20199,0.686678 -5.151385,3.090053 -4.121109,1.030018 -6.00995,0.515009 0.515139,0.858348 -0.858565,-1.201687 0.171713,-0.515009 h -3.090831 l -7.21194,-1.716696 -5.151386,-2.403375 -3.60597,-2.918384 -2.060554,-2.403374 -0.343426,-1.201688 Q 38.759474,32.943396 39.1029,31.655874 l -1.717129,-3.433392 v -0.686679 l 0.343426,-1.030017 -0.686851,-0.17167 -0.343426,-2.231705 0.343426,-0.686678 -0.343426,-1.373357 v -0.686679 l 0.171713,-0.515009 0.858564,1.201688 q -1.20199,0.515008 -0.343426,1.030017 l 0.171713,0.515009 0.515139,-2.231705 2.40398,-4.120071 -0.515139,-0.171669 -0.515138,0.171669 1.030277,-1.030018 -0.343426,-0.343339 0.686852,-1.373357 1.030277,-2.746714 -1.373703,1.030018 -2.060554,3.776732 -1.030278,3.948401 q -1.030277,0.429174 -0.686851,-0.858348 l 1.717129,-4.120071 -0.171713,-0.515009 0.515138,-0.515009 0.686852,-1.030017 -0.171713,-0.515009 0.515138,0.171669 2.060555,-3.2617224 0.686851,-0.1716697 z M 71.728342,40.754364 67.263808,42.47106 h -2.40398 v 0.34334 h 2.747406 l 4.121108,-1.373357 z m 3.262545,-28.153818 1.20199,1.888366 -0.686852,0.17167 z m -8.585643,4.80675 h 2.40398 l 3.262544,1.716696 2.060554,4.63508 v 4.120071 l -0.686851,1.030017 q 0.858564,0.515009 -0.343426,1.030018 l -1.888841,2.575044 q -2.179723,2.112567 -6.868514,1.716697 v -0.34334 q 6.007546,0.340936 8.070504,-3.261722 l 1.373703,-2.746714 V 24.102411 L 72.75862,21.012358 71.55663,19.467331 q -1.46162,-1.800471 -4.80796,-1.716696 -3.520114,0.944183 -5.323099,3.605062 l -2.747406,5.150089 V 29.2525 l 2.232268,3.261722 2.919118,1.030018 q 0.386354,0.915686 -0.515138,0.686679 L 59.365017,31.655874 Q 57.762249,29.996516 58.33474,26.162446 l 3.434257,-6.008436 q 0.915916,0.386256 0.686851,-0.515009 1.356532,-1.733863 3.949396,-2.231705 z m -18.201563,0.686678 0.858565,0.17167 -1.545416,1.201687 v -1.030017 z m 29.191186,0.34334 q 1.131587,1.95875 0.858564,5.321758 l 0.686851,1.888366 1.030278,0.515008 q 0.229064,0.901266 -0.686852,0.515009 0.386354,-0.915685 -0.515138,-0.686678 l -1.20199,-2.918384 z m -51.513857,1.716696 1.373703,0.343339 h 1.373703 l 1.030277,-0.343339 0.343426,0.343339 4.979672,0.17167 -1.373702,0.343339 v 0.686678 l -0.343426,0.686679 v 0.686678 5.150089 l 0.343426,0.343339 V 29.2525 l 0.686851,5.150088 2.060554,4.80675 q 2.115503,4.972925 5.494812,8.411811 l 2.40398,1.888366 q -0.772708,0.429174 0.171713,0.858348 l 1.20199,1.201687 0.515138,-0.171669 0.686851,0.343339 0.686852,-0.343339 0.858564,0.515008 -2.575693,1.545027 -4.464534,1.030018 -0.686851,0.686678 -7.555366,0.343339 -6.868514,-1.030017 -3.60597,-1.545027 0.343426,-0.858348 q 0.915916,0.386257 0.686851,-0.515009 l 1.717129,-3.776731 V 44.016087 L 23.648743,39.724346 H 22.961892 L 22.27504,38.350989 h -0.858564 l -0.686851,-1.030017 q -0.515139,0.858348 -1.030278,-0.343339 l -0.858564,-0.515009 q -0.229065,-0.901266 0.686852,-0.515009 -0.429283,1.030018 0.858564,0.686678 l 0.858564,0.17167 0.515139,1.201687 1.030277,-0.343339 0.515138,1.201687 q -0.229065,0.901266 0.686852,0.515009 v 1.201688 l 0.686851,-0.34334 -0.343426,-0.686678 0.515139,0.171669 0.515139,0.17167 -0.343426,0.858348 0.858564,0.343339 q 0.600995,-0.944183 1.20199,0.515009 -0.429282,2.088533 0.515139,1.888366 l -0.171713,0.515009 0.343426,2.231705 0.858564,-0.343339 v 0.686678 l 1.545416,0.515009 -0.686852,1.030018 0.515139,0.171669 0.686851,-0.343339 0.686852,0.343339 0.686851,-0.343339 -0.343426,0.686679 -1.20199,0.858348 0.515139,0.171669 1.373703,-1.030017 h 0.686851 1.373703 l 2.40398,-1.373357 -0.686852,1.373357 1.888842,-1.201688 -0.343426,-2.231705 q -0.915916,0.386257 -0.686851,-0.515009 l 0.343425,-0.858348 q -0.915916,0.386257 -0.686851,-0.515009 l 0.343426,-0.686678 -1.373703,0.686678 q 1.116133,-0.497841 0.686851,-2.231705 -0.915916,0.386257 -0.686851,-0.515008 l 0.343426,-1.030018 -1.373703,-3.090053 Q 35.49693,35.947615 34.29494,35.432606 L 33.608089,33.37257 33.951514,32.342553 32.921237,29.595839 V 28.90916 l -0.343425,-0.686678 0.343425,-2.403375 -0.343425,-1.030018 0.343425,-1.030017 -0.343425,-0.858348 0.686851,-0.17167 V 22.042376 21.184027 H 31.032396 L 30.68897,20.840688 h -4.464534 l -0.686852,0.343339 h -0.686851 q -7.405289,0.493379 -11.161336,4.63508 l -0.515138,0.858348 -1.20199,0.858348 0.515138,0.515009 0.686852,-0.343339 v 0.343339 l -1.373703,0.686679 q -0.429282,-0.772514 -0.858564,0.171669 l -0.343426,1.030018 0.515139,0.17167 q 1.017913,-1.729057 3.434257,-2.060036 l -0.686852,1.030018 -0.858564,0.515009 -0.343426,1.545026 1.888842,-0.686678 -1.373703,1.716696 -0.858564,0.515009 0.858564,0.17167 0.515138,-0.17167 -0.686851,1.030018 0.858564,0.515009 0.858565,-0.34334 -0.343426,0.858348 0.515138,0.17167 1.030278,-0.343339 0.343425,1.030018 q 1.760057,-0.214587 2.232267,0.858348 l -0.515138,0.171669 q -0.772708,-1.459192 -3.777683,-0.686678 l -1.373703,0.686678 H 12.143982 L 9.9117147,38.522659 9.3965761,39.037668 7.6794476,42.47106 7.164309,41.956051 6.8208833,37.835981 v -0.686679 l 1.3737028,-4.978419 q 0.9159164,0.386257 0.6868514,-0.515009 l 2.0605545,-3.605062 q 0.915916,0.386257 0.686851,-0.515009 l 1.373703,-1.888365 1.717129,-1.201688 Q 13.86111,22.900724 11.628843,22.729054 l 0.858564,-0.17167 2.40398,1.716697 1.20199,-0.686679 q -0.429282,-1.030018 0.858565,-0.686678 l 3.434257,-1.716697 z M 8.8814375,33.200901 8.1945861,34.574258 8.5380118,35.604276 9.2248633,34.230919 Z m -0.6868514,2.403375 v 2.746713 L 8.5380118,36.634293 Z M 66.405244,20.497349 q 3.219616,-0.643761 4.292821,0.858348 l -0.515138,-0.17167 -2.060554,-0.343339 q -2.342507,0.576467 -3.434258,2.403375 l -0.515138,-0.17167 0.343426,0.686679 -1.030278,0.343339 q -0.94442,1.459192 -0.686851,4.120071 l 1.373703,2.918383 3.262544,1.030018 1.888841,-0.343339 -0.171712,0.686678 -1.373703,-0.343339 -2.060554,0.343339 -2.575693,-1.888365 q -1.390874,-1.52786 -1.030277,-4.80675 0.600995,-3.175888 2.919118,-4.63508 z m 4.121108,1.716696 0.686852,1.030018 0.515138,0.17167 -0.515138,0.858348 -0.686852,-1.373357 -0.515138,0.858348 0.343426,0.858348 0.686851,0.171669 -0.515139,0.17167 -1.20199,-1.545026 z m -61.8166273,0.343339 0.5151386,0.17167 -2.40398,1.201687 -1.20199,2.746714 -0.1717129,-0.858348 1.5454157,-2.231705 z m 58.0389453,0.34334 q 1.631272,-0.257505 1.888841,0.858348 0.257569,1.630861 -0.858564,1.888366 -1.545416,0.343339 -1.888842,-0.515009 l 0.515139,0.171669 q 1.545416,0.34334 1.888841,-0.515009 l -0.515138,-1.545026 q -1.373703,0.257504 -1.030277,-0.343339 z m -3.090832,2.403374 0.171713,2.231705 h -0.343426 z m 17.514711,1.373357 0.858565,1.201688 h -0.343426 l -0.171713,-0.515009 -0.171713,0.686678 q -1.845913,0.515009 -2.40398,-0.515009 z m -15.969295,1.716697 2.060554,0.686678 0.343426,1.201687 -0.515139,-0.171669 -1.030277,0.343339 -1.888841,-1.201687 1.030277,-0.34334 z M 6.3057447,30.454187 7.6794476,32.170883 6.8208833,31.827544 Z m 56.3218163,14.763587 1.888842,2.231705 -2.060555,-1.716696 z M 6.3057447,45.904453 6.4774576,46.419462 4.5886162,49.681184 4.760329,49.166176 Z m 57.6955193,2.403374 2.919119,2.575045 -0.858565,-0.515009 -1.20199,-0.858348 -0.515138,-0.515009 z m 2.060554,0.686679 3.60597,2.575044 -0.515138,0.17167 q -2.240853,-0.9871 -3.090832,-2.746714 z m 6.868514,3.433392 1.545416,1.201688 -0.858564,-0.515009 z m -19.231839,3.090053 3.60597,2.231706 -0.515139,0.171669 z m -20.605543,0.34334 0.171713,2.231705 h -0.343426 z m 20.262117,1.373357 0.171713,2.231705 h -0.343426 z m 5.151386,1.030017 1.545415,0.858348 -0.515138,-0.171669 q -1.287847,0.171669 -1.030277,-0.686679 z m -36.746551,1.373357 0.858564,1.545027 H 22.27504 Z m 32.968868,0.34334 1.545416,2.231705 H 55.93076 Z m -12.0199,0.343339 1.20199,2.231705 -0.686851,-0.343339 z" />
  <path
     fill="#e6e6e5"
     stroke="#e6e6e5"
     stroke-width="0.480735"
     stroke-linejoin="round"
     stroke-linecap="round"
     paint-order="stroke fill"
     id="grouped-path-1"
     d="m 59.880155,3.330387 h 0.858565 q -0.386354,0.9156857 0.515138,0.6866785 V 4.3604047 Q 59.651091,4.5320743 59.880155,3.330387 Z m -2.060554,1.3733569 0.858564,0.5150089 0.171713,0.5150089 1.030277,-0.3433393 q -1.030277,0.8583481 0,1.7166962 L 58.849878,6.7637794 59.021591,7.2787882 59.708443,8.308806 58.33474,8.6521452 58.849878,9.5104933 57.819601,9.1671541 v 0.6866785 l -0.515138,0.1716694 0.343425,0.686679 -0.343425,0.686678 0.171713,0.515009 -1.030278,-0.343339 -1.20199,0.686678 q 0.515139,1.287522 -0.515138,1.030018 l -2.575693,2.060035 q -0.715356,1.785364 0.858564,1.373357 v 0.34334 q -2.367233,-0.306602 -3.262544,0.858348 l 0.515139,0.171669 0.858564,-0.343339 q 0.386354,0.915686 -0.515139,0.686679 l -2.575693,2.918383 0.515139,0.17167 1.373703,-0.686679 -0.343426,0.686679 -0.515138,0.515009 -2.232268,1.545026 v -0.343339 l 0.858565,-0.515009 -0.515139,-0.515009 -2.232267,2.575044 0.515139,0.17167 2.747405,-1.373357 -0.686851,1.030018 -0.858564,0.515009 0.343425,0.343339 -1.20199,1.201687 -0.515138,0.17167 0.171713,0.515009 -0.686852,-0.343339 h -0.686851 l -0.686852,0.343339 -0.171712,-0.515009 0.343425,-0.686679 h -0.686851 l -0.343426,-0.686678 0.686852,-1.030018 -1.373703,0.686679 0.343425,-0.686679 -0.343425,-0.343339 1.373703,-1.373357 -0.343426,-0.343339 0.343426,-0.686679 -0.515139,-0.171669 -1.373703,1.716696 -0.171713,-0.515009 q 1.241141,-2.879243 3.60597,-4.63508 l 0.171713,0.515009 -0.171713,0.515009 1.20199,-0.858348 0.515139,-0.858348 1.717128,-0.343339 h 0.686852 0.858564 q -0.386354,-0.915686 0.515139,-0.686679 v -0.343339 l -0.515139,-0.17167 1.030277,-0.515009 0.343426,-1.373357 q 1.287846,0.515009 1.030277,-0.515008 l 0.343426,-0.858349 1.030277,-0.515008 -0.171713,-0.515009 1.030277,-0.686679 1.20199,-0.686678 0.515139,-1.0300179 1.20199,-0.6866785 V 7.7937971 h 0.686851 V 6.935449 Q 57.046893,6.6779446 57.304463,5.2187528 Z m -9.444207,13.3902301 -0.686851,0.34334 0.343425,0.686678 1.030278,-0.686678 z M 68.809224,6.0771009 69.15265,6.7637794 68.637511,6.5921098 68.465798,7.1071186 68.122373,6.4204401 Z m 1.030277,0.6866785 0.171713,1.0300177 0.858564,-0.3433392 0.171713,0.5150088 Q 70.440496,9.0813193 69.839501,7.7937971 L 68.980937,7.2787882 h 0.686851 z m 1.717129,1.373357 3.949395,4.6350796 h -1.030277 l 0.343426,-0.686678 -2.060554,-1.373357 0.343425,-0.686679 -0.515138,0.17167 -0.515139,-0.17167 Q 72.844476,9.5963281 71.900055,9.1671541 71.470773,9.9396674 71.041491,8.9954845 Z m -28.84776,2.0600356 -0.171713,0.515009 -2.060554,4.120071 0.343426,0.343339 -0.858565,1.888366 0.515139,0.171669 -2.40398,4.120071 -0.515139,2.231705 -0.515138,-0.858348 q 1.373703,-0.686678 0,-1.373357 l 1.030277,-2.060035 v -0.686679 q -0.386354,-1.14435 0.515138,-0.858348 l -0.171712,-0.515009 q -0.386354,-1.144349 0.515138,-0.858348 0.944421,-0.429174 0.171713,-0.858348 l 0.686851,-1.545027 q 1.144638,0.450805 0.686852,-1.201687 z m 32.968868,3.090053 1.20199,2.231705 h -1.030277 l 0.171713,-0.515009 -0.515139,-0.171669 0.686852,-0.34334 -1.030277,-0.343339 z m 0.686852,2.746714 1.20199,0.858348 -0.171713,0.858348 -0.858565,-0.17167 0.343426,-1.030017 z m -10.646197,0.343339 0.686851,0.343339 h 0.686851 l 1.030278,-0.343339 1.373702,0.686679 0.343426,-0.34334 0.686851,0.686679 2.575693,1.545026 v 1.030018 l 1.717129,2.060036 -0.343426,0.686678 1.20199,1.545027 q 1.287847,0.429174 0.858564,-0.858348 h 0.343426 q -0.343426,1.287522 0.686852,0.858348 l 0.171712,-1.030018 0.171713,0.858348 q -0.858564,0.515009 0.343426,1.030018 l -0.515139,0.515009 -2.232267,0.686678 -1.373703,3.433392 q -0.915916,-0.386256 -0.686851,0.515009 l -1.373703,1.030018 1.717129,-2.060035 v -0.686679 l 0.343425,-0.686678 v -4.120071 l -2.060554,-4.63508 -4.292821,-2.060035 -3.434257,1.030017 -1.888842,1.545027 -0.686851,1.030018 q -2.33083,2.132823 -3.434257,5.493427 v 3.433393 l 1.888841,2.918383 3.434257,1.716697 h 0.686852 q 5.057974,0.42162 7.21194,-2.060036 l 0.171712,0.858348 q 0.463625,1.573524 -1.545415,0.858348 L 69.667788,33.71591 69.15265,34.574258 q -2.710659,0.723416 -3.949396,2.918383 l 1.20199,0.17167 q 0.515139,-1.201687 1.030277,-0.343339 l 0.686852,0.343339 1.030277,-1.030018 1.888841,-0.343339 -0.343426,-1.201687 1.030277,-0.17167 0.171713,0.686679 1.030277,-1.373357 0.343426,0.686678 0.858564,-0.343339 q -0.515138,1.287522 0.515139,1.030018 l 1.545416,-0.858349 -0.171713,-0.515008 q 0.699215,1.189327 2.747406,1.030017 l 0.858564,-0.343339 q -0.920038,2.820189 -3.60597,4.46341 l -3.777683,2.060036 -0.171713,-0.686679 3.090832,-1.545026 0.686851,-1.030018 1.030277,-1.716696 -1.888841,1.545026 -4.80796,1.373357 q -0.515139,-0.858348 -1.030277,0.343339 l -1.545416,0.34334 -0.171713,-0.686679 -1.717128,1.030018 q -1.854499,0.643761 -1.545416,-0.515009 l -0.858564,0.515009 -0.343426,-0.343339 -1.030277,-0.34334 -0.858565,0.515009 0.171713,-0.515009 -2.40398,-0.343339 -0.515138,0.17167 -0.171713,-0.515009 -0.686851,0.343339 -4.292822,-1.716696 -0.171713,0.686678 -0.686851,-1.373356 -0.686852,0.343339 -1.717128,-1.716696 -0.515139,0.171669 q 0.429282,-1.287522 -0.858564,-0.858348 H 47.860256 47.345117 Q 47.98904,33.269569 46.829978,33.54424 l -0.515138,0.17167 0.343426,-1.373357 -0.515139,-0.17167 -0.686851,1.030018 -0.171713,-1.545027 0.343426,-0.858348 -1.20199,0.686679 -0.343426,-1.030018 -0.515139,0.17167 1.373703,-2.060036 -0.171713,-0.515009 1.545416,-0.343339 0.171713,0.686679 1.20199,-0.858349 -1.030277,1.373357 0.686851,1.030018 -0.171713,0.515009 1.717129,0.686678 1.030277,-1.373357 0.171713,1.030018 q -0.915917,-0.386256 -0.686852,0.515009 l -0.686851,1.201687 q 1.030277,-0.429174 0.686851,0.858348 l 1.030277,-0.686678 0.858565,-1.201687 -0.171713,0.515009 -0.343426,1.888365 h 1.888842 l 0.171712,0.515009 -0.343425,0.686679 0.515138,-0.17167 1.717129,0.686679 0.686851,-1.030018 0.171713,1.373357 2.060554,0.171669 -0.343425,0.686679 0.858564,-0.515009 0.686851,-0.343339 h 0.686852 l 0.515138,0.515009 h 0.686852 l 0.171713,0.858348 1.888841,-0.858348 -0.686851,-0.17167 -0.171713,-0.686678 q -0.429282,0.772513 -0.858565,-0.17167 l -0.171712,-1.201687 -0.686852,0.343339 0.171713,-0.515009 -1.20199,-1.201687 -0.343426,-1.030018 -1.20199,-0.515009 0.343426,-0.686678 -0.686851,-2.575045 q 1.373702,0.472092 0.686851,-1.888366 l -0.171713,-0.515008 0.858564,-0.515009 0.343426,-0.686679 -0.686851,-1.373357 1.030277,-0.171669 0.343426,-1.545027 -0.171713,-0.515009 1.20199,-0.343339 0.515138,-1.030018 0.515139,-0.171669 -0.515139,-0.858348 1.545416,0.343339 0.515139,-1.030018 0.515138,-0.17167 -0.171713,-0.515008 1.030277,0.343339 0.343426,-0.686679 0.515139,0.17167 z m -1.20199,19.570337 -1.030278,1.373357 h 1.030278 q -0.343426,-1.030018 0.686851,-0.686679 0.343426,-1.030017 -0.686851,-0.686678 z m -37.605116,-15.106927 3.949396,0.17167 -3.949396,0.171669 z m 5.494812,0.343339 q 1.287846,-0.429174 0.858564,0.858349 l -0.171713,0.858348 -0.515138,0.515009 0.343425,0.686678 -0.343425,0.686678 0.343425,1.030018 -0.343425,2.403375 0.686851,1.030018 -0.343426,0.686678 1.030277,3.090053 v 0.686679 q -0.220822,1.937463 1.030277,2.403374 l -0.343425,0.686679 0.686851,0.686678 0.686852,2.746714 -0.343426,0.858348 q 1.259342,-0.463508 0.686851,1.545027 h 0.686852 l -0.343426,1.201687 q 0.915916,-0.386256 0.686851,0.515009 l -0.343425,0.858348 q 1.144638,-0.450461 0.686851,1.201688 l 0.343426,1.030017 -3.090832,1.888366 0.171713,-0.686678 0.343426,0.343339 1.545416,-1.545027 -0.515139,-0.171669 -2.060554,1.373357 -1.717129,0.343339 q -0.515138,-0.858348 -1.030277,0.343339 l -1.030277,0.343339 0.686852,-1.030017 0.858564,-0.515009 -0.515139,-0.17167 -0.686851,0.343339 -0.686852,-0.343339 -0.686851,0.343339 0.171713,-0.515008 0.343426,-0.686679 -2.40398,-0.858348 -0.343426,-2.231705 0.171713,-0.515009 Q 26.653718,43.701245 27.083,41.612712 l -0.858564,-0.858348 h -0.686852 l -0.515138,0.515009 H 24.67902 l 0.686852,-1.373357 -0.686852,-0.17167 -0.515138,1.030018 -0.171713,-1.373357 q -0.915917,0.386257 -0.686852,-0.515009 L 22.790179,37.664311 21.759902,38.00765 21.07305,36.634293 H 20.386199 Q 19.241561,37.02055 19.527635,36.119284 L 18.66907,35.604276 v 0.686678 l -2.747405,-1.030018 -0.515139,0.17167 0.515139,-0.858348 -1.717129,0.686678 0.515139,-0.858348 -0.515139,-0.515009 -0.686851,0.34334 q -0.944421,-0.429174 -0.171713,-0.858349 0.286073,-0.901265 -0.858565,-0.515008 l 0.343426,-0.686679 1.888842,-1.545026 -0.515139,-0.17167 -1.545416,0.686678 0.858565,-2.060035 1.20199,-0.858348 -0.515139,-0.17167 -4.121108,2.746714 0.858564,-1.201687 V 28.90916 l 1.888841,-2.231705 0.858564,-0.515009 0.858565,-1.201687 2.747405,-1.716696 0.515139,0.17167 0.171713,-0.515009 0.686851,0.343339 v -0.686679 l 0.686852,1.030018 0.515138,-0.171669 q 0.25757,1.030017 -1.030277,0.515008 v 0.686679 l 1.545416,-0.343339 v 0.343339 l -1.888842,0.686678 q 0.429283,1.030018 -0.858564,0.686679 l -0.858564,1.373357 -0.686852,0.171669 0.686852,0.17167 q 0.386354,0.915686 -0.515139,0.686679 l -0.515138,0.858348 0.343425,0.686678 v 0.686679 q -0.229064,0.901265 0.686852,0.515008 l 1.20199,-1.716696 0.686851,-0.343339 -0.171713,0.515009 q 0.286074,0.901265 -0.858564,0.515009 l -0.515138,0.515009 0.171712,0.858348 0.858565,0.171669 -0.858565,1.201688 2.40398,-1.030018 -0.686851,1.373357 h 1.545416 q -0.386354,0.915686 0.515138,0.686678 l 0.515139,-0.171669 q -1.287847,0.600843 -0.171713,1.201687 l 2.060554,-1.030018 -0.171713,0.515009 -0.686851,1.716696 1.373703,-0.686678 -0.343426,1.030018 0.515139,-0.17167 1.030277,-0.686678 0.343425,0.686678 0.858565,-0.343339 q 0.386354,0.915686 -0.515139,0.686678 l -1.545416,0.858348 0.515139,0.515009 h 0.686851 l 2.232268,0.686679 0.343425,2.060035 0.858565,-0.343339 0.343425,0.686678 0.858565,-0.343339 1.888841,-2.403375 0.515139,-0.171669 -1.030278,-0.343339 0.515139,-1.201688 1.20199,-0.343339 -0.515139,-1.373357 -0.686851,0.343339 0.858564,-1.201687 -0.515138,-0.515009 -0.515139,-0.17167 1.030277,-0.686678 -0.686851,-0.343339 0.343426,-0.858348 -1.20199,0.686678 -0.171713,-0.515009 0.515138,-0.858348 -1.20199,-0.515009 1.030277,-0.343339 -1.030277,-0.343339 1.373703,-0.343339 -1.030277,-0.34334 v -0.686678 l 0.686851,-1.201687 -1.717128,-0.515009 1.030277,-0.34334 -0.686851,-1.030017 0.686851,-0.34334 -1.373703,-1.716696 0.515139,0.17167 q 0.901492,0.229007 0.515138,-0.686679 l -1.030277,-0.515008 0.858564,-0.17167 1.030278,0.343339 1.20199,-0.515009 z m 30.564888,4.80675 0.171713,2.231705 h -0.343426 z m 2.747406,2.746714 0.858564,0.515009 -0.515139,0.858348 -0.343425,-0.686679 0.515138,0.17167 -0.515138,-0.515009 z m 12.019899,0.343339 1.030278,1.716696 1.888841,0.686679 -0.343426,2.060035 -2.575693,0.686679 q -0.600995,-1.058515 -1.20199,-0.515009 l -0.858564,-1.201688 -0.686851,0.34334 0.343425,-0.686679 2.747406,1.030018 -0.171713,-0.515009 0.686852,-1.716696 z m -13.393602,1.716696 1.373703,0.686679 0.515138,-0.17167 -0.858564,0.515009 z M 9.3965761,31.827544 9.568289,32.342553 8.8814375,33.71591 v 0.686678 l -0.6868514,1.716696 v 0.686679 L 8.0228733,38.350989 7.8511604,35.775945 Z m 57.0086679,0 2.575693,0.515009 -1.20199,0.171669 -1.373703,-0.343339 z m 5.151386,8.92682 0.171712,0.686679 -4.292821,1.373357 h -2.747406 v -0.34334 h 2.40398 z"
     style="fill:#dcdcdc" />
  <path
     fill="#f7f7f7"
     stroke="#f7f7f7"
     stroke-width="0.480735"
     stroke-linejoin="round"
     stroke-linecap="round"
     paint-order="stroke fill"
     id="grouped-path-2"
     d="M 6.9925961,40.754364 7.5077347,42.64273 6.8208833,42.299391 Z m 54.6046879,3.090053 0.858564,0.17167 v 0.686678 l -0.171713,0.515009 z m 1.373703,1.373357 1.888841,2.231705 -2.060554,-1.716696 z m -59.0692223,4.80675 -0.5151385,0.858348 -0.8585643,1.201687 0.5151386,-0.858348 z m 29.5346113,5.493427 2.232267,0.17167 -2.232267,0.17167 z m 20.605542,0.34334 2.232268,1.545026 -0.515139,0.17167 L 54.041918,56.20463 53.698493,57.577987 53.52678,56.3763 Z m -35.029422,0.343339 0.343426,0.686678 -0.343426,-0.343339 -0.858564,0.515009 z m 40.180808,2.746714 1.888841,0.858348 -0.515138,0.17167 z m -4.121108,1.030018 1.545415,2.231705 h -0.343425 z m -28.504334,4.806749 3.60597,0.17167 -3.60597,0.171669 z" />
  <path
     fill="#f3f3f3"
     stroke="#f3f3f3"
     stroke-width="0.480735"
     stroke-linejoin="round"
     stroke-linecap="round"
     paint-order="stroke fill"
     id="grouped-path-3"
     d="m 59.880155,4.0170655 5.838238,1.3733569 6.353375,4.1200709 3.090832,4.2917407 1.717128,5.150088 q -0.772708,-0.600843 -1.545416,0.858349 l -0.515138,-0.17167 0.343426,-0.858348 q 1.144637,0.450804 0.686851,-1.201688 H 75.1626 l -0.171713,-1.201687 -0.171713,2.575044 -0.515139,0.515009 -1.030277,-1.373357 q -0.429282,0.772514 -0.858564,-0.171669 L 71.55663,16.720617 q -1.854499,0.643761 -1.545416,-0.515009 l -2.40398,-1.373356 0.686851,1.030017 -0.515138,0.17167 -2.747406,-1.030018 -0.171713,0.515009 0.343426,0.686678 H 64.859828 L 64.34469,15.6906 63.657838,15.34726 64.34469,16.720617 62.799274,16.033939 q 0.386354,0.915686 -0.515139,0.686678 l -0.686851,-0.343339 0.343426,1.030018 -1.20199,0.686678 v 0.686679 h -1.20199 l 0.171713,0.515009 -0.515139,0.858348 q -1.144638,-0.386257 -0.858564,0.515009 l 0.515138,0.858348 -1.545415,0.171669 1.373702,0.34334 -1.030277,0.515008 q -0.386354,0.915686 0.515139,0.686679 v 0.343339 l -1.545416,0.858348 1.030277,0.343339 q -0.558066,0.987101 -2.40398,0.686679 l 1.545416,0.515009 0.515139,-0.17167 -0.343426,1.888366 -1.030277,0.17167 1.030277,1.373357 -0.515139,0.858348 q 1.144638,-0.386257 0.858565,0.515009 v 0.686678 l 0.515138,0.515009 0.343426,1.030018 0.515138,0.171669 -1.201989,1.545027 -1.373703,0.343339 -0.171713,-0.686678 -0.686852,-0.17167 0.343426,-0.686679 -0.515138,0.17167 -0.686852,-0.343339 -1.20199,0.858348 1.373703,-1.716696 q -0.429282,-0.944183 -0.858564,-0.17167 l -0.515139,0.515009 -0.515138,0.858348 -0.171713,-0.858348 0.343425,-0.858348 -1.030277,-0.515009 1.373703,-1.030018 -0.858564,-0.171669 -1.888842,1.545026 0.686852,-1.716696 h -0.686852 q 0.600995,-1.802531 -1.20199,-1.201687 l -1.545415,1.030017 q 0.143208,-2.446292 2.232267,-3.433392 1.144638,0.386257 0.858564,-0.515009 h -0.686851 l 0.171713,-0.515009 -1.030278,0.686679 0.171713,-0.515009 1.030277,-1.716696 -0.858564,0.515009 -1.20199,0.858348 0.343426,0.343339 -1.030277,1.030018 -0.515139,0.858348 -0.858564,-0.17167 1.030277,-0.686678 0.686851,-1.030018 h -0.686851 l 2.232267,-2.918384 0.515139,-0.171669 -0.858565,-0.17167 -0.858564,0.515009 2.747406,-2.060035 0.343426,-0.686679 -1.373703,-0.171669 q -0.472211,-1.373357 1.888841,-0.686679 v -0.343339 l -0.515138,-0.17167 3.434257,-1.030018 -1.030277,-0.171669 0.686851,-1.716696 -0.686851,-0.17167 2.40398,-1.373357 -0.171713,-0.515009 h 1.20199 Q 56.589107,11.8452 58.163027,12.257207 l 1.888841,-0.858348 -1.717128,-0.686678 0.686851,-0.17167 0.686852,-1.3733569 -0.686852,-0.1716696 0.515139,-0.1716697 1.030277,0.3433393 Q 61.082145,7.9654667 61.597284,8.8238148 L 62.455848,8.308806 61.94071,7.4504579 61.253858,7.7937971 60.567007,6.7637794 62.284135,7.1071186 63.486125,6.2487705 62.970987,6.0771009 62.455848,6.2487705 62.799274,5.562092 62.284135,5.7337617 61.253858,5.3904224 60.73872,5.562092 60.223581,4.7037439 59.53673,5.0470832 59.365017,4.5320743 Z m -36.059699,17.1669615 7.727078,0.17167 -3.090831,0.343339 1.030277,0.686679 -1.030277,0.686678 1.030277,0.686679 -0.343426,1.373357 0.515139,0.858348 -0.515139,0.171669 1.373703,2.060036 -0.343425,1.030018 -0.343426,1.030017 0.686851,1.030018 -0.686851,2.403375 1.717128,-1.030018 -0.686851,1.030018 0.343426,0.686678 -3.262545,2.575045 -0.515138,-0.17167 q -0.286074,0.901265 0.858564,0.515009 l 0.343426,0.686678 -1.545416,-0.515009 -0.515138,-0.515008 0.171712,-0.515009 0.171713,-0.515009 h 0.686852 l 0.515138,-0.17167 -0.343425,-0.858348 1.030277,-0.515009 -0.858565,-0.171669 -1.717128,0.686678 -2.232267,-0.858348 1.030277,-0.515009 Q 25.4088,32.628554 24.507307,32.857562 l -1.030277,0.686678 -1.373703,-0.343339 -1.030277,0.343339 0.686852,-1.373357 -1.20199,0.343339 0.343425,-0.858348 -0.858564,-0.515009 -0.515138,0.17167 0.171712,-0.515009 -1.888841,0.343339 0.515139,-1.030017 1.888841,-0.858348 -0.686851,-0.17167 q -0.386354,-0.915686 0.515138,-0.686678 l 0.515139,-1.030018 -1.373703,0.171669 0.171713,0.515009 H 18.66907 l -1.030277,0.686679 -0.858564,0.343339 1.545416,-2.060035 1.030277,-0.686679 q 0.94442,-0.429174 0.171713,-0.858348 -0.286074,-0.901266 0.858564,-0.515009 l 1.545416,-0.343339 q 0.463624,-1.259025 -1.545416,-0.686679 l 0.343426,-0.686678 q 2.089058,-0.429174 1.888841,0.515009 l 1.20199,0.515009 1.20199,-0.515009 -1.888841,-0.858348 -3.60597,-0.515009 z m -0.171713,1.030018 v 0.343339 l 2.747406,1.030018 v -0.686678 -0.686679 z m -3.777683,4.120071 -0.686851,0.686679 h 0.686851 0.686852 0.686851 z m 57.523807,-4.806749 0.171713,1.888366 h -0.343426 l -0.343426,-1.373357 z m -10.646197,1.716696 1.545415,0.515009 -0.171712,0.858348 -0.858565,-0.343339 -0.515138,1.030017 q -1.159062,0.309006 -0.515139,-1.545026 z m -3.434257,2.403375 0.171712,2.231705 2.40398,3.433392 -0.515138,-0.17167 -1.545416,-1.201687 q -1.085569,-1.686139 -0.515138,-4.29174 z m 13.737028,0 q 1.888841,-0.34334 2.232267,0.858348 l -1.717128,1.030017 q 0.600995,3.347558 -1.20199,4.291741 l -0.686852,0.343339 -1.545416,-0.343339 0.343426,-2.231705 1.373703,-1.716696 v -1.545027 z"
     style="fill:#fffafa" />
  <path
     fill="#f0f0f0"
     stroke="#f0f0f0"
     stroke-width="0.480735"
     stroke-linejoin="round"
     stroke-linecap="round"
     paint-order="stroke fill"
     id="grouped-path-4"
     d="m 57.13275,4.0170655 1.373703,0.3433392 q 0.429282,-0.7725133 0.858564,0.1716696 l 0.171713,0.5150089 0.686851,-0.3433393 0.686852,1.0300178 0.686851,-0.3433393 0.686851,0.3433393 0.515139,-0.1716697 0.515139,0.5150089 0.343425,0.6866785 H 62.970987 L 62.284135,7.1071186 60.567007,6.7637794 61.253858,7.7937971 61.94071,7.4504579 62.455848,8.308806 61.597284,8.8238148 Q 61.082145,7.9654667 60.567007,9.1671541 h -0.858564 v 0.6866785 l -1.20199,0.6866784 0.343425,0.686679 1.20199,0.171669 -2.747405,0.858348 q 0.751415,1.9227 -1.20199,1.373357 0.57249,0.686679 -0.686852,1.373357 l -1.545415,0.515009 0.686851,0.17167 -0.686851,1.716696 1.030277,0.171669 -3.434257,1.030018 0.686851,0.343339 -2.060554,0.17167 q -0.450575,1.14435 1.20199,0.686679 l -0.171713,0.515008 -0.515139,0.858348 -1.373703,0.686679 v -0.343339 l 0.858565,-0.515009 -0.858565,-0.515009 -0.515138,1.030018 -0.686852,-0.17167 2.575693,-2.918383 0.515139,0.171669 q 0.386354,-1.14435 -0.515139,-0.858348 l -1.030277,0.686679 0.686852,-1.030018 2.919118,-0.515009 -1.030277,-0.17167 q -0.643923,-1.648028 0.515139,-1.373357 l 2.575692,-2.060035 q -0.515138,-1.287522 0.515139,-1.030018 0.515139,-1.201687 1.030277,-0.343339 L 57.647888,11.742198 57.304463,11.05552 57.647888,10.368841 57.476176,9.8538326 57.991314,9.6821629 57.819601,9.1671541 58.849878,9.5104933 58.506453,8.4804756 59.708443,8.308806 58.33474,7.6221275 h 0.686851 L 58.678165,6.935449 59.193304,6.7637794 59.880155,7.1071186 q -1.030277,-0.8583481 0,-1.7166962 L 58.849878,5.7337617 58.163027,4.7037439 57.476176,5.0470832 Z m 10.646197,10.6435165 1.373703,1.373357 q 0.429282,-0.772513 0.858564,0.171669 -0.309083,1.15877 1.545416,0.515009 l 1.373702,1.716697 q 0.429283,-0.772514 0.858565,0.171669 l 0.515138,0.858348 0.515139,-0.515009 0.171713,-2.575044 0.343425,1.373357 0.515139,-0.17167 v 1.201688 Q 74.933535,18.394396 75.1626,19.295662 l -0.171713,0.515009 1.373703,-1.030018 0.858564,0.515009 -0.686852,1.030017 0.686852,1.373357 v 0.686679 l 0.686851,2.060035 -0.515138,-0.171669 q -0.901493,0.286001 -0.515139,-0.858348 h -0.343426 q 0.429283,1.287522 -0.858564,0.858348 l -1.20199,-1.888366 0.343426,-0.343339 -1.030277,-1.030018 -1.20199,-2.575044 -1.030277,0.343339 -0.686852,-1.373357 -1.030277,-0.686679 -0.343426,0.34334 -1.373702,-0.686679 -1.030278,0.343339 h -0.686851 l -0.686851,-0.343339 -0.343426,0.686679 -0.515139,-0.17167 -0.171713,0.515009 -1.030277,-0.343339 v 0.686678 l -0.858564,0.515009 -0.515139,0.515009 -1.030277,-0.343339 0.343426,1.030017 -0.858564,0.515009 -0.515139,0.515009 -0.858564,0.515009 v 0.686678 q 0.572491,1.652492 -0.858564,1.201688 l 0.171712,0.515009 0.343426,1.030017 -0.858564,1.201688 -0.515139,0.171669 0.343426,2.231705 q -0.915916,-0.386256 -0.686851,0.515009 l 0.686851,2.403375 -0.171713,0.515009 1.20199,0.515009 q -0.772708,0.429174 0.171713,0.858348 l 1.20199,1.201687 -0.171713,0.515009 0.686852,-0.343339 0.686851,1.716696 0.515139,-0.17167 0.515138,0.515009 v 0.343339 l -1.717128,0.686679 -0.343426,-1.030018 -0.515139,0.17167 -0.515138,-0.515009 -1.030277,0.343339 -1.030277,0.686679 -0.171713,-0.515009 0.171713,-0.515009 q -2.518341,0.901265 -1.888842,-1.201688 h -0.343426 l -0.515138,0.858349 -1.717129,-0.686679 -0.515138,0.17167 0.343425,-1.201688 h -2.060554 v -0.858348 l 0.343426,-1.030017 -0.686852,0.343339 -0.858564,1.201687 -0.171713,-1.030018 q -0.915916,0.386257 -0.686851,-0.515008 l 0.686851,-1.030018 -0.858564,-0.17167 -1.373703,-0.343339 -0.515138,0.17167 0.686851,-1.030018 q -1.373703,-0.686679 0,-1.373357 l -0.171713,-0.515009 -1.545415,1.201687 0.686851,-1.201687 q -1.802985,0 -2.575693,1.373357 l -0.171713,-0.686678 q 1.030277,0.429174 0.686852,-0.858349 0.429282,-0.944183 0.858564,-0.171669 l 0.515139,-0.17167 -0.171713,-0.515009 1.545415,-1.201687 q -0.772707,-0.429174 0.171713,-0.858348 l 1.030277,-0.686679 -0.171713,0.515009 -0.343425,0.686679 0.515138,0.858348 1.030277,-1.716696 1.030278,-0.686679 0.171712,0.515009 -1.030277,1.373357 0.515139,-0.17167 1.373703,-0.343339 -0.515139,0.858348 q 0.286074,0.901266 -0.858564,0.515009 -0.429282,-0.772513 -0.858564,0.17167 l 0.343425,0.343339 -1.373703,1.373357 -0.343425,1.545026 2.919118,-1.373356 -0.171713,0.515008 0.171713,1.201688 0.515139,-0.17167 -0.343426,1.373357 1.545416,-1.201687 0.858564,0.171669 -1.373703,1.030018 1.030277,0.515009 -0.343425,1.716696 0.686851,-0.17167 v -0.686678 l 0.515139,-0.515009 q 0.429282,-0.772513 0.858564,0.17167 l -1.373703,1.716696 1.717129,-1.030018 -0.171713,0.515009 0.686851,-0.343339 0.171713,0.515009 -0.171713,0.515009 0.686852,-0.34334 -0.171713,0.515009 0.171713,0.515009 1.888841,-0.858348 0.686851,-1.030018 -0.686851,-0.343339 q 0.772708,-0.429174 -0.171713,-0.858348 l -0.515138,-0.515009 v -0.686678 q 0.286073,-0.901266 -0.858565,-0.515009 l 0.515139,-0.858348 -0.343426,-0.34334 -0.686851,-1.030017 1.030277,-0.17167 q 0.429282,-1.57936 -0.515139,-2.060035 l -1.20199,-0.17167 q 1.845914,0.300422 2.40398,-0.686679 l -1.030277,-0.343339 1.030277,-0.686678 -1.030277,-0.343339 1.030277,-0.17167 q -0.386354,-0.915686 0.515139,-0.686679 l 0.343426,-0.686678 -1.20199,-0.17167 1.717128,-0.343339 -0.686851,-1.201687 1.373703,-0.515009 -0.343426,-0.686679 1.373703,-0.171669 v -0.686679 l 1.20199,-0.686678 -0.686852,-1.373357 1.545416,0.686678 -0.343426,-0.858348 0.515139,0.17167 1.373703,0.686678 -0.686852,-1.373357 1.20199,0.34334 0.171713,-0.686679 3.090832,1.030018 -0.515139,-0.858348 z m -20.43383,11.330195 v 0.686678 l -1.030277,0.686679 h 1.030277 l 0.686851,-1.030018 z m -15.62587,-4.80675 0.858565,0.515009 -1.888842,0.515009 -1.030277,-0.343339 0.343426,0.686678 q 0.901492,-0.229007 0.515138,0.686679 l -0.686851,0.17167 1.030277,1.373356 -0.686851,0.34334 0.686851,1.030017 -1.030277,0.34334 1.717128,0.515009 -0.686851,1.201687 0.171713,0.858348 0.858564,0.17167 -1.373703,0.343339 1.030277,0.343339 -1.030277,0.343339 1.373703,0.686679 -0.686851,1.030018 0.858564,-0.515009 0.515139,0.515009 -0.171713,0.515008 0.515138,0.17167 -1.030277,0.686678 1.030277,0.686679 -0.858564,1.201687 0.686851,-0.343339 0.515139,1.373357 -1.717129,0.858348 0.171713,0.858348 1.717129,-0.686678 -0.343426,0.686678 -2.919118,2.231705 -0.515139,0.515009 -0.515139,0.17167 -0.171712,-0.515009 -0.858565,0.343339 -0.343425,-2.060035 -2.575693,-1.030018 -0.858565,0.343339 0.515139,-1.030017 1.545416,-0.34334 q 0.386354,-0.915685 -0.515139,-0.686678 l -0.858564,0.515009 0.343426,-0.686679 -0.858565,0.515009 -0.686851,0.343339 -0.171713,-0.515009 0.343426,-0.686678 -1.373703,0.686678 0.686851,-1.716696 -0.515138,0.17167 -1.717129,0.686678 v -1.373357 q -0.901492,0.229008 -0.515138,-0.686678 h -1.545416 l 0.686851,-1.373357 -1.373702,0.686678 -0.515139,-0.171669 -0.515139,0.515009 0.686852,-1.373357 -0.858564,-0.17167 q 0.772707,-0.429174 -0.171713,-0.858348 l -0.171713,0.686678 q -0.915916,0.386257 -0.686852,-0.515008 h -0.686851 l 0.686851,-1.030018 -0.343425,-0.686679 1.030277,-0.515008 q 0.386354,-0.915686 -0.515139,-0.686679 v -0.343339 l 0.515139,-0.515009 q 0.400778,-1.115853 1.717128,-0.858348 0.450918,-1.14435 -1.20199,-0.686679 v -0.343339 l 1.717129,0.343339 0.515139,-0.171669 0.343425,0.686678 -0.171713,0.515009 1.545416,0.515009 -0.858564,0.17167 h -0.686852 l -0.515138,-0.17167 0.171713,-0.515009 -1.030277,0.686679 -1.545416,2.060035 1.373703,-0.343339 q -0.386354,-0.915686 0.515138,-0.686679 0.429282,-1.030017 1.888842,-0.686678 l -0.515139,1.030018 -1.20199,0.171669 1.373703,0.686679 -1.545416,0.858348 -0.171713,-0.686679 -1.030277,0.515009 0.686852,0.343339 -0.343426,0.858348 1.888841,-0.343339 1.20199,0.858348 -0.343425,0.858348 1.20199,-0.343339 -0.858565,1.201687 0.515139,0.515009 q 0.257569,-0.944183 1.717129,-0.686678 l 0.686851,0.343339 0.343426,-0.686678 q -1.030277,0.257504 -0.515139,-1.030018 1.287846,-0.515009 1.030277,0.515009 l -0.171713,0.515009 q 0.901493,-0.229008 0.515139,0.686678 l -1.030277,0.515009 2.575693,0.858348 2.060554,-0.686678 -0.343426,0.686678 -0.515138,0.515009 0.171712,0.515009 -0.686851,0.343339 -0.515139,-0.17167 -0.343425,0.686679 0.686851,0.17167 0.515139,1.030017 1.20199,-0.171669 -1.373703,-0.515009 0.171713,-0.686679 0.686851,0.34334 2.919119,-2.575045 -0.515139,-1.201687 -1.20199,0.858348 1.030277,-3.090053 q -1.20199,-0.515009 -0.343425,-1.030018 l 0.343425,-1.030018 -0.343425,-1.030017 -1.030278,-1.716697 0.686852,-0.343339 -0.686852,-1.373357 0.343426,-0.686678 -1.030277,-0.686679 1.030277,-0.686678 -1.030277,-0.686679 z m 18.888414,0.686679 0.171713,0.858348 -1.20199,0.858348 0.343426,-1.030018 -5.151386,2.746714 0.515139,-0.858348 1.888841,-2.231705 0.515139,0.515009 -0.171713,0.515009 2.40398,-1.030018 0.515138,0.17167 z M 23.47703,22.214045 h 2.747406 l 0.171713,0.515009 -0.171713,0.858348 -1.20199,-0.515009 0.686851,-0.343339 -0.858564,-0.17167 -0.686851,0.34334 z m -4.464534,0.343339 h 2.40398 l 3.60597,1.201688 -1.030277,0.343339 0.171713,0.515009 -1.545416,-0.858348 q 0.200217,-0.944183 -1.888841,-0.515009 l -0.343426,0.686678 1.030277,0.34334 0.515139,-0.17167 q 0.300497,1.030018 -1.20199,0.515009 l -0.686852,0.343339 V 24.61742 l 0.515139,-0.17167 -0.858565,-0.171669 -0.858564,0.343339 q 0.386354,-0.915686 -0.515138,-0.686679 v -0.343339 l 1.545415,0.343339 -0.171713,-0.686678 -0.515138,0.17167 -0.171713,-0.515009 -0.686851,0.343339 v -0.343339 z m 56.665242,3.776732 0.171713,1.545027 -1.373703,1.716696 -0.343426,2.231705 1.373703,0.17167 -1.030277,0.515008 v 1.030018 l 1.20199,0.686679 0.343426,0.686678 -1.888842,0.686679 q 0.515139,-1.287523 -0.515138,-1.030018 l -0.515139,0.171669 -0.171713,-0.515008 -1.030277,1.373357 -0.171713,-0.686679 -1.030277,0.17167 0.343426,1.201687 -1.888841,0.343339 -1.373703,1.373357 v -0.686678 l -0.686852,-0.343339 q -0.257569,0.944182 -1.717128,0.686678 l 2.060554,-2.403375 2.232267,-1.201687 0.171713,-0.515009 1.888841,0.343339 -0.343425,-1.201687 2.060554,-2.918384 q 0.915916,0.386257 0.686851,-0.515008 z m 2.060554,3.433392 0.858565,1.545027 -0.686852,1.373357 0.171713,0.515009 -2.232267,-1.201687 1.030277,-0.686679 z m -48.76645,3.090054 0.515138,0.171669 -2.575693,0.858348 V 33.54424 Z m 35.372848,3.090053 q 1.287846,-0.343339 0.858564,0.686678 -1.030277,-0.343339 -0.686851,0.686679 h -1.030278 z"
     style="fill:#ffffff" />
  <path
     fill="#1d1d1d"
     stroke="#1d1d1d"
     stroke-width="0.480735"
     stroke-linejoin="round"
     stroke-linecap="round"
     paint-order="stroke fill"
     id="grouped-path-5"
     d="M 49.233958,0.92701231 52.32479,1.2703515 h 0.686851 l 2.575693,1.373357 q 1.57392,1.6308614 1.717129,4.978419 L 56.617611,8.8238148 55.243908,9.1671541 V 9.8538326 Q 53.956062,9.3388237 54.213631,10.368841 H 53.52678 q 0.386354,1.14435 -0.515139,0.858349 l -0.515138,1.030017 -0.686852,0.17167 0.171713,0.515009 -1.20199,1.201687 -0.343426,0.858348 -2.232267,0.686679 -3.60597,-1.716697 -1.717128,-3.261722 V 6.935449 l 0.686851,-2.2317051 q 0.915917,0.3862567 0.686852,-0.5150088 l 1.030277,-0.5150089 0.515138,-1.0300177 z m 2.919119,0.68667849 -0.343426,1.373357 0.686852,0.3433392 0.686851,-0.6866785 q 0.343426,1.0300177 1.030277,0.6866785 l 0.686852,0.3433392 -0.343426,0.6866785 0.343426,0.6866785 V 4.7037439 h 0.686851 V 4.0170655 L 52.839928,1.6136908 Z M 66.74867,17.750635 q 3.840186,-0.06249 5.323098,2.231705 l 1.717129,4.120071 v 3.776732 q -0.972925,2.975721 -3.262545,4.635079 -2.134047,1.814892 -6.525088,1.373357 -2.861766,-0.572346 -4.292821,-2.575044 -1.488064,-1.430695 -1.030278,-4.806749 1.549194,-4.631303 4.979673,-7.381794 z m -0.171713,2.746714 -1.373703,0.686678 q -2.40398,1.373357 -3.090831,4.80675 -0.343426,3.090053 1.030277,4.806749 l 2.747405,1.716696 q 2.747406,0.686679 4.121109,-0.343339 l -3.434257,-0.686678 -2.747406,-3.090053 q -0.686851,-3.433393 0.686852,-4.80675 1.030277,-2.060035 3.777682,-2.746714 l 1.373703,0.343339 h 0.686852 q -1.030278,-1.373356 -3.777683,-0.686678 z m 4.121108,1.716696 -1.373703,1.716696 1.717129,1.030018 0.686851,-1.373357 -0.343425,-0.343339 z m -3.777682,0.686679 q -1.373703,0.343339 -1.030278,2.403374 0.343426,0.686679 2.060555,0.34334 1.030277,-0.34334 0.686851,-1.716697 -0.343426,-1.373357 -1.717128,-1.030017 z m -1.717129,5.493428 -0.343426,1.030017 1.373703,1.030018 0.343426,-0.343339 q 1.373703,0.343339 0.686851,-1.030018 z m -30.04975,-7.896803 1.888842,0.17167 -0.343426,0.686678 v 0.686679 l 0.343426,1.716696 v 0.686678 q -0.429282,2.088533 0.515138,1.888366 l -0.171713,0.515009 0.343426,1.030018 v 0.686678 l 1.373703,3.948401 q 0.915916,-0.386256 0.686851,0.515009 l 2.919119,3.605062 3.090831,2.403375 5.151386,2.403375 5.151386,1.373357 5.323098,0.515008 -0.343426,0.686679 3.434258,4.29174 3.949395,3.090054 q 4.078181,0.214587 6.00995,2.575044 l 0.686852,2.060035 -2.232268,3.605062 -1.717128,1.030018 -3.434257,0.686679 -3.777683,-0.686679 -3.777683,-1.373357 -6.696801,-3.776732 -0.343426,4.120071 2.40398,1.545027 0.686852,2.403375 -1.545416,1.545026 -2.747406,0.686679 -1.717128,-0.34334 h -0.686852 q -4.334376,0.213214 -5.666524,-2.575044 -2.396768,-3.497597 -2.747406,-8.411811 l 4.636247,-1.030018 2.575693,-1.545027 -1.20199,-0.515008 h -0.686851 l -0.686852,0.343339 -0.171712,-0.686679 -1.20199,-0.686678 Q 43.481578,49.938689 44.254286,49.509515 L 42.365444,47.621149 41.850306,47.10614 Q 38.274557,43.985873 36.355494,39.209338 L 34.29494,34.402588 V 32.342553 L 33.264663,28.90916 v -0.686678 -5.150089 l 0.343426,-0.343339 v -0.686678 l 0.343425,-0.686679 -0.171712,-0.515009 z m 30.04975,28.497157 -0.343426,0.686678 1.373703,0.686679 z M 9.3965761,22.557384 l 0.6868519,0.34334 1.373702,-0.34334 q 2.275196,0.300422 3.262545,1.888366 l -1.717129,1.201688 -1.373703,2.403374 q -0.915916,-0.386256 -0.686851,0.515009 L 8.8814375,32.170883 H 8.0228733 L 6.1340319,30.282517 5.4471804,28.222482 v -0.686679 l 1.3737029,-3.605062 z m 70.7456959,3.776732 1.545416,1.201687 0.343426,1.716697 -1.20199,1.888365 -2.919119,-1.888365 q -0.429282,-1.802531 0.515139,-2.231705 z m -0.515138,0.686679 q -1.030277,0.686678 0,1.030017 2.060554,0.34334 1.717128,-0.343339 -0.343425,-1.030018 -1.717128,-0.686678 z m -4.292822,5.493427 1.030278,1.373357 2.747405,0.34334 1.030277,-0.686679 0.171713,0.686679 q -0.785071,0.882725 -2.919118,0.686678 L 75.1626,33.37257 Z m -61.816627,3.433393 h 0.686851 q 3.022146,-0.618011 4.121109,0.686678 0.515138,-0.858348 1.030277,0.34334 l 1.030277,0.686678 0.515138,-0.17167 0.515139,0.858348 h 0.858564 v 0.686679 l 1.373703,0.686678 v 0.858349 q 2.346628,2.117373 1.717129,7.210124 l -1.717129,4.29174 q -0.915916,-0.386257 -0.686851,0.515009 l -0.171713,0.515009 3.434257,1.373357 6.696801,0.686678 v 3.261723 l 0.515139,0.515009 2.575693,1.545026 0.343425,2.060036 -1.888841,1.545026 -3.090831,0.686679 -0.686852,-0.343339 -0.343426,0.343339 h -4.121108 l -1.717129,-0.343339 -1.545415,-1.545027 -0.686852,-2.746714 -3.262544,-4.29174 -1.373703,1.373357 -6.353375,3.261722 1.030277,3.433393 -2.5756932,1.888366 -0.6868514,-0.34334 H 8.366299 Q 4.6157468,65.104326 3.0432005,62.556406 L 0.98264621,59.123013 Q 0.03822551,57.663822 0.29579479,55.002943 L 3.0432005,51.397881 q 0.9159163,0.386256 0.6868514,-0.515009 l 2.7474057,-4.46341 1.0302771,-3.776732 1.8888414,-3.605062 0.5151386,-0.515009 z" />
</svg>
